<?xml version="1.0" encoding="utf-8"?>
<!-- Generator: Adobe Illustrator 21.0.2, SVG Export Plug-In . SVG Version: 6.00 Build 0)  -->
<svg version="1.1" id="Laag_1" xmlns="http://www.w3.org/2000/svg" xmlns:xlink="http://www.w3.org/1999/xlink" x="0px" y="0px"
	 viewBox="0 0 104.1 104.1" style="enable-background:new 0 0 104.1 104.1;" xml:space="preserve">
<style type="text/css">
	.st0{fill:#B5D89E;}
	.st1{fill:#44C4D7;}
	.st2{fill:#47AD98;}
	.st3{fill:#346867;}
</style>
<g>
	<path class="st0" d="M56.3,78.4c0-0.7,0.2-1.6,0.5-2.5c0.7-2.8,1.2-5.6,1.3-8.5c0-1-0.3-1.8-1.1-2.4c-0.7-0.5-1.4-1.1-2-1.7
		c-1.5-1.8-1.5-3.8-1-5.9c0.2-0.9,0.5-1.7,1.1-2.4c0.7-0.7,1.5-1.1,2.5-0.9c0.8,0.2,1.6,0.3,2.4,0.5c1.4,0.3,2.7,1,3.8,2.1
		c1,1,2.3,1.7,3.7,2c0.6,0.1,1.2,0.3,1.8,0.6c1.2,0.6,1.6,1.6,1.3,2.9c-0.2,0.7-0.5,1.2-0.8,1.8c-1.7,2.7-3.4,5.4-5.4,7.9
		c-0.8,1-1.8,1.8-2.7,2.6c-1.8,1.5-2.5,3.6-2.8,5.8c-0.1,0.7,0.2,1.3,0.7,1.7c0.2,0.2,0.5,0.2,0.3,0.6c-0.2,0.4-0.5,0.6-1,0.5
		c-0.4-0.1-0.7-0.3-1-0.6C56.7,81.3,56.3,80.2,56.3,78.4z"/>
	<path class="st0" d="M85.6,43c-0.9-2.6-2-5.1-3.6-7.3c0,0.2-0.1,0.4-0.2,0.6c-0.5,0.8-0.9,1.6-1.1,2.5c-0.3,1-0.2,2,0.7,2.8
		c0.3,0.3,0.7,0.6,1,0.9c0.5,0.5,0.5,1.4-0.1,1.5c-1.3,0.2-2.1,1-2.9,2c0,0.1-0.1,0.2-0.1,0.2c0,0.1-0.1,0.2-0.1,0.3
		c-0.8,1.6-1.1,3.2-1,4.9c0.2,5.8,7.6,2.9,9.2,2.3C87.4,50,86.7,46.5,85.6,43z"/>
	<path class="st1" d="M82.4,55L82.4,55c-2.7,0.4-3.7-1.3-4.1-3.5c-0.3-1.7,0.1-3.4,0.9-5c0-0.1,0.1-0.2,0.1-0.3l0,0
		c0-0.1,0.1-0.2,0.1-0.2c0.7-0.9,1.6-1.7,2.9-2c0.6-0.1,0.6-1,0.1-1.5c-0.3-0.3-0.7-0.6-1-0.9c-0.9-0.8-1-1.7-0.7-2.8
		c0.2-0.9,0.7-1.7,1.1-2.5c0.1-0.2,0.2-0.4,0.2-0.6c-2.2-3.4-5-6.3-8.3-8.7c0,0-0.1-0.1-0.1-0.1c0,0,0,0-0.1,0c-0.7,0-1.4,0.1-2.2,0
		c-1.7-0.1-2.9,0.8-4,1.9c-0.4,0.4-0.8,0.7-1.2,0.9c-0.6,0.3-1.2,0.3-1.7-0.2c-0.4-0.4-0.7-0.8-0.9-1.3c-0.5-1.3-0.9-2.6-1-4
		c0-0.5,0.1-1.1,0.3-1.5c0.1-0.2,0.2-0.5,0.2-0.7c-1.1-0.3-2.3-0.5-3.4-0.7c-0.8-0.1-3.3-0.4-3.8-0.4c-0.2,0-0.4,0-0.6,0
		s-0.4,0-0.6,0c-0.6,1-0.5,1.6,0.4,2.4c0.7,0.6,1.5,1.1,2.3,1.5c0.6,0.4,1.1,0.8,1.7,1.3c1.1,1-0.2,3.8-2.1,2.1
		c-0.8-0.7-3-3.6-4.7-4.3c-1.6-0.6-3.2-1.1-4.9-0.7c-2,0.4-3.8,1.2-5.6,2.1c-0.3,0.2-0.8,0.3-0.8,0.8c0,0.1-0.1,0.2-0.1,0.3
		c0.1,0.4,0.4,0.5,0.8,0.5c1.1,0,2.1-0.3,3.1-0.5c1.4-0.3,2.7-0.7,4.1-0.7c0.5,0,1.2-0.1,1.4,0.5c0.2,0.6-0.3,1-0.6,1.4
		c-0.4,0.4-0.9,0.8-1.4,1.2c-0.4,0.3-0.6,0.6-0.9,1c-0.7,1-0.6,2.2,0.5,2.9c1.4,1,3,1.5,4.7,1.4c1-0.1,1.2-0.4,1.2-1.3
		c0-0.6-0.1-1.2,0.1-1.8c0.2-0.8,0.7-1.2,1.5-0.9c1.5,0.4,2.8,1.2,4.2,1.9c0.5,0.3,1,0.6,1.5,1c1,0.8,1.1,1.7,0.3,2.7
		c-0.5,0.6-1,1.1-1.6,1.6c-1.9,1.7-3.8,3.4-5.4,5.4c-0.9,1.1-1.2,2.4-0.7,3.8c0.1,0.4,0.2,0.7,0.3,1.1c0,0.2,0.1,0.4-0.1,0.5
		c-0.2,0.1-0.4,0.1-0.5,0c-0.4-0.2-0.6-0.5-0.9-0.7c-1-1.2-2.7-1.6-4.2-1c-0.6,0.2-1.1,0.6-1.6,1.1c-1.1,1.2-0.7,2.6,0.8,3.2
		c0.5,0.2,1,0.2,1.6,0.3c1.9,0.2,3.8,1.9,4.1,3.8c0,0.2,0.1,0.5-0.1,0.6c-0.2,0.1-0.5,0.1-0.7-0.1c-0.8-0.5-1.3-1.3-1.8-2.1
		c-0.6-1-1.4-1.4-2.5-1.2c-0.2,0-0.4,0-0.6,0c-2.2,0.3-3.8-0.6-4.9-2.4c-0.9-1.5-2.1-2.7-3.6-3.5c-2.9-1.6-4.4-4.2-5.2-7.2
		c-0.6-2.2-1.4-4.2-2.9-6c-0.2-0.2-0.3-0.5-0.6-0.6c-4.4,5.1-7,11-7.8,17.6c0,0.4,0,0.8-0.2,1.2c0,1.8,0,3.6,0,5.4
		c0.3,0.6,0.2,1.4,0.3,2C24.2,72,34.4,83,48,85.7c11,2.2,20.8-0.7,29.1-8.2c0.5-0.4,1-0.8,1.3-1.4c0.5-0.6,1-1.2,1.5-1.7
		c1.7-1.9,3-4,4.1-6.3c2.2-4.6,3.4-9.4,3.3-14.5C85.7,54.3,84.1,54.8,82.4,55z M70.5,62.1c-0.2,0.7-0.5,1.2-0.8,1.8
		c-1.7,2.7-3.4,5.4-5.4,7.9c-0.8,1-1.8,1.8-2.7,2.6c-1.8,1.5-2.5,3.6-2.8,5.8c-0.1,0.7,0.2,1.3,0.7,1.7c0.2,0.2,0.5,0.2,0.3,0.6
		c-0.2,0.4-0.5,0.6-1,0.5c-0.4-0.1-0.7-0.3-1-0.6c-1-1.1-1.5-2.2-1.5-4c0-0.7,0.2-1.6,0.5-2.5c0.7-2.8,1.2-5.6,1.3-8.5
		c0-1-0.3-1.8-1.1-2.4c-0.7-0.5-1.4-1.1-2-1.7c-1.5-1.8-1.5-3.8-1-5.9c0.2-0.9,0.5-1.7,1.1-2.4c0.7-0.7,1.5-1.1,2.5-0.9
		c0.8,0.2,1.6,0.3,2.4,0.5c1.4,0.3,2.7,1,3.8,2.1c1,1,2.3,1.7,3.7,2c0.6,0.1,1.2,0.3,1.8,0.6C70.4,59.8,70.8,60.8,70.5,62.1z"/>
	<path class="st2" d="M54.8,25.9c0,0,0.1,0.1,0.1,0.1C54.8,26,54.8,25.9,54.8,25.9z"/>
	<path class="st0" d="M73.5,26.9c-0.7,0-1.4,0.1-2.2,0c-1.7-0.1-2.9,0.8-4,1.9c-0.4,0.4-0.8,0.7-1.2,0.9c-0.6,0.3-1.2,0.3-1.7-0.2
		c-0.4-0.4-0.7-0.8-0.9-1.3c-0.5-1.3-0.9-2.6-1-4c0-0.5,0.1-1.1,0.3-1.5c0.1-0.2,0.2-0.5,0.2-0.7C66.8,23,70.3,24.6,73.5,26.9z"/>
	<path class="st3" d="M73.7,27c0,0-0.1-0.1-0.1-0.1C73.6,27,73.6,27,73.7,27z"/>
	<path class="st0" d="M60.6,32.9c-0.5-0.4-1-0.7-1.5-1c-1.4-0.7-2.7-1.5-4.2-1.9c-0.8-0.2-1.3,0.1-1.5,0.9c-0.1,0.6-0.1,1.2-0.1,1.8
		c0,1-0.3,1.3-1.2,1.3c-1.7,0.1-3.3-0.4-4.7-1.4c-1-0.7-1.2-1.9-0.5-2.9c0.3-0.4,0.5-0.7,0.9-1c0.5-0.4,1-0.8,1.4-1.2
		c0.4-0.4,0.9-0.8,0.6-1.4c-0.2-0.6-0.9-0.5-1.4-0.5c-1.4,0-2.8,0.4-4.1,0.7c-1,0.2-2,0.5-3.1,0.5c-0.4,0-0.7-0.1-0.8-0.5
		c0-0.1,0.1-0.2,0.1-0.3c0.1-0.5,0.5-0.6,0.8-0.8c1.8-0.9,3.7-1.7,5.6-2.1c1.7-0.4,3.2,0,4.8,0.7c1,0.4,2.4,1.6,3,2.3
		c0.5,0.6,1.1,1.2,1.9,2c1.5,1.5,4,0,2.1-2.1c-0.5-0.5-1.1-0.9-1.7-1.3c-0.8-0.5-1.6-0.9-2.3-1.5c-0.8-0.8-1-1.4-0.4-2.4
		c-0.8,0-2.5,0.1-2.6,0.1c-1.5,0.1-3,0.3-4.5,0.7c-5.8,1.3-10.9,4-15.2,8.1c-0.8,0.7-1.6,1.5-2.3,2.4c0.2,0.1,0.4,0.4,0.6,0.6
		c1.4,1.8,2.3,3.8,2.9,6c0.8,3,2.3,5.7,5.2,7.2c1.5,0.8,2.7,2,3.6,3.5c1.1,1.8,2.7,2.7,4.9,2.4c0.2,0,0.4,0,0.6,0
		c1.1-0.2,1.9,0.2,2.5,1.2c0.5,0.8,0.9,1.6,1.8,2.1c0.2,0.1,0.4,0.2,0.7,0.1c0.2-0.2,0.2-0.4,0.1-0.6c-0.4-1.9-2.2-3.6-4.1-3.8
		c-0.5-0.1-1.1-0.1-1.6-0.3c-1.5-0.6-1.8-2.1-0.8-3.2c0.4-0.5,1-0.9,1.6-1.1c1.4-0.6,3.1-0.2,4.2,1c0.3,0.3,0.5,0.6,0.9,0.7
		c0.2,0.1,0.4,0.1,0.5,0c0.2-0.1,0.1-0.3,0.1-0.5c-0.1-0.4-0.2-0.7-0.3-1.1c-0.5-1.4-0.2-2.6,0.7-3.8c1.6-2,3.5-3.7,5.4-5.4
		c0.6-0.5,1.1-1,1.6-1.6C61.7,34.6,61.6,33.7,60.6,32.9z"/>
</g>
</svg>
