<?xml version="1.0" encoding="utf-8"?>
<!-- Generator: Adobe Illustrator 21.0.2, SVG Export Plug-In . SVG Version: 6.00 Build 0)  -->
<svg version="1.1" id="Laag_1" xmlns="http://www.w3.org/2000/svg" xmlns:xlink="http://www.w3.org/1999/xlink" x="0px" y="0px"
	 viewBox="0 0 104.1 104.1" style="enable-background:new 0 0 104.1 104.1;" xml:space="preserve">
<style type="text/css">
	.st0{fill:#44C4D7;}
	.st1{fill:#C6E9FC;}
	.st2{fill:#FFFFFF;}
</style>
<g>
	<path class="st0" d="M68.1,63c1,0.3,1.6,1.1,2.3,1.7c1.7,1.6,3.1,3.4,4.2,5.4c1.5,2.6,2.4,5.4,2.8,8.4c0.2,1.5,0.2,3-0.2,4.4
		c-0.9,3.4-3.8,6-7.3,6.5c-4.9,0.7-9.3-2.6-10.2-7.3c-0.4-2.1,0-4,1-5.9c0.9-1.8,2.1-3.5,3.3-5.2c1.1-1.6,2.1-3.3,2.7-5.2
		c0.1-0.5,0.2-1.1,0.3-1.6c0.1-0.5,0.3-1,0.8-1.2C67.8,63,68,63,68.1,63z M61.6,80.3c0,1.4,0.4,2.5,1,3.5c0.4,0.6,0.8,1.1,1.3,1.5
		c0.3,0.3,0.8,0.2,1,0c0.3-0.3,0.3-0.7,0-1c-0.1-0.1-0.3-0.3-0.4-0.4c-1.2-1.3-1.7-2.8-1.3-4.6c0.2-0.9,0.6-1.7,1.1-2.5
		c0.2-0.4,0.1-0.8-0.2-1c-0.3-0.2-0.8-0.1-1,0.2C62.2,77.4,61.7,78.9,61.6,80.3z"/>
	<path class="st1" d="M42.1,80.7c-14.8,0.4-23.8-12.4-21.8-26.3c1.5-10.4,7.2-20.4,12.8-29.2c0.5-0.8,7.7-10.1,7.4-10.6
		c0,0,8.6,13.6,11.8,18c5.2,7.3,8.9,13.4,10,22.2c0.8,7-0.4,13.5-5.4,18.9C52.5,78.3,47.2,80.5,42.1,80.7z M31.5,71.4
		c0.2,0,0.5-0.1,0.7-0.2c1.1-0.6,1.2-2,0.1-3c-2.4-2.3-4-5.1-4.1-8.5c-0.1-3.2,1.1-5.9,2.7-8.5c0.7-1.1,0.7-2-0.4-2.7
		c-1.1-0.7-1.9-0.1-2.5,0.8c-0.7,1.1-1.3,2.2-1.8,3.4c-2.8,6.2-1.5,13,3.3,17.7C30.1,70.8,30.7,71.3,31.5,71.4z"/>
	<path class="st2" d="M61.6,80.3c0.1-1.5,0.6-2.9,1.5-4.3c0.2-0.3,0.7-0.4,1-0.2c0.3,0.2,0.4,0.6,0.2,1c-0.5,0.8-0.9,1.6-1.1,2.5
		c-0.4,1.8,0.1,3.2,1.3,4.6c0.1,0.2,0.3,0.3,0.4,0.4c0.3,0.3,0.3,0.7,0,1c-0.3,0.3-0.7,0.3-1,0c-0.5-0.4-1-0.9-1.3-1.5
		C62,82.8,61.6,81.7,61.6,80.3z"/>
	<path class="st2" d="M31.5,71.4c-0.9,0-1.4-0.5-1.9-1c-4.9-4.7-6.2-11.5-3.3-17.7c0.5-1.2,1.2-2.3,1.8-3.4c0.6-0.9,1.4-1.5,2.5-0.8
		c1.1,0.7,1.1,1.6,0.4,2.7c-1.6,2.6-2.9,5.3-2.7,8.5c0.1,3.5,1.6,6.2,4.1,8.5c1.1,1,1,2.4-0.1,3C32,71.3,31.7,71.3,31.5,71.4z"/>
</g>
</svg>
