<?xml version="1.0" encoding="utf-8"?>
<!-- Generator: Adobe Illustrator 21.0.2, SVG Export Plug-In . SVG Version: 6.00 Build 0)  -->
<svg version="1.1" id="Laag_1" xmlns="http://www.w3.org/2000/svg" xmlns:xlink="http://www.w3.org/1999/xlink" x="0px" y="0px"
	 viewBox="0 0 104.1 104.1" style="enable-background:new 0 0 104.1 104.1;" xml:space="preserve">
<style type="text/css">
	.st0{fill:#E6E6E6;}
	.st1{fill:#6C6464;}
</style>
<g>
	<path d="M80.1,34c-0.5,7.5-3.3,15.1-8.2,21.8c-2.3,3.1-4.9,5.9-7.6,8.6c-4.9,5-4.9,4.9-8.3-0.9c-2.2-3.9-4.2-1.1-5.6,0.5
		c-2.2,2.5-3.7,5.5-5.7,8.2c-1.8,2.5-4.2,4.3-7.3,5c-2.9,0.7-5.7,0.5-7.9-1.8c-2.3-2.4-2.8-5.2-1.8-8.3c0.9-2.8,2.4-5.1,4.8-6.8
		c2.5-1.9,5.2-3.6,7.8-5.4c3.7-2.6,3.7-4.9-0.3-6.5c-4.6-1.8-4.3-3.2-1.1-6.5c8.7-9,18.4-15.8,31.3-16.9
		C77.7,24.3,80.1,26.4,80.1,34z M34.2,66.4c-3.4,0.8-2.6,3.5-1.7,5.3c1.1,2.2,3.5,1.8,5.3,0.7c5.7-3.6,8.4-9.3,11.1-16.1
		c-4.4,0.9-7.4,2.7-10.1,4.8C37,62.6,33.8,63.1,34.2,66.4L34.2,66.4z M60.9,60.3c7.8-6.9,12.5-15.4,13.9-25.7
		c0.5-3.3-0.7-4.6-4.1-4.3c-9.2,0.7-16.9,4.8-23.5,11c-0.9,0.9-3.1,1.7-1.9,3.4c1.1,1.5,2.8,1.8,4.8,0.6c2.4-1.4,5-2.7,7.7-3.4
		c3.8-1,5.8,1,5.2,4.8c-0.4,2.7-1.5,5.1-3,7.3C58.7,56.3,58.7,58.3,60.9,60.3z M53.3,59c3.7-3.9,5.9-7.6,7.2-11.9
		c0.8-2.6-0.7-3.1-2.6-2.4C53.6,46,49.6,48,46,52.1C51.8,51.1,53.5,53.7,53.3,59z"/>
	<path class="st0" d="M60.9,60.3c-2.2-2.1-2.2-4-0.7-6.3c1.4-2.2,2.6-4.7,3-7.3c0.5-3.9-1.5-5.9-5.2-4.8c-2.7,0.7-5.3,2-7.7,3.4
		c-2,1.2-3.8,0.9-4.8-0.6c-1.1-1.6,1-2.5,1.9-3.4c6.6-6.2,14.3-10.2,23.5-11c3.4-0.3,4.5,1,4.1,4.3C73.4,44.9,68.8,53.4,60.9,60.3z"
		/>
	<path d="M34.2,66.5c-0.4-3.4,2.8-3.9,4.6-5.3c2.7-2.1,5.7-3.9,10.1-4.8c-2.7,6.8-5.4,12.5-11.1,16.1c-1.8,1.1-4.2,1.5-5.3-0.7
		C31.6,69.9,30.9,67.3,34.2,66.5c0,0.9-0.2,1.8-0.2,2.8c0.1,1.1,0.8,1.8,1.9,1.9c1.1,0.1,1.9-0.5,2.2-1.5c0.4-1.2,0.1-2.4-1.1-2.8
		C36.2,66.5,35.1,66.6,34.2,66.5z"/>
	<path class="st0" d="M53.3,59c0.2-5.3-1.5-7.9-7.2-6.8c3.6-4.2,7.6-6.1,11.9-7.5c1.9-0.6,3.4-0.2,2.6,2.4
		C59.1,51.3,57,55.1,53.3,59z"/>
	<path class="st1" d="M34.2,66.5c1,0.1,2,0,2.8,0.3c1.3,0.5,1.5,1.6,1.1,2.8c-0.3,1-1.2,1.6-2.2,1.5c-1.1-0.1-1.8-0.8-1.9-1.9
		C33.9,68.4,34.2,67.4,34.2,66.5L34.2,66.5z"/>
</g>
</svg>
