<?xml version="1.0" encoding="utf-8"?>
<!-- Generator: Adobe Illustrator 21.0.2, SVG Export Plug-In . SVG Version: 6.00 Build 0)  -->
<svg version="1.1" id="Laag_1" xmlns="http://www.w3.org/2000/svg" xmlns:xlink="http://www.w3.org/1999/xlink" x="0px" y="0px"
	 viewBox="0 0 104.1 104.1" style="enable-background:new 0 0 104.1 104.1;" xml:space="preserve">
<style type="text/css">
	.st0{fill:#CCCCCC;}
</style>
<g>
	<path class="st0" d="M51.1,46.1c0.9,1.3,1.8,0.8,3.1,0.3s2.2-1.7,3-2.8c3.9-5.3,8.8-10.9,12.8-16.1c-1.1,0.2-3,0.9-4,1.3
		c-3.3,1.5-6.3,3.5-9.1,5.8c-2.3,1.9-4.4,4.3-5.4,7.2C51.1,43,50.5,44.6,51.1,46.1"/>
	<path class="st0" d="M78.9,35.8c0.4-0.2,0.8-0.9,1-0.2c0.2,0.4-0.1,1.1-0.3,1.4c-1.5,3-3.1,5.9-5.1,8.7c-0.7,1-1.4,1.9-2.2,2.8
		c-2.7,3.2-6,5.9-9.8,7.4c-0.7,0.3-1.5,0.5-2.1,0.2c-0.8-0.4-1-1.3-1-2.1c0-1.6,0.8-3.2,1.9-4.3c1.1-1.2,2.4-2.1,3.8-3
		c2.8-2,5.6-4,8.3-6.2C75.3,38.9,77.1,37.3,78.9,35.8"/>
	<path d="M82.1,36.5c-0.8,7.4-12.4,19.7-19.5,20.9c-2.7,0.5-4,1.2-4,4.2c0.1,6.7-5.2,11.2-7.6,17c-1.2,2.8-4.7,2.6-7.3,0.3
		c-3-2.7-3.1-5.6-0.3-8.2c2.3-2.2,5-4,6.7-6.7c1-1.7,2.4-3.6-0.2-5.1c-2.5-1.5-3.7-6.3-8-2.9c-2.2,1.8-4.2,3.7-6,6
		c-1.6,2.1-3.9,3.4-6.6,2c-2.1-1.1-4-2.8-3.9-5.4c0.2-2.7,1.8-4.5,4.6-5.2c4.2-0.9,6.8-4.6,11-5.7c6-1.5,5.7-1.8,8.4-7.7
		c3.7-8.3,11.4-12.3,19.1-15.9c1.6-0.8,4-0.3,5,1.3c0.9,1.5-1,2.6-1.9,3.7c-4.1,5.3-8.3,10.4-12.4,15.7c-0.6,0.7-1.6,1.5-0.6,2.6
		c1,1,1.8-0.1,2.5-0.6c5.4-4.2,10.7-8.5,16.1-12.7c1-0.7,1.9-2.5,3.3-1.6C81.9,33.5,82.2,35.3,82.1,36.5z M79.6,35.4
		c-6,4.8-11.5,9.3-17.5,14c-1.8,1.4-3.2,3.3-2.1,5c1.1,1.7,3.4,0.4,5-0.3C73.2,50.4,79.9,36.2,79.6,35.4z M69.4,27.8
		c-5,1.2-8.8,3.8-12.4,6.7c-2.6,2.1-4.8,4.7-5.6,8c-0.3,1.2-1,2.9,0.5,3.6c1.3,0.6,2.9,0.2,4-1.2C60.3,39.1,64.9,33.5,69.4,27.8z"/>
</g>
</svg>
