<?xml version="1.0" encoding="utf-8"?>
<!-- Generator: Adobe Illustrator 21.0.2, SVG Export Plug-In . SVG Version: 6.00 Build 0)  -->
<svg version="1.1" id="Laag_1" xmlns="http://www.w3.org/2000/svg" xmlns:xlink="http://www.w3.org/1999/xlink" x="0px" y="0px"
	 viewBox="0 0 104.1 104.1" style="enable-background:new 0 0 104.1 104.1;" xml:space="preserve">
<style type="text/css">
	.st0{fill:#694D3F;}
	.st1{fill:#499E10;}
	.st2{fill:#3A7F0E;}
	.st3{fill:#B5D89E;}
	.st4{fill:#762916;}
</style>
<g>
	<g>
		<path class="st0" d="M60.7,55.9c-1.4-0.8-3-1.5-3.3-3.3c-0.2-1,0.1-1.9,0.8-2.1c0.9-0.3,1.6,0.1,2.1,0.8
			C61.3,52.3,61.4,53.7,60.7,55.9z"/>
		<path class="st0" d="M57.3,43.7c0,0.3,0.1,0.6,0.1,0.9c0,0.7,0.3,1.7-0.3,1.9c-0.5,0.2-1.3-0.4-1.9-0.7c-1.1-0.7-1.9-1.6-1.8-3
			c0.1-1.1,0.9-1.6,1.9-1.3C56.5,41.8,57,42.6,57.3,43.7z"/>
		<path class="st0" d="M53.4,50.3c0,0.4,0.1,0.8,0.1,1.2c0,2,0.3,1.9-1.7,1.1c-1.1-0.5-2-1.2-2.2-2.5c-0.1-0.7-0.1-1.4,0.6-1.8
			c0.7-0.4,1.3-0.2,1.9,0.2C52.8,48.8,53.2,49.4,53.4,50.3z"/>
		<g>
			<g>
				<path class="st1" d="M16,29c4.1-0.9,10.1-5.8,14.3-8.5c1.4-0.8,11-8,11.4-6.2c0.7,2.9,0.4,6.5,1.7,9.2c1,2,2.9,3.3,4.8,4.3
					c4.2,2.4,13.3,3.9,13.7,4.4c1.4,1.7-2.4,3.8-3.4,4.4c-3.2,1.8-5.9,3.6-8.7,5.9c-2.4,2-5,7-5.1,10.3c0,1.5-7.3-0.6-8.5-7
					c-0.3-1.5-0.7-3.2-2-4.1c-0.8-0.5-1.7-0.7-2.6-1c-5.7-2-5.8-8.4-11-10.9"/>
			</g>
			<path class="st2" d="M16,29c4.1-0.9,10.1-5.8,14.3-8.5c1.4-0.8-1,8.6-0.6,10.5c0.7,2.9,6.1,1.4,7.4,4c1,2,1.6,9.5,3.5,10.6
				c4.2,2.4,12-5.4,9.1-3.1c-2.4,2-5,7-5.1,10.3c0,1.5-7.3-0.6-8.5-7c-0.3-1.5-0.7-3.2-2-4.1c-0.8-0.5-1.7-0.7-2.6-1
				c-5.7-2-5.8-8.4-11-10.9"/>
		</g>
	</g>
	<g>
		<g>
			<path class="st3" d="M67.3,69.1c-0.7-0.7-1.4-1.6-1.5-2.7c-0.2-2.3,0.6-4.2,2-6c2.4-3.2,5.6-4.9,9.5-5.5c2.9-0.4,5.7,0,8.5,0.9
				c-0.1,0.1-0.1,0.1-0.2,0.2c-2.4,1.8-4.4,4-6,6.5c-1.2,1.8-2.5,3.6-3.7,5.3c-0.7,0.9-1.6,1.8-2.5,2.5c-1.3,1-3.6,0.7-5.2-0.3
				c1.5-2.1,2.7-3.5,4.1-5.6c-0.5-0.4-0.4-0.3-0.9-0.8C69.8,65.7,68.7,67,67.3,69.1z"/>
			<path class="st3" d="M60,71.2c-1.5,1.3-2.3,1.8-4.5,0.3c-0.8-0.6-1.6-1.2-2.4-1.9c-1.7-1.5-3.4-3.1-5.1-4.6
				c-0.9-0.8-2-1.3-3.1-2.1c0.8-0.3,1.5-0.7,2.3-1c3.6-1.3,7.1-1.3,10.5,0.8c1.7,1,3,2.4,3.6,4.3c0.3,0.8,0.3,1.7,0,2.4
				c-1.9-1.4-3.8-2.8-5.7-4.2c-0.4,0.6-0.8,1.1-1.2,1.7C56.9,68.3,58.4,69.5,60,71.2z"/>
			<path class="st1" d="M67.2,68.9c1.4-2,2.8-4,4.2-6c0.6,0.5,1.1,0.8,1.5,1.2c-1.4,2-2.8,4-4.2,5.9c1.5,1,3.3,1.1,4.6,0
				c0.9-0.7,1.7-1.5,2.4-2.4c1.3-1.7,2.4-3.4,3.6-5.1c1.7-2.3,3.5-4.6,5.8-6.3c0.1,0,0.1-0.1,0.2-0.2c-2.7-0.9-5.4-1.3-8.2-0.9
				c-3.8,0.5-6.9,2.2-9.2,5.3c-1.3,1.7-2.1,3.6-1.9,5.8C66.1,67.4,66.5,68.2,67.2,68.9z M60,71.2c-1.6-1.8-3.6-3-5.6-4.3
				c0.4-0.6,0.8-1.1,1.2-1.7c1.9,1.4,3.8,2.8,5.7,4.2c0.3-0.8,0.3-1.6,0-2.4c-0.6-1.9-1.9-3.3-3.6-4.3c-3.4-2-6.9-2.1-10.5-0.8
				c-0.8,0.3-1.5,0.7-2.3,1c1.1,0.7,2.2,1.3,3.1,2.1c1.8,1.5,3.4,3.1,5.1,4.6c0.8,0.7,1.5,1.3,2.4,1.9C57.1,72.7,58.5,72.5,60,71.2z
				 M40.4,63.7c0.5-0.3,0.9-0.6,1.4-0.9c2.2-1.6,4.7-2.9,7.4-3.3c5-0.8,9.3,0.4,12.5,4.4c1.4,1.7,2,3.6,1.6,5.8
				c-0.1,0.5-0.4,1-0.5,1.4c0,0.1-0.1,0.3,0,0.4c0.5,0.9,1.1,1.8,1.7,2.7c0-0.1,0.1-0.2,0.2-0.4c0.5-0.9,0.9-1.8,1.4-2.8
				c0.1-0.1,0.1-0.4,0-0.5c-2.1-2.2-2.3-4.7-1.5-7.4c1-3.4,3.3-5.8,6.3-7.6c4.5-2.6,9.2-2.9,14.2-1.5c1.7,0.5,3.3,1.2,4.9,1.8
				c0,0.1,0,0.1,0,0.2c-0.1,0.1-0.2,0.1-0.3,0.2c-3.5,1.6-6.1,4.2-8.3,7.3c-1.4,1.9-2.7,3.9-4.1,5.8c-0.9,1.2-2,2.3-3.5,3
				c-1.7,0.8-3.4,0.7-5.1-0.1c-0.2-0.1-0.4-0.2-0.7-0.3c-0.3,0.6-0.7,1.2-1,1.8c-0.6,1.3-1.3,2.7-1.5,4.1c-0.1,0.4-0.1,0.7-0.1,1.1
				c0,3.9,0,7.8,0,11.7c0,0.2,0,0.4,0,0.6c-0.7,0-1.3,0-2,0c0-0.2,0-0.4,0-0.6c0-3.8,0-7.7,0-11.5c0-2.2-0.5-4.2-1.8-6.1
				c0-0.1-0.1-0.1-0.1-0.2c0,0-0.1,0,0,0c-0.7,0.4-1.3,0.8-2,1.1c-1.6,0.7-3.2,0.3-4.6-0.6c-0.9-0.6-1.8-1.3-2.6-2
				c-1.7-1.5-3.3-3.1-5-4.5C45.1,65.2,42.9,64.3,40.4,63.7L40.4,63.7z"/>
		</g>
		<g>
			<path class="st4" d="M65.7,86.9c2.6,0.1,5.1,0.5,7.6,1.3c2.4,0.8,4.7,1.9,6.7,3.5c0.4,0.3,0.7,0.4,1.2,0.4c0.8,0,1.6,0,2.4,0
				c0.6,0,0.9,0.3,0.9,0.7c0.1,0.4-0.2,0.9-0.7,0.9c-0.2,0-0.4,0-0.5,0c-12.6,0-25.2,0-37.9,0c-0.8,0-1.2-0.3-1.3-0.8
				c0-0.6,0.4-0.9,1.3-0.9c0.8,0,1.6,0,2.3,0c0.3,0,0.6-0.1,0.8-0.3C52,89,56,87.6,60.4,87c0.9-0.1,1.8-0.2,2.7-0.2
				C63.4,86.9,64.2,86.8,65.7,86.9 M77.6,92.1c-7.6-5-19.9-4.5-26.4,0C59.9,92.1,68.7,92.1,77.6,92.1z"/>
			<path class="st4" d="M77.6,92.1c-8.9,0-17.6,0-26.4,0C57.7,87,70,86.5,77.6,92.1z"/>
		</g>
	</g>
</g>
</svg>
