<?xml version="1.0" encoding="utf-8"?>
<!-- Generator: Adobe Illustrator 21.0.2, SVG Export Plug-In . SVG Version: 6.00 Build 0)  -->
<svg version="1.1" id="Laag_1" xmlns="http://www.w3.org/2000/svg" xmlns:xlink="http://www.w3.org/1999/xlink" x="0px" y="0px"
	 viewBox="0 0 104.1 104.1" style="enable-background:new 0 0 104.1 104.1;" xml:space="preserve">
<style type="text/css">
	.st0{fill:#694D3F;}
	.st1{fill:#499E10;}
	.st2{fill:#762916;}
</style>
<g>
	<path class="st0" d="M49.2,28c7.5,0,15,0,22.4,0c0.8,0,1.6,0,2.3,0.4c0.6,0.3,0.9,1,0.2,1.4c-0.2,0.2-0.5,0.2-0.8,0.4
		c-0.6,0.4-1,1.1-1.6,1.5c-0.6,0.4-1.4,0.3-2,0.1c-0.7-0.2-1.3-0.5-1.9-0.8c-1.5-0.6-3.1-0.7-4.8-0.8c-1.6-0.1-3.2-0.2-4.8-0.3
		c-0.7,0-1.4-0.1-2,0.3c-0.7,0.4-1.1,1.3-1.9,1.4c-0.7,0.1-1.3-0.5-2-0.8c-0.5-0.2-1.1-0.3-1.6-0.4c-1.2-0.1-2.4,0-3.7,0
		c-0.8,0-1.2,0.1-1.1,1c0.1,2-1.4,3.3-3.4,3.3c-1.9,0-3.4-1.5-3.3-3.5c0.1-0.9-0.2-1-0.9-1c-3.9,0-7.8,0-11.6,0
		c-0.8,0-1.6,0-2.3-0.4c-0.8-0.5-0.8-1,0-1.5c0.7-0.4,1.4-0.4,2.2-0.4C34.1,28,41.6,28,49.2,28z"/>
	<path class="st1" d="M40.8,41.5c2.1,0,3.7,0.6,5.1,1.3c1.1,0.6,2.2,0.9,3.4,1.1c1.9,0.3,3.4-0.3,4.3-2.1c0.2-0.4,0.4-1,1-0.9
		c0.6,0.2,0.5,0.8,0.5,1.4c-0.1,1.4-1.7,3-3.4,3.3c-1.7,0.4-3.4,0.1-5-0.6c-1.4-0.6-2.8-1.1-4.2-1.5c-1.1-0.3-2.1-0.3-3.2,0.1
		c-1.5,0.7-2.1,2.1-1.3,3.6c1,1.9,2.9,2.6,4.7,3.2c4.2,1.4,7.8,3.6,10.3,7.4c1.1,1.6,1.5,3.5,1.5,5.5c0,0.2,0,0.5,0,0.7
		c-0.1,0.5-0.2,1.2-0.8,1.2c-0.6,0-0.7-0.7-0.8-1.2c-0.2-0.9-0.2-1.7-0.4-2.6c-0.8-3.6-3.4-5.7-6.3-7.6c-1.6-1-3.4-1.5-5.2-2.2
		c-1.5-0.5-2.9-1.3-4-2.6c-1.2-1.6-1.7-3.3-0.8-5.1C37.3,42.1,39.2,41.6,40.8,41.5z"/>
	<path class="st0" d="M34.5,32.6C34.5,32.6,34.5,32.6,34.5,32.6c0.7,0.1,1.5,0.3,2,0.8c2.5,2.1,1.3,6.4-2.1,6.4
		c-1.4,0-2.7-0.8-3.2-2.1c-0.3-0.8-0.3-1.3-0.3-2.1c0-0.9-0.1-1.8-0.2-2.7c0-0.1,0-0.2,0-0.3c0.1-0.1,0.2-0.1,0.3-0.1
		C32.2,32.4,33.3,32.5,34.5,32.6z"/>
	<path class="st0" d="M49.9,38.2c0.1,0.1,0.1,0.2,0.1,0.3c0,0.1-0.1,0.2-0.2,0.3c-0.3,0.3-0.6,0.7-0.8,1c-0.3,0.4-0.6,0.8-1,1
		c-1.2,0.8-3,0.1-3.7-1c-0.7-1.1-0.3-1.8,0.1-2.9c0.1-0.4,0.2-0.7,0.5-1c0.4-0.4,1.2-0.5,1.5-1c0.2,0.5,0.7,0.8,1.2,1.1
		C48.5,36.4,49.3,37.2,49.9,38.2C49.9,38.1,49.9,38.2,49.9,38.2z"/>
	<path class="st0" d="M61.8,36.6c-0.9,0-1-0.5-1.4-1.2c-0.4-0.6-0.9-1.2-1.5-1.7c-0.2-0.2-0.4-0.3-0.4-0.6c0-0.2,0.1-0.3,0.2-0.4
		c0.4-0.5,0.8-1,1.2-1.5c0.2-0.3,0.4-0.5,0.7-0.7c0.3-0.2,0.6-0.2,0.9-0.1c0.4,0.2,0.5,0.6,0.8,0.9c0.5,0.4,1.2,0.4,1.7,0.8
		c0.3,0.3,0.5,0.7,0.5,1.1c0.1,0.9,0,1.7-0.6,2.4C63.4,36.2,62.6,36.6,61.8,36.6z"/>
	<path class="st0" d="M51.9,35.8c0-0.1,0-0.2-0.1-0.3c-0.1-0.4-0.4-0.9-0.3-1.4c0-0.1,0-0.1,0.1-0.2c0.1,0,0.1-0.1,0.2-0.1
		c0.5-0.1,1-0.1,1.4-0.3c0.2-0.1,0.3-0.2,0.5-0.3c0.2-0.1,0.4-0.1,0.6,0c0.2,0.1,0.3,0.4,0.5,0.6c0.1,0.1,0.3,0.2,0.5,0.3
		c0.3,0.2,0.9,0.5,1,0.9c0.2,0.5,0.1,1.2,0.1,1.7c0,0.1,0,0.2,0,0.3c0,0.1-0.1,0.2-0.2,0.3c-1.1,1.2-3.4,0.8-4-0.7
		C52,36.4,52,36.1,51.9,35.8z"/>
	<path class="st0" d="M64.7,38.8c-0.1-0.5,0-0.9,0.4-1.4c0.7-0.7,1.7-1,2.6-0.6c1,0.4,1.9,1.4,1.4,2.6c-0.1,0.3-0.3,0.6-0.4,0.9
		c-0.1,0.4,0.1,0.8-0.2,1.2c-0.1,0.1-0.3,0.2-0.5,0.3c-0.5,0.2-1,0.4-1.5,0.2c-0.9-0.2-1.2-1.6-1.6-2.3C64.9,39.3,64.8,39,64.7,38.8
		z"/>
	<path class="st0" d="M25.4,39.8c-0.1-0.1-0.4-0.1-0.5,0c-0.2,0.1-0.2,0.3-0.2,0.5c0,0.3,0.3,0.4,0.6,0.5c0.3,0.1,0.6,0.1,0.8,0.2
		c0.4,0.1,0.6,0.5,0.9,0.7c0.4,0.2,1,0.2,1.3-0.1c0.1-0.2,0.2-0.4,0.4-0.6c0.2-0.2,0.4-0.3,0.7-0.4c0.2-0.1,0.4-0.4,0.4-0.6
		c0-0.1-0.1-0.2-0.2-0.3c-0.4-0.4-0.7-0.8-1.1-1.2c-0.2-0.2-0.4-0.4-0.6-0.5c-0.3-0.1-0.7-0.1-1,0.1c-0.3,0.2-0.5,0.5-0.6,0.9
		c-0.1,0.3-0.1,0.6-0.3,0.8c-0.2,0.2-0.6,0.2-0.9,0.1"/>
	<path class="st0" d="M64.9,44.3c-0.1,0.7-0.5,1.2-1.2,1.2c-0.7,0-1.2-0.4-1.2-1.2c0-0.7,0.4-1.2,1.2-1.2
		C64.5,43.1,64.8,43.6,64.9,44.3z"/>
	<g>
		<path class="st2" d="M40.6,60.9c0-1.4,0.1-2.9,0.6-4.3c0.2-0.5,0.4-1.1,0.7-1.5c0.5-0.7,1-1.7,1.9-1.3c0.7,0.3,0.3,1.3,0.1,1.9
			c-1.6,5.4-0.9,10.5,1.9,15.2c1.9,3.2,4.6,5.6,8.2,6.9c6.2,2.1,10-2,9.5-7.9c-0.4-4.6-2.6-8-5.5-11.4c-1.5-1.7-3.5-3.4-5.4-4.6
			c-0.4-0.3-0.8-0.6-1.2-1c-0.2-0.2-0.5-0.5-0.4-0.8c0.1-0.4,0.5-0.5,0.9-0.5c1.2,0,2.3,0.4,3.2,1.1c3.8,2.8,6.6,6.3,8.8,10.4
			c1.5,2.9,2.4,6,1.9,9.4c-0.9,6.6-6.1,9.9-12.4,7.7c-6.6-2.4-10.5-7.3-12.2-14C40.8,64.5,40.5,62.7,40.6,60.9z"/>
		<g>
			<g>
				<path class="st2" d="M42.5,54.7c0,7.6,4.4,20.4,14.2,19.5c10.7-1,2.9-17.6-1.6-21.3c-1.1-0.9-2.7,0.7-1.6,1.6
					c2.5,2.1,4.2,5.8,5.4,8.9c0.6,1.6,1.4,4.1,0.8,5.7c-1.2,3.6-4.2,3.2-6.8,2c-6.1-2.8-8.2-10.3-8.2-16.4
					C44.7,53.3,42.5,53.3,42.5,54.7L42.5,54.7z"/>
			</g>
		</g>
	</g>
	<g>
		<g>
			<path class="st2" d="M41.2,58.7c-0.5,5.2,1.4,10,4.7,14c3.3,4,7.2,5.1,12.2,5.6c0-1,0-2,0-3c-1.8-0.1-3.6-0.3-5.3-0.4
				c-1.6-0.1-1.9,2-0.8,2.8c2.6,1.7,5.5,1.7,8-0.2c1.5-1.1,0.2-3.6-1.5-2.6c0,0-0.1,0.1-0.1,0.1c-0.4,0.2-0.8,0.8-0.7,1.3
				c0,0.1,0,0.1,0,0.2c0.1,0.6,0.4,1.3,1.1,1.4c1.5,0.3,2.4-0.4,3.2-1.6c1.1-1.5-1.1-2.8-2.4-1.8c-0.9,0.7-1,0.8-1.6,1.8
				c0.9,0.5,1.7,1,2.6,1.5c0.5-1.1,1.9-1.5,2.7-2.4c1-1.3,1.4-2.9,1.7-4.5c0.6-3.1,0.3-5.6-1.7-8.2c-0.8-1-2.7-0.2-2.6,1.1
				c0.3,3.4,0.8,8.8-4.1,9.4c-2.8,0.4-7.9-1.6-9.1-4.3c-0.8-1.8-3.4-0.2-2.6,1.5c1.8,4,9.3,6.7,13.6,5.5c5.3-1.5,5.6-7.7,5.2-12.2
				c-0.9,0.4-1.7,0.7-2.6,1.1c2.4,3.1,0.9,7.2-1.4,9.6c-0.8,0.8-1.1,0.7-1.7,1.9c-0.8,1.7,1.6,3.2,2.6,1.5c0.4-0.4,0.8-0.8,1.1-1.2
				c-0.8-0.6-1.6-1.2-2.4-1.8c0,0.1,0.1,0.1,0.1,0.2c0.4,0.5,0.7,1,1.1,1.4c-0.2,0.3-0.4,0.7-0.6,1c-0.5-0.9-1-1.7-1.5-2.6
				c-1.5,1.1-3.4,1.3-5,0.2c-0.3,0.9-0.5,1.9-0.8,2.8c1.8,0.1,3.6,0.3,5.3,0.4c1.9,0.2,1.9-2.8,0-3c-4.7-0.5-7.9-1.7-10.7-5.6
				c-2.3-3.3-3.6-7-3.2-11C44.3,56.7,41.3,56.7,41.2,58.7L41.2,58.7z"/>
		</g>
	</g>
</g>
</svg>
