<?xml version="1.0" encoding="utf-8"?>
<!-- Generator: Adobe Illustrator 21.0.2, SVG Export Plug-In . SVG Version: 6.00 Build 0)  -->
<svg version="1.1" id="Laag_1" xmlns="http://www.w3.org/2000/svg" xmlns:xlink="http://www.w3.org/1999/xlink" x="0px" y="0px"
	 viewBox="0 0 104.1 104.1" style="enable-background:new 0 0 104.1 104.1;" xml:space="preserve">
<style type="text/css">
	.st0{fill:#B5D89E;}
	.st1{fill:#499E10;}
</style>
<g>
	<path class="st0" d="M42.2,44.4c0-6.9,0-13.7,0-20.6c0-1.1,0.4-1.5,1.4-1.9c2.3-1,4.7-1.6,7.1-1.9c1.6-0.2,3.3-0.3,5-0.1
		c1.2,0.1,2.5,0,3.7,0.2c1.6,0.3,3.1,0.6,4.6,1.2c0.7,0.3,0.4,1,0.4,1.5c0,6.6,0,13.2,0,19.8c0,0.6-0.2,1.1,0.2,1.7
		c-0.5,0.6-0.8,1.3-1,2c-3.5,8.6-6.9,17.2-10.3,25.8c-0.2,0.5-0.3,1.1-1,1.1c-0.5,0-0.5-0.6-0.7-1c-1.4-4-2.7-8-4-11.9
		C45.9,54.8,44,49.6,42.2,44.4z"/>
	<path class="st1" d="M42.2,44.4c1.8,5.2,3.6,10.4,5.4,15.7c1.4,4,2.7,8,4,11.9c0.1,0.4,0.2,1,0.7,1c0.6,0,0.8-0.6,1-1.1
		c3.4-8.6,6.9-17.2,10.3-25.8c0.3-0.7,0.5-1.4,1-2c1-0.2,0.9,0.5,0.9,1.1c0,5.8,0,11.6,0,17.3c0,5.7,0,11.4,0,17.1
		c0,1-0.3,1.4-1.3,1.6c-7.6,2.3-15,1.9-22.2-1.2c-0.8-0.3-1-0.7-1-1.6c0-8.1-0.1-16.2,0.1-24.3c0-2.9,0-5.9,0-8.8
		C41.2,44.5,41.5,44.3,42.2,44.4z"/>
</g>
</svg>
