<?xml version="1.0" encoding="utf-8"?>
<!-- Generator: Adobe Illustrator 21.0.2, SVG Export Plug-In . SVG Version: 6.00 Build 0)  -->
<svg version="1.1" id="Laag_1" xmlns="http://www.w3.org/2000/svg" xmlns:xlink="http://www.w3.org/1999/xlink" x="0px" y="0px"
	 viewBox="0 0 104.1 104.1" style="enable-background:new 0 0 104.1 104.1;" xml:space="preserve">
<style type="text/css">
	.st0{fill:#3A7F0E;}
	.st1{opacity:0.7;fill:#694D3F;enable-background:new    ;}
	.st2{fill:#D83D27;}
	.st3{fill:#F37E20;}
	.st4{fill:#B5D89E;}
	.st5{fill:#694D3F;}
	.st6{fill:none;}
	.st7{fill:#AD2B12;}
</style>
<g>
	<path class="st0" d="M35.5,35c0.1,0,0.3,0,0.5,0c0,0.3,0.1,0.6,0.1,0.8c-0.9,0.1-1.7,0.2-2.5,0.4c0.3,0,0.5,0,0.8,0.1
		c1.3,0.3,3.3,0.1,4.4,0h0.1c0-0.1,0-0.2,0-0.3c0-0.6,0.1-1.2,0.4-1.6c-0.2,0.2-0.4,0.4-0.7,0.6c-0.1-0.9,0.2-1.7,0.7-2.4
		c0.2-0.3,0.6-0.6,0.9-0.8c0.6-0.5,0.8-1.2,0.3-1.8c-0.4-0.6-1.2-0.7-1.9-0.2c-0.2,0.2-0.4,0.3-0.7,0.5c-0.3-0.3-0.6-0.7-0.9-1
		c-2.1-2.1-5.4-2.4-7.8-0.7c-0.5,0.4-0.7,0.8-0.6,1.5C29.2,33.3,32.1,35.4,35.5,35z M36.1,32.2c-1.6,1-4-0.1-4.7-2
		C33.1,29.3,35.3,30.3,36.1,32.2z"/>
	<path class="st1" d="M72.7,77.8c-15,0-29.9,0-44.9,0c0-9.5,0-19.1,0-28.6c15,0,29.9,0,44.9,0C72.7,58.7,72.7,68.3,72.7,77.8z
		 M50.2,59.6c6.2,0,12.5,0,18.7,0c1.1,0,1.7-0.5,1.7-1.3s-0.6-1.2-1.7-1.2c-12.4,0-24.9,0-37.3,0c-0.3,0-0.5,0-0.8,0.1
		c-0.8,0.2-1.1,1.2-0.7,1.9c0.3,0.5,0.8,0.6,1.4,0.6C37.8,59.6,44,59.6,50.2,59.6z M50.3,70c6.2,0,12.4,0,18.5,0c0.3,0,0.5,0,0.8,0
		c0.7-0.1,1.2-0.9,1-1.6s-0.7-0.9-1.7-0.9c-12.4,0-24.8,0-37.1,0c-0.3,0-0.5,0-0.8,0.1c-0.6,0.1-1,0.6-1,1.2s0.4,1.1,1,1.2
		c0.3,0,0.5,0,0.8,0C38,70,44.1,70,50.3,70z M65.2,53.1c0,0.7,0.6,1.4,1.4,1.4c0.7,0,1.4-0.7,1.4-1.4s-0.6-1.3-1.4-1.4
		C65.9,51.7,65.2,52.3,65.2,53.1z M65.2,73.9c0,0.7,0.6,1.4,1.4,1.4c0.7,0,1.4-0.7,1.4-1.4c0-0.7-0.6-1.3-1.4-1.3
		C65.9,72.5,65.2,73.2,65.2,73.9z M35.2,63.5c0-0.7-0.6-1.4-1.4-1.4c-0.7,0-1.4,0.7-1.4,1.4c0,0.7,0.6,1.3,1.4,1.4
		C34.6,64.9,35.2,64.3,35.2,63.5z M66.6,64.9c0.7,0,1.4-0.6,1.4-1.4c0-0.7-0.7-1.4-1.4-1.4c-0.7,0-1.3,0.6-1.4,1.3
		C65.2,64.2,65.8,64.9,66.6,64.9z M35.2,73.9c0-0.7-0.6-1.4-1.4-1.3c-0.7,0-1.3,0.6-1.3,1.4c0,0.7,0.7,1.4,1.4,1.4
		C34.6,75.3,35.2,74.6,35.2,73.9z M33.8,51.7c-0.7,0-1.4,0.7-1.4,1.4s0.7,1.3,1.4,1.3s1.4-0.7,1.4-1.4S34.6,51.7,33.8,51.7z"/>
	<path class="st2" d="M49.5,46.8c-0.2,0-11.5-0.1-16.7-0.1c-0.5,0-0.5-0.2-0.6-0.6c-0.5-1.4-0.7-3-0.5-4.5c0.4-2.2,2.2-3.7,4.5-3.5
		c0.2,0,0.4,0,0.6,0.1c1.5,0.2,2.7-0.3,3.6-1.4c0.4-0.4,0.8-0.9,1.3-1.2c1.4-1,2.8-0.8,4.1,0c1.6,1,2.5,2.6,3.2,4.3
		C49.8,41.9,49.9,44.6,49.5,46.8z"/>
	<path class="st3" d="M66.5,46.6c-0.4-0.4-0.7-0.8-1.1-1.2c-0.6-0.6-1.2-0.8-1.9-0.5c-0.6,0.3-0.6,0.9-0.3,1.8c-3,0-6.2,0-9.3,0
		c0.6-0.8,1.6-1.7,2.1-2.6c0.3,0.4,0.6,0.7,0.9,1c0.6,0.6,1.3,0.7,1.9,0.2c0.5-0.5,0.3-1.2-0.2-1.9c-0.2-0.2-0.4-0.4-0.6-0.7
		c-0.2-0.2-0.4-0.4-0.6-0.7c1-1.1,2.3-2.3,3.3-3.6c0.4,0.4,0.8,0.9,1.1,1.2c0.6,0.6,1.1,0.7,1.7,0.2c0.5-0.5,0.5-1.1-0.1-1.8
		c-0.3-0.4-0.8-0.8-1.2-1.2c1.3-1.7,4.1-2.3,6-1.3c2,1,3.2,3.2,2.9,5.5c-0.1,0.7-0.2,1.7-0.7,2.2C69.2,44.6,67.8,45.6,66.5,46.6z"/>
	<path class="st4" d="M31.3,30.2c1.8-0.9,4.2,0.1,5,2.1C34.7,33.3,32,32.2,31.3,30.2z"/>
	<path class="st5" d="M50.2,59.8c-6.2,0-12.4,0-18.7,0c-0.5,0-1.1-0.1-1.4-0.6c-0.5-0.8-0.1-1.7,0.7-2.1C31,57,31.3,57,31.6,57
		c12.4,0,24.9,0,37.3,0c1.1,0,1.7,0.4,1.7,1.3c0,0.9-0.6,1.4-1.7,1.4C62.7,59.8,56.5,59.8,50.2,59.8z"/>
	<path class="st5" d="M50.3,70c-6.2,0-12.3,0-18.5,0c-0.3,0-0.5,0-0.8,0c-0.6-0.1-1-0.7-1-1.3c0-0.7,0.4-1.2,1-1.3
		c0.3,0,0.5-0.1,0.8-0.1c12.4,0,24.8,0,37.1,0c1,0,1.5,0.3,1.7,1c0.2,0.8-0.2,1.5-1,1.7c-0.3,0-0.5,0-0.8,0C62.7,70,56.5,70,50.3,70
		z"/>
	<path class="st5" d="M65.2,53.1c0-0.8,0.7-1.5,1.6-1.4c0.8,0,1.5,0.7,1.6,1.5c0,0.8-0.8,1.5-1.6,1.5C66,54.6,65.2,53.9,65.2,53.1z"
		/>
	<path class="st5" d="M65.2,73.9c0-0.8,0.6-1.4,1.4-1.4c0.7,0,1.3,0.6,1.4,1.3c0,0.7-0.7,1.4-1.4,1.4C65.9,75.4,65.2,74.7,65.2,73.9
		z"/>
	<path class="st5" d="M35.2,63.5c0,0.7-0.6,1.4-1.4,1.4c-0.7,0-1.3-0.6-1.4-1.4c0-0.7,0.7-1.4,1.4-1.4
		C34.6,62.1,35.2,62.8,35.2,63.5z"/>
	<path class="st5" d="M66.6,64.9c-0.7-0.1-1.4-0.6-1.3-1.5c0-0.7,0.6-1.3,1.4-1.3c0.7,0,1.4,0.7,1.4,1.5C68,64.2,67.7,65,66.6,64.9z
		"/>
	<path class="st5" d="M35.2,73.9c0,0.7-0.6,1.5-1.4,1.5c-0.7,0-1.4-0.7-1.4-1.5c0-0.7,0.6-1.3,1.3-1.4
		C34.6,72.5,35.2,73.1,35.2,73.9z"/>
	<path class="st5" d="M33.8,51.7c0.8,0,1.4,0.6,1.4,1.4c0,0.7-0.6,1.4-1.4,1.4c-0.7,0-1.4-0.6-1.4-1.3
		C32.5,52.4,33.1,51.7,33.8,51.7z"/>
	<g>
		<path class="st6" d="M27.9,77.8c15,0,29.9,0,44.9,0c0-9.6,0-19.1,0-28.6c-15,0-29.9,0-44.9,0C27.9,58.8,27.9,68.3,27.9,77.8z"/>
		<path class="st6" d="M31.3,30.2c0.7,2,3.1,3,4.7,2C35.3,30.3,33.1,29.3,31.3,30.2z"/>
		<path class="st6" d="M48.6,40.2C48,38.5,47,37,45.5,35.9c-1.4-0.9-2.8-1-4.1,0c-0.5,0.3-0.9,0.8-1.3,1.2c-1,1.1-2.2,1.5-3.6,1.4
			c-0.2,0-0.4-0.1-0.6-0.1c-2.2-0.2-3.8,1-4.2,3.2c-0.3,1.5,0,3,0.5,4.4c0.1,0.4,0.3,0.5,0.6,0.6h16.4
			C49.5,44.4,49.3,42.2,48.6,40.2z"/>
		<path class="st6" d="M48.5,46.6c0.2,0,0.4,0,0.6,0l0,0H32.7c0.1,0,0.1,0,0.2,0C38.1,46.6,43.3,46.6,48.5,46.6z"/>
		<path class="st6" d="M68.1,35.9c-1.9-1-4.3-0.6-5.6,1c0.4,0.4,0.7,0.8,1.1,1.2c0.5,0.6,0.5,1.4,0,1.9c-0.6,0.5-1.3,0.4-1.9-0.2
			c-0.3-0.4-0.7-0.7-1-1.1c-1,1.1-2,2.3-3,3.4c0.2,0.2,0.4,0.5,0.6,0.7c0.2,0.2,0.4,0.4,0.6,0.7c0.5,0.6,0.5,1.4,0,1.9
			s-1.3,0.4-1.9-0.2c-0.3-0.3-0.6-0.7-0.9-1c-0.6,0.8-1.2,1.6-1.7,2.5c3,0,5.9,0,8.8,0c-0.3-0.9-0.1-1.4,0.5-1.8
			c0.6-0.3,1.2-0.2,1.8,0.5c0.3,0.4,0.7,0.7,1.1,1.2c1.2-1.1,2.4-2.1,3.5-3.2c0.5-0.5,0.8-1.2,0.9-2C71.2,39.1,70,37,68.1,35.9z"/>
		<path class="st5" d="M49.1,46.6c-0.2,0-0.4,0-0.6,0c-5.2,0-10.4,0-15.6,0c-0.1,0-0.1,0-0.2,0h-3.1c-0.5,0-1,0-1.4,0s-0.8,0-1.2,0
			c-0.8,0-1.4,0.2-1.7,1c0,10.6,0,21.1,0,31.7c0.3,0.8,0.8,1.1,1.6,1.1c15.6,0,31.2,0,46.8,0c1.2,0,1.6-0.5,1.6-1.6
			c0-10.2,0-20.3,0-30.5c0-1.2-0.4-1.7-1.7-1.7c-1.1,0-2.2,0-3.4-0.1L49.1,46.6L49.1,46.6z M72.7,77.8c-15,0-29.9,0-44.9,0
			c0-9.5,0-19.1,0-28.6c15,0,29.9,0,44.9,0C72.7,58.7,72.7,68.3,72.7,77.8z"/>
		<path class="st7" d="M49.1,46.6h0.3c0.7,0,1.4,0.1,2,0c0.2,0,0.2-0.2,0.3-0.4c0.1-0.3,0.1-0.7,0.1-1c0-0.7,0-1.3,0-2
			c-0.3-3.2-1.4-6.1-3.8-8.4c-1.8-1.7-3.9-2.5-6.4-1.8c-0.6,0.2-1.1,0.4-1.6,0.8c-0.7,0.4-1.1,1.1-1.7,1.5c-0.1,0.1-0.2,0.2-0.3,0.2
			c-0.6,0.4-1.5,0.3-2.2,0.3c-0.8,0.1-1.6,0.1-2.3,0.4c-2.2,0.6-3.5,2.2-4.1,4.4c-0.5,1.7-0.4,3.4,0.1,5.2c0.1,0.3,0.1,0.5,0.2,0.9
			h3.1c-0.3,0-0.5-0.2-0.6-0.6c-0.5-1.4-0.7-2.9-0.5-4.4c0.4-2.2,1.9-3.4,4.2-3.2c0.2,0,0.4,0,0.6,0.1c1.5,0.2,2.7-0.3,3.6-1.4
			c0.4-0.4,0.8-0.9,1.3-1.2c1.4-1,2.8-0.8,4.1,0c1.6,1,2.5,2.6,3.2,4.3C49.3,42.2,49.5,44.4,49.1,46.6z M51.6,46.6h18.6
			c2.3-1.8,3.7-4.3,3.1-7.3c-0.5-2.9-2.6-5.3-5.5-6.2C65.3,32.4,63,33,61,34.8c-3.3,3.1-6.2,6.5-8.8,10.2c-0.1,0.2-0.2,0.3-0.5,0.5
			 M70.9,41.3c-0.1,0.7-0.4,1.5-0.9,2c-1.1,1.1-2.3,2.1-3.5,3.2c-0.4-0.4-0.7-0.8-1.1-1.2c-0.6-0.6-1.2-0.8-1.8-0.5
			c-0.6,0.3-0.8,0.9-0.5,1.8c-2.9,0-5.8,0-8.8,0c0.6-0.8,1.2-1.6,1.7-2.5c0.3,0.4,0.6,0.7,0.9,1c0.6,0.6,1.3,0.7,1.9,0.2
			c0.5-0.5,0.5-1.3,0-1.9c-0.2-0.2-0.4-0.4-0.6-0.7c-0.2-0.2-0.4-0.4-0.6-0.7c1-1.1,2-2.2,3-3.4c0.4,0.4,0.7,0.8,1,1.1
			c0.6,0.6,1.3,0.7,1.9,0.2c0.5-0.5,0.6-1.3,0-1.9c-0.3-0.4-0.7-0.8-1.1-1.2c1.3-1.6,3.7-2,5.6-1C70,37,71.2,39.1,70.9,41.3z
			 M51.8,45.5v0.6"/>
	</g>
</g>
</svg>
