<?xml version="1.0" encoding="utf-8"?>
<!-- Generator: Adobe Illustrator 21.0.2, SVG Export Plug-In . SVG Version: 6.00 Build 0)  -->
<svg version="1.1" id="Laag_1" xmlns="http://www.w3.org/2000/svg" xmlns:xlink="http://www.w3.org/1999/xlink" x="0px" y="0px"
	 viewBox="0 0 104.1 104.1" style="enable-background:new 0 0 104.1 104.1;" xml:space="preserve">
<style type="text/css">
	.st0{fill:#44C4D7;}
	.st1{fill:#C6E9FC;}
</style>
<g>
	<path class="st0" d="M75.9,54.9c1.7-4.8,2.6-9.4,2.3-14.2C77.5,30,68,24.8,58.5,30c-2.4,1.3-4.5,3.1-6.4,5.2
		c-0.7,0.8-1.4,1.7-2.4,2.2c-0.3,0.2-0.7,0.4-1.1,0.1c-0.4-0.3-0.3-0.7-0.2-1.1c0.2-0.5,0.3-1.1,0.7-1.6c4-5.1,8.9-8.8,15.6-9.4
		c7.7-0.7,13.7,4,15.4,11.6c1.5,6.4,0.2,12.6-1.8,18.7c-0.5,1.4-0.6,2.5,0.2,3.7c0.7,1.1,1.2,2.4,1.7,3.7c0.7,2,0.2,3.7-1.4,5.1
		c-2,1.7-4.4,2.7-6.8,3.7c-4.2,1.8-8.4,3.5-12.7,5.3c-1.6,0.7-3.3,1.1-5,1.4c-2.5,0.4-4.5-0.6-5.9-2.8c-1.6-2.6-2-5.5-2.7-8.3
		c-0.2-0.9-0.7-1.7-1.3-2.3c-3.7-3.5-7.7-6.6-12.8-7.7c-0.8-0.2-1.5-0.3-2.3-0.4c-0.6-0.1-0.9-0.3-1-0.9c-0.6-2.6-0.6-2.5,2-2.1
		c4.5,0.8,8.9,1.9,13.3,4c-0.5-3.1-1-5.9-1.3-8.8c-0.2-2.1-0.3-4.1,0.1-6.2c0.3-1.4,1-2.3,2.3-2.9c4-1.6,7.9-3.2,11.8-5
		c1.8-0.8,3.3-0.5,4.8,0.6c2.1,1.6,3.7,3.6,5.3,5.7c3,3.8,5.7,7.9,8.2,12C75.3,54,75.5,54.3,75.9,54.9z M44.8,47.3
		c0.1,0.8,0.1,2,0.3,3.2c0.7,5.8,2,11.6,3.3,17.3c0.5,2.1,0.7,4.3,1.9,6.2c0.9,1.5,2,2.4,3.9,2.1c2.2-0.3,4.2-1.2,6.3-2.1
		c4.8-2,9.7-4,14.5-6.1c3.4-1.5,3.8-2.7,2.1-5.9c-2.9-5.5-6.3-10.7-9.9-15.7c-2-2.9-4.1-5.7-6.8-8c-0.9-0.8-1.7-1-2.8-0.5
		c-3.1,1.4-6.3,2.7-9.4,3.9C44.9,43,44.9,43,45,46.6C44.8,46.7,44.8,46.8,44.8,47.3z"/>
	<path class="st0" d="M28.1,56.9c0,1.1-0.6,1.9-1.2,2.6c-0.5,0.6-1.2,1-1.9,0.9c-0.8-0.1-0.5-1-0.6-1.6c-0.4-2-0.6-4.1-1-6.1
		c-0.2-0.8,0.1-0.9,0.8-0.9c1.4-0.1,3.1,1,3.4,2.4C27.8,55,27.9,56,28.1,56.9z"/>
	<path class="st1" d="M44.8,47c0-0.5,0-0.6,0-0.7c-0.1-3.7-0.1-3.7,3.3-5c3.3-1.3,6.4-2.5,9.6-4c1.2-0.5,2-0.3,2.9,0.5
		c2.8,2.3,4.8,5.3,6.9,8.2c3.7,5.2,7.1,10.4,10.1,16c1.7,3.4,1.4,4.5-2.1,6c-4.8,2.1-9.7,4.2-14.7,6.2c-2,0.9-4.1,1.8-6.4,2.1
		c-1.9,0.2-3.1-0.6-4-2.1c-1.1-1.9-1.4-4.2-1.9-6.3C46.9,62,45.6,56.2,45,50.2C45,49,44.9,47.8,44.8,47z"/>
</g>
</svg>
