<?xml version="1.0" encoding="utf-8"?>
<!-- Generator: Adobe Illustrator 21.0.2, SVG Export Plug-In . SVG Version: 6.00 Build 0)  -->
<svg version="1.1" id="Laag_1" xmlns="http://www.w3.org/2000/svg" xmlns:xlink="http://www.w3.org/1999/xlink" x="0px" y="0px"
	 viewBox="0 0 104.1 104.1" style="enable-background:new 0 0 104.1 104.1;" xml:space="preserve">
<style type="text/css">
	.st0{fill:#762916;}
	.st1{fill:#FEFEFE;}
	.st2{fill:#020202;}
</style>
<g>
	<path d="M50.5,53.2c-0.9,0-1.8-0.1-2.6-0.3c-0.6-0.1-1-0.4-1.3-0.9c-0.9-1.6-1.4-3.3-1.1-5.2c0.5-3.6,4.1-5.6,7.5-4.1
		c1.7,0.7,3.1,1.9,4.4,3.2c0.8,0.8,0.9,1.7,0.5,2.7c-1.1,2.8-3.3,4.1-6.1,4.5C51.3,53.2,50.9,53.2,50.5,53.2z"/>
	<path d="M12.5,35.4c1.5,0.2,3,0.5,4.4,0.9c1.8,0.5,3.6,1,5.4,1.5c6.3,1.9,12.4,4.3,18.4,6.9c0.2,0.1,0.5,0.2,0.8,0.3
		c-0.1-1,0-1.8,0.6-2.6c0.3-0.5,0.7-0.9,1.2-1c0.9-0.1,1.3-0.9,2-1.3c0.2-0.1,0.1-0.3,0.1-0.5c-1.1-2.7-2.2-5.4-3.5-8
		c-0.5-1-0.9-2-1.5-3c-1-1.7-1.8-3.6-2.7-5.3c-1.4-2.5-3-4.9-4.3-7.5c0.2-0.1,0.2,0.1,0.3,0.2c1,1.4,2,2.7,3,4.2
		c0.8,1.2,1.4,2.5,2.2,3.7c2.8,4.7,5.1,9.7,7.3,14.8c0.1,0.3,0.2,0.5,0.6,0.3c1.4-0.7,2.8-0.2,3.4,1.2c0.2,0.4,0.5,0.7,0.6,1.2
		c-0.5,0.1-1,0.3-1.5,0.4c-2.7,1-4.2,3.1-4.1,6.1c0,0.7-0.2,1-0.9,1.1c-0.8,0.1-1.6,0.3-2.5,0c0.2-0.3,0.6-0.4,0.9-0.6
		c-0.4-0.5-0.6-1.1-0.6-1.7c0-0.3-0.1-0.4-0.4-0.5c-4.1-1.9-8.2-3.7-12.4-5.3c-1.8-0.7-3.6-1.4-5.4-2c-2-0.7-4.1-1.2-6.1-1.9
		c-1.7-0.6-3.5-0.9-5.2-1.5C12.5,35.5,12.5,35.5,12.5,35.4z M44.4,44.1c0-0.5-0.1-0.9-0.3-1.4c-0.3-0.5-0.7-0.6-1.2-0.2
		c-0.7,0.6-0.9,2.2-0.4,3c0.2,0.3,0.6,0.5,1,0.5s0.6-0.4,0.7-0.7C44.4,44.9,44.4,44.5,44.4,44.1z M48.1,40.2c0.3,0,0.4,0,0.6-0.1
		c0.2-0.1,0.5-0.1,0.5-0.3c0-0.3-0.2-0.4-0.5-0.5c-0.5-0.2-1-0.2-1.4,0c-0.2,0.1-0.4,0.2-0.4,0.4s0.2,0.3,0.4,0.4
		C47.6,40.2,47.9,40.2,48.1,40.2z"/>
	<path d="M46.7,52.9c5.7,1.4,10.7-1,11.9-5.5c1,0.7,1.8,1.5,2.7,2.3c0.3,0.3-0.1,0.4-0.2,0.5c-2.4,2.4-4.8,4.8-7.2,7.2
		c-1.1,1.1-2.2,2.2-3.3,3.3c-0.1,0.1-0.3,0.4-0.5,0.1c-1.7-2.3-2.9-4.7-3.4-7.5C46.7,53.2,46.7,53.1,46.7,52.9z"/>
	<path class="st0" d="M45.8,38.4c-3.6,2.1-7,6-8.2,7.4c-0.1,0.2-5.1-2-5-2.2c3.2-4.7,6.6-7.5,8.6-8.7c0.2-0.1,2.8-1.7,2.9-1.5
		C44.8,34.9,45.8,38.3,45.8,38.4z"/>
	<path d="M51.1,60.2c-1.4,0-2.7-0.3-3.9-0.6C44.5,59,44,59.3,43,61.7c-0.7,1.7-1.3,3.5-2.3,5.1c-0.8,1.3-1.8,2.4-3.3,2.7
		c-0.1,0-0.3,0.1-0.4,0.1c-0.1,0-0.2,0-0.4,0c2-0.9,2.9-2.6,3.5-4.5c0.6-1.5,0.9-3.1,1.4-4.6c0.7-2.3,1.6-3,4-3
		c1.4,0,2.8,0.2,4.1,0.5c0.2,0,0.3,0.1,0.4,0.3C50.3,58.9,50.7,59.5,51.1,60.2z"/>
	<path d="M36,59.3c1.8-0.5,2.8-1.8,3.5-3.3c0.5-1.1,0.8-2.3,1.1-3.4c0.7-2.4,1.7-3.1,4.2-2.9c0.3,0,0.6,0,0.9,0.1
		c2.3,0.3,2.3,0.3,3.2,2.5c-0.4,0.1-0.7-0.1-1.1-0.2c-0.8-0.2-1.5-0.5-2.3-0.7c-1.4-0.3-2.3,0.1-3,1.3c-0.6,1-1,2.1-1.5,3.1
		c-0.6,1.3-1.4,2.5-2.7,3.2C37.6,59.3,36.9,59.4,36,59.3z"/>
	<path d="M64.9,40.2c-0.2,1.2-1,1.9-2,2.4c-1.2,0.6-2.5,0.7-3.8,0.8c-0.7,0.1-1.5,0.1-2.2,0.2c-0.6,0.1-1.1,0.2-1.6,0.5
		c-0.2,0.1-0.3,0.5-0.6,0.3c-0.4-0.3-0.8-0.6-1.1-1c0,0,0-0.2,0.1-0.2c0.5-0.6,1-1.1,1.8-1.2c1.3-0.1,2.5,0.1,3.7,0.1
		c0.7,0,1.4,0,2.1-0.1C62.8,41.9,64,41.2,64.9,40.2L64.9,40.2z"/>
	<path d="M63.9,47.6c-0.9,0.9-1.8,1.7-2.6,2.6c-0.1,0.1-0.3,0.2-0.4,0c-0.2-0.2-0.6-0.3-0.5-0.7C60.7,48.5,62.6,47.4,63.9,47.6z"/>
	<path d="M46.1,65.3c-0.2-1.1,0-1.8,0.5-2.6c0.6-1.1,1.6-0.1,2.3-0.4l0.1,0.1c-0.5,0.5-0.9,0.9-1.4,1.4
		C47.1,64.3,46.7,64.7,46.1,65.3z"/>
	<path class="st1" d="M44.4,44.1c0,0.4,0,0.8-0.2,1.1c-0.1,0.3-0.3,0.7-0.7,0.7s-0.7-0.1-1-0.5c-0.6-0.7-0.4-2.4,0.4-3
		c0.4-0.3,0.9-0.3,1.2,0.2C44.4,43.2,44.4,43.6,44.4,44.1z"/>
	<path class="st1" d="M48.1,40.2c-0.2,0-0.5-0.1-0.8-0.1c-0.2,0-0.4-0.2-0.4-0.4s0.2-0.3,0.4-0.4c0.5-0.2,1-0.2,1.4,0
		c0.2,0.1,0.5,0.2,0.5,0.5s-0.3,0.3-0.5,0.3C48.5,40.2,48.3,40.2,48.1,40.2z"/>
	<path d="M73.5,68c0.2,0.8,0.2,1.5,0,2.3c-0.3,1.5-1.3,2.4-3,2.5c-2.2,0.2-4.2-0.4-6.2-1.1c-4.2-1.6-7.7-4.3-11-7.2
		c-0.4-0.3,0-0.5,0.1-0.6c3-3,6.1-6,9.1-9.1c0.5-0.5,1-1.1,1.6-1.7C70.6,58.4,72.7,64.3,73.5,68z"/>
	<path d="M83.2,66.7c-1,0.2-2-0.1-2.9-0.5c-1.9-0.8-3.5-2.1-5.1-3.5c-2.2-2-4.4-4.1-6.6-6.1c-0.7-0.7-1.5-1.3-2.2-1.8
		S65,53.9,64,53.7c0.3-0.6,0.6-1.1,0.8-1.6c0.2-0.3,0.3-0.2,0.5-0.1c1.3,0.7,2.3,1.6,3.4,2.5c2.7,2.4,5.2,5,7.8,7.5
		c1.1,1.1,2.3,2.1,3.5,3C81,65.7,82.1,66.4,83.2,66.7L83.2,66.7z"/>
	<path d="M55.6,84.2c0-2.1-0.6-3.9-1.4-5.6c-1.4-3.2-3.2-6.2-5-9.2c-0.4-0.6-0.5-1,0.2-1.5c0.2-0.1,0.3-0.3,0.5-0.6
		c0.9,1.6,1.7,3.1,2.5,4.6c1.4,2.6,2.7,5.2,3.4,8.1C56.1,81.5,56.1,83.4,55.6,84.2z"/>
	<path d="M69.8,76.7c-0.1-1.7-0.4-3.3-0.9-4.9c-0.1-0.4,0-0.6,0.4-0.7c0.5-0.1,1.1-0.4,1.7-0.6c0.2,2.2,0.2,4.3-1.1,6.3
		C69.9,76.8,69.9,76.7,69.8,76.7z"/>
	<path d="M73.3,68.3c1.1,0.2,2.1,0.5,3.1,0.5c-0.5,0.5-2.2,1.1-2.8,1c-0.1,0-0.2-0.1-0.2-0.2C73.4,69.2,73.4,68.8,73.3,68.3z"/>
	<path d="M68.8,48.4c0.4-0.5,0.7-0.9,1.4-0.6c0.7,0.2,1.5,0.1,2.3-0.1C71.3,48.6,70.1,48.7,68.8,48.4z"/>
	<path class="st2" d="M67.3,81c-0.1,0-0.1,0-0.2,0C67.1,80.9,67.1,80.9,67.3,81C67.3,80.9,67.3,80.9,67.3,81z"/>
	<polygon class="st2" points="84.6,72.6 84.6,72.6 84.6,72.5 	"/>
	<path class="st0" d="M56.1,86c-1.1,0.1-2.3-0.1-3.6-0.2c-1.1-0.1-2.2-0.5-3.3-0.7C48,84.9,47,84.4,45.9,84
		c-0.9-0.3-1.8-0.8-2.7-1.3c-3.1-1.7-5.8-3.9-8.1-6.6c-1.7-2-3-4.3-4.2-6.7c-0.5-1.1-0.8-2.2-1.2-3.3c-0.4-1-0.5-2.2-0.7-3.3
		c-0.4-2.4-0.4-4.8-0.3-7.2c0.2-3.4,1.3-6.5,2.7-9.5c0.3-0.7,0.8-1.4,1.1-2.1c0.1-0.3,0.3-0.4,0.6-0.2c1.4,0.6,2.8,1.2,4.2,1.8
		c0.3,0.1,0.4,0.2,0.2,0.5c-2.7,4.2-3.9,8.7-3.6,13.7c0.3,4.4,1.8,8.4,4.4,11.9c0.3,0.4,0.4,0.3,0.7,0c3-3.1,6.1-6.1,9.1-9.1
		c7.1-7.1,14.3-14.3,21.4-21.4c0.3-0.3,0.3-0.5-0.1-0.7c-7.5-5.2-15.4-5.9-23.7-1.9c-0.5,0.2-0.6,0.2-0.8-0.3
		c-0.6-1.3-1.2-2.6-1.8-3.9C43,34.1,43,34,43.3,33.8c4.7-2.4,9.6-3.4,14.8-3c3.9,0.3,7.6,1.4,11.1,3.3c6.6,3.7,11.1,9.2,13.3,16.4
		c1.3,4.4,1.5,8.9,0.6,13.4c-0.3,1.4-0.6,2.8-1.1,4.1c-4,9.9-11.2,15.9-21.7,17.7C59,85.9,57.6,86,56.1,86z M78.6,58.2
		c0-4.7-1.5-9.2-4.5-13.1c-0.3-0.4-0.4-0.4-0.7-0.1C66.3,52.1,59.1,59.3,52,66.4c-3,3-6.1,6.1-9.1,9.1c-0.3,0.3-0.4,0.4,0,0.7
		c1.3,0.9,2.7,1.8,4.2,2.5c2.2,1,4.5,1.6,6.9,1.9c0.4,0,2.6,0.1,2.9,0.1c4-0.1,7.8-1.2,11.2-3.4c3.2-2,5.7-4.7,7.6-8
		c0.2-0.3,1.1-2.2,1.2-2.6C78,64.1,78.5,61.3,78.6,58.2z"/>
</g>
</svg>
