<?xml version="1.0" encoding="utf-8"?>
<!-- Generator: Adobe Illustrator 21.0.2, SVG Export Plug-In . SVG Version: 6.00 Build 0)  -->
<svg version="1.1" id="Laag_1" xmlns="http://www.w3.org/2000/svg" xmlns:xlink="http://www.w3.org/1999/xlink" x="0px" y="0px"
	 viewBox="0 0 104.1 104.1" style="enable-background:new 0 0 104.1 104.1;" xml:space="preserve">
<style type="text/css">
	.st0{fill:#B5D89E;}
	.st1{fill:#499E10;}
	.st2{fill:#762916;}
	.st3{fill:#FFFFFF;}
</style>
<g>
	<g>
		<g>
			<path class="st0" d="M55.1,42.3c-0.7-0.7-1.4-1.7-1.5-2.7c-0.2-2.2,0.6-4.2,1.9-5.9c2.3-3.2,5.5-4.8,9.4-5.4
				c2.9-0.4,5.8,0.2,8.6,1.1c-0.1,0.1-4.4,4.2-6,6.6c-1.2,1.7-2.5,3.6-3.7,5.2c-0.7,0.9-1.7,1.8-2.6,2.5c-1.3,1-3.3,0.8-4.8-0.2
				c1.4-2,2.9-4,4.3-6c-0.5-0.4-0.7-0.6-1.2-1C57.9,38.4,56.8,40.4,55.1,42.3z"/>
			<path class="st1" d="M28.4,37.1c0.5-0.3,0.9-0.6,1.4-0.9c2.2-1.6,4.7-2.9,7.4-3.3c5-0.8,9.3,0.4,12.5,4.4c1.4,1.7,2,3.6,1.6,5.8
				c-0.1,0.5-0.4,1-0.5,1.4c0,0.1-0.1,0.3,0,0.4c0.5,0.9,1.1,1.8,1.7,2.7c0-0.1,0.1-0.2,0.2-0.4c0.5-0.9,0.9-1.8,1.4-2.8
				c0.1-0.1,0.1-0.4,0-0.5c-2.1-2.2-2.3-4.7-1.5-7.4c1-3.4,3.3-5.8,6.3-7.6c4.5-2.6,9.2-2.9,14.2-1.5c1.7,0.5,3.3,1.2,4.9,1.8
				c0,0.1,0,0.1,0,0.2c-0.1,0.1-0.2,0.1-0.3,0.2c-3.5,1.6-6.1,4.2-8.3,7.3c-1.4,1.9-2.7,3.9-4.1,5.8c-0.9,1.2-2,2.3-3.5,3
				c-1.7,0.8-3.4,0.7-5.1-0.1c-0.2-0.1-0.4-0.2-0.7-0.3c-0.3,0.6-0.7,1.2-1,1.8c-0.6,1.3-1.3,2.7-1.5,4.1c-0.1,0.4-0.1,0.7-0.1,1.1
				c0,3.9,0,7.8,0,11.7c0,0.2,0,0.4,0,0.6c-0.7,0-1.3,0-2,0c0-0.2,0-0.4,0-0.6c0-3.8,0-7.7,0-11.5c0-2.2-0.5-4.2-1.8-6.1
				c0-0.1-0.1-0.1-0.1-0.2c0,0-0.1,0,0,0c-0.7,0.4-1.3,0.8-2,1.1c-1.6,0.7-3.2,0.3-4.6-0.6c-0.9-0.6-1.8-1.3-2.6-2
				c-1.7-1.5-3.3-3.1-5-4.5C33.1,38.5,30.8,37.7,28.4,37.1L28.4,37.1z M55.1,42.3c1.4-2,2.8-4,4.2-6c0.6,0.5,1.1,0.8,1.5,1.2
				c-1.4,2-2.8,4-4.2,5.9c1.5,1,3.3,1.1,4.6,0c0.9-0.7,1.7-1.5,2.4-2.4c1.3-1.7,2.4-3.4,3.6-5.1c1.7-2.3,3.5-4.6,5.8-6.3
				c0.1,0,0.1-0.1,0.2-0.2c-2.7-0.9-5.4-1.3-8.2-0.9c-3.8,0.5-6.9,2.2-9.2,5.3c-1.3,1.7-2.1,3.6-1.9,5.8
				C54.1,40.7,54.4,41.6,55.1,42.3z M47.9,44.6c-1.6-1.8-3.6-3-5.6-4.3c0.4-0.6,0.8-1.1,1.2-1.7c1.9,1.4,3.8,2.8,5.7,4.2
				c0.3-0.8,0.3-1.6,0-2.4c-0.6-1.9-1.9-3.3-3.6-4.3c-3.4-2-6.9-2.1-10.5-0.8c-0.8,0.3-1.5,0.7-2.3,1c1.1,0.7,2.2,1.3,3.1,2.1
				c1.8,1.5,3.4,3.1,5.1,4.6c0.8,0.7,1.5,1.3,2.4,1.9C45,46.1,46.5,45.9,47.9,44.6z"/>
			<path class="st0" d="M47.9,44.6c-1.5,1.3-2.9,1.4-4.5,0.3c-0.8-0.6-1.6-1.2-2.4-1.9c-1.7-1.5-3.4-3.1-5.1-4.6
				c-0.9-0.8-2-1.3-3.1-2.1c0.8-0.3,1.5-0.7,2.3-1c3.6-1.3,7.1-1.3,10.5,0.8c1.7,1,3,2.4,3.6,4.3c0.3,0.8,0.3,1.7,0,2.4
				c-1.9-1.4-3.8-2.8-5.7-4.2c-0.4,0.6-0.8,1.1-1.2,1.7C44.3,41.6,46.3,42.9,47.9,44.6z"/>
		</g>
		<g>
			<path class="st2" d="M59.6,66.9c0.1-0.5,0.4-1,0.7-1.4H39.1c5.8-4,16.2-4.8,23.8-1.4c0.6-0.1,1.1-0.1,1.7,0.1
				c0.7,0.2,1.5,0.3,2.3,0.3c-1.7-1.2-3.7-2.1-5.7-2.8c-2.5-0.8-5-1.2-7.6-1.3c-1.5-0.1-2.3,0-2.6,0c-0.9,0.1-1.8,0.1-2.7,0.2
				c-4.3,0.6-8.4,2-11.9,4.7c0,0-0.1,0-0.1,0.1c0.2,0.3,0.3,0.7,0.4,1.1c1,0,1.8,0.3,2.4,0.8c6.8,0,13.7,0,20.5,0
				C59.6,67.1,59.6,67,59.6,66.9z"/>
			<path class="st2" d="M63.1,64c-7.6-3.9-18.1-3.1-24,1.5h21.3C61,64.6,62,64.1,63.1,64z"/>
		</g>
	</g>
	<g>
		<g>
			<path d="M74.6,64.3c-3.4-0.6-6.9-1.2-10.3-1.8c-0.1,0-0.1,0-0.2-0.1c-0.1,0-0.2,0-0.4,0c-0.4,0-0.8-0.1-1.2-0.2
				c-0.3,0-0.7-0.1-1-0.2c-1.2-0.1-2.2-0.2-3.3-0.3c-3-0.3-5.9-0.4-8.9,0c-1.2,0.1-2.3,0.4-3.3,1.1c-0.4,0.3-0.8,0.6-1.1,1
				c-0.5,0.7-0.2,1.5,0.4,1.9c0.7,0.5,1.6,0.7,2.4,0.7c1.9,0.1,3.8,0.2,5.7,0.3c0.4,0,0.8,0,1.2,0.1c0.2,0,0.5,0.3,0.4,0.4
				c-0.1,0.2-0.2,0.5-0.4,0.6c-1.1,0.3-2.3,0.6-3.5,0.7c-3.6,0.3-7.1-0.1-10.4-1.5c-0.4-0.2-0.8-0.4-1.3-0.6l0,0
				c-0.2-0.1-0.3-0.1-0.5-0.2c-0.1,0-0.2-0.1-0.3-0.1l0,0c-0.2-0.1-0.5-0.3-0.7-0.4l0,0c-0.8-0.6-1.6-1.1-2.2-1.7
				c-0.7-0.7-1.5-0.7-2.4-0.3c-1.1,0.4-1.5,1.4-0.8,2.3c0.8,1.1,1.7,2.2,2.7,3.2c2.7,2.9,5.7,5.4,9.4,7.1c1.7,0.8,3.5,1.2,5.4,1.2
				c3.4-0.1,6.7-0.7,9.9-1.6c1.1-0.3,2.2-0.7,3.4-0.8c2.5-0.3,5.1-0.6,7.6-0.8c0.5,0,0.8-0.3,1-0.7c1-2.6,2.1-5.2,3.1-7.9
				C75.7,64.9,75.5,64.5,74.6,64.3z M72.9,67.5c-0.7,1.6-1.3,3.2-1.9,4.9c-0.1,0.2-0.2,0.3-0.4,0.3c-2.4,0.2-4.8,0.4-7.1,0.8
				c-1.3,0.2-2.6,0.6-3.9,0.9c-3,0.8-6,1.4-9.1,1.5c-1.7,0-3.3-0.4-4.9-1.1c-3.1-1.4-5.6-3.5-8-5.9c-1-1.1-2-2.2-3-3.3
				c-0.1-0.1-0.1-0.2-0.2-0.3c0,0,0-0.1,0.1-0.1c0.2,0.1,0.3,0.1,0.5,0.2c2.4,2,5.2,3.4,8.2,4.2c2.7,0.7,5.5,0.9,8.3,0.7
				c1.4-0.1,2.8-0.3,4.1-0.8c1-0.4,1.5-1.3,1.5-2.2c-0.1-1-0.8-1.7-1.8-1.9c-0.4-0.1-0.9-0.1-1.3-0.1c-1.7-0.1-3.5-0.1-5.2-0.2
				c-0.7,0-1.3-0.2-2.1-0.3c0.5-0.6,1.1-0.8,1.7-0.9c1.7-0.4,3.4-0.5,5.1-0.5c4.1,0.1,8.1,0.5,12.2,1.2c2.6,0.4,5.2,0.9,7.8,1.4
				c0.1,0,0.1,0,0.2,0.1C73.4,66.4,73.1,66.9,72.9,67.5z"/>
		</g>
		<path class="st3" d="M34.5,65.2c0.2,0.1,0.3,0.1,0.5,0.2c2.4,2,5.2,3.4,8.2,4.2c2.7,0.7,5.5,0.9,8.3,0.7c1.4-0.1,2.8-0.3,4.1-0.8
			c1-0.4,1.5-1.3,1.5-2.2c-0.1-1-0.8-1.7-1.8-1.9c-0.4-0.1-0.9-0.1-1.3-0.1c-1.7-0.1-3.5-0.1-5.2-0.2c-0.7,0-1.3-0.2-2.1-0.3
			c0.5-0.6,1.1-0.8,1.7-0.9c1.7-0.4,3.4-0.5,5.1-0.5c4.1,0.1,8.1,0.5,12.2,1.2c2.6,0.4,5.2,0.9,7.8,1.4c0.1,0,0.1,0,0.2,0.1
			c-0.2,0.6-0.5,1.2-0.7,1.7c-0.6,1.6-1.3,3.2-1.9,4.9C71,72.9,70.9,73,70.7,73c-2.4,0.2-4.8,0.4-7.1,0.8c-1.3,0.2-2.6,0.6-3.9,0.9
			c-3,0.8-6,1.4-9.1,1.5c-1.7,0-3.3-0.4-4.9-1.1c-3.1-1.4-5.6-3.5-8-5.9c-1-1.1-2-2.2-3-3.3c-0.1-0.1-0.1-0.2-0.2-0.3
			C34.4,65.3,34.4,65.2,34.5,65.2z"/>
		<path class="st2" d="M62.1,62.2c-1.4-0.1-2.6-0.3-3.8-0.4c-3-0.3-5.9-0.4-8.9,0c-1.2,0.1-2.3,0.4-3.3,1.1c-0.4,0.3-0.8,0.6-1.1,1
			c-0.5,0.7-0.2,1.5,0.4,1.9c0.7,0.5,1.6,0.7,2.4,0.7c1.9,0.1,3.8,0.2,5.7,0.3c0.4,0,0.8,0,1.2,0.1c0.2,0,0.5,0.3,0.4,0.4
			c-0.1,0.2-0.2,0.5-0.4,0.6c-1.1,0.3-2.3,0.6-3.5,0.7c-3.6,0.3-7.1-0.1-10.4-1.5c-0.4-0.2-0.8-0.4-1.3-0.6c0.4-1,0.8-2.1,1.3-3.1
			c0.4-0.9,1.2-1.6,2.2-1.8c0.1,0,0.1,0,0.2-0.1c1.4-0.3,2.6-1,3.4-2.1c0.3-0.3,0.6-0.5,1.1-0.4c1,0.1,2.1,0.2,3.1,0.3
			c0.5,0,1.1,0,1.6-0.1c2.2-0.4,4.4-0.9,6.6-1.3c0.2,0,0.4,0,0.5,0.2C60.6,59.3,61.3,60.7,62.1,62.2z"/>
	</g>
</g>
</svg>
