<?xml version="1.0" encoding="utf-8"?>
<!-- Generator: Adobe Illustrator 21.0.2, SVG Export Plug-In . SVG Version: 6.00 Build 0)  -->
<svg version="1.1" id="Laag_1" xmlns="http://www.w3.org/2000/svg" xmlns:xlink="http://www.w3.org/1999/xlink" x="0px" y="0px"
	 viewBox="0 0 104.1 104.1" style="enable-background:new 0 0 104.1 104.1;" xml:space="preserve">
<style type="text/css">
	.st0{fill:#3A7F0E;}
	.st1{fill:#CCCCCC;}
</style>
<g>
	<g id="elgqzC.tif_1_">
		<g>
			<path class="st0" d="M28.9,20.7c9.4,8.3,15.5,18.6,19.6,30.5c0.4-10,1.6-19.7,8.3-27.8c-1,12.3-2.4,24.6,0.2,37.1
				c4.5-13.6,11.1-25,27.9-27.1C73.8,43.4,65.7,54.2,66.4,70c4.4-3.2,7.3-7,11.1-11.4c-0.8,6.2-3.4,10.1-6.8,13.6
				c-0.6,0.7-1.4,1.3-2.1,1.9c-4.8,4-4.9,4-6.3-2.5c-2.5,1.6-3.5,4.5-6.3,6c-1.6-2.3-3.2-4.7-4.8-7c-1.2,0.5-0.9,1.4-1.1,2.1
				c-0.4,1.8-1.3,3.9-3,3.8c-2.2-0.1-4.8-0.1-6-2.9c-3.7-8.7-8.8-16.5-16.6-22.3c9.1,2.2,13.6,9.5,18.9,16.3
				C41.2,52,35.7,37.4,27.7,23.8c-0.5-1.7-1.5-3.1-2.7-4.5C27,18.4,27.6,20.3,28.9,20.7z"/>
		</g>
	</g>
	<g>
		<path d="M63.1,59.5c-0.5,4.3-7.3,11.6-11.5,12.3c-1.6,0.3-2.4,0.7-2.3,2.5c0.1,3.9-3.1,6.6-4.5,10c-0.7,1.7-2.7,1.6-4.3,0.2
			c-1.7-1.6-1.8-3.3-0.2-4.8c1.3-1.3,2.9-2.3,3.9-3.9c0.6-1,1.4-2.1-0.1-3C42.7,71.8,42,69,39.4,71c-1.3,1-2.5,2.2-3.5,3.5
			c-1,1.2-2.3,2-3.9,1.2c-1.2-0.6-2.4-1.6-2.3-3.2c0.1-1.6,1-2.7,2.7-3c2.4-0.5,4-2.7,6.5-3.3c3.5-0.9,3.3-1,4.9-4.5
			c2.2-4.9,6.7-7.2,11.2-9.3c1-0.5,2.3-0.2,2.9,0.8c0.5,0.9-0.6,1.5-1.1,2.2c-2.4,3.1-4.9,6.1-7.3,9.2c-0.3,0.4-1,0.9-0.4,1.5
			c0.6,0.6,1.1,0,1.5-0.4c3.1-2.5,6.3-5,9.4-7.5c0.6-0.4,1.1-1.4,1.9-0.9C62.9,57.7,63.1,58.8,63.1,59.5z M61.5,59.9
			c-0.2-0.2-0.4-0.3-0.6-0.5c-3.2,2.5-6.4,5.1-9.6,7.6c-1,0.8-1.9,2-1.3,2.9c0.6,1,2,0.2,3-0.2C57.4,67.8,59.1,63.6,61.5,59.9z
			 M55.6,54.3c-2.9,0.7-5.1,2.2-7.3,3.9C46.8,59.5,45.5,61,45,63c-0.2,0.7-0.6,1.7,0.3,2.1c0.8,0.3,1.7,0.1,2.3-0.7
			C50.3,61,52.9,57.7,55.6,54.3z"/>
		<path class="st1" d="M44.9,65.1c0.5,0.8,1.1,0.5,1.8,0.2c0.7-0.3,1.3-1,1.8-1.7c2.3-3.1,5.2-6.4,7.5-9.5c-0.6,0.1-1.8,0.5-2.4,0.8
			c-1.9,0.9-3.7,2-5.3,3.4c-1.3,1.1-2.6,2.5-3.2,4.2C44.8,63.3,44.5,64.3,44.9,65.1"/>
		<path class="st1" d="M61.2,59.1c0.2-0.1,0.4-0.5,0.6-0.1c0.1,0.3-0.1,0.6-0.2,0.8c-0.9,1.8-1.8,3.5-3,5.1
			c-0.4,0.6-0.8,1.1-1.3,1.6c-1.6,1.9-3.5,3.4-5.8,4.4c-0.4,0.2-0.9,0.3-1.3,0.1c-0.4-0.2-0.6-0.8-0.6-1.2c0-1,0.5-1.8,1.1-2.6
			c0.6-0.7,1.4-1.2,2.2-1.8c1.7-1.2,3.3-2.4,4.9-3.6C59.1,60.9,60.1,60,61.2,59.1"/>
	</g>
</g>
</svg>
