<?xml version="1.0" encoding="utf-8"?>
<!-- Generator: Adobe Illustrator 21.0.2, SVG Export Plug-In . SVG Version: 6.00 Build 0)  -->
<svg version="1.1" id="Laag_1" xmlns="http://www.w3.org/2000/svg" xmlns:xlink="http://www.w3.org/1999/xlink" x="0px" y="0px"
	 viewBox="0 0 104.1 104.1" style="enable-background:new 0 0 104.1 104.1;" xml:space="preserve">
<style type="text/css">
	.st0{fill:#44C4D7;}
</style>
<g>
	<path class="st0" d="M72.3,48c-3.8,0.1-7-2.1-9.8-5.4c-3.7-4.6-3.8-4.5-7.4,0c-6.1,7.5-14.9,7.6-21,0c-3.5-4.4-3.5-5.2-7.4,0
		c-1.8,2.4-4,4.3-6.9,5.1c-2.9,0.8-5.7-0.6-6.8-3.2c-1-2.6-0.1-5.4,2.6-6.8c1.7-0.9,2.8-2.2,3.9-3.6c6.4-8.1,15.2-8.2,21.7-0.2
		c3.5,4.3,3.5,4.3,6.9,0c6-7.8,15.1-7.8,21.4-0.2c3.7,4.5,3.7,4.5,7.2-0.1c1.9-2.5,4.3-4.4,7.4-5.2c3.2-0.8,6.3,0.7,7.1,3.4
		c0.9,3.1-0.4,5.7-3.6,6.9c-1.9,0.7-2.8,2.4-4,3.8C80.3,46.5,77.4,48,72.3,48z M73.1,44.8c3.5,0.1,5.9-1.8,8-4.4
		c1.6-2,3-4.2,5.7-4.9c1.2-0.3,1.7-1.5,1.2-2.7c-0.4-1.2-1.4-1.7-2.7-1.5c-1.9,0.3-3.5,1.3-4.8,2.7c-1.4,1.5-2.6,3.2-4,4.7
		c-2.2,2.2-4.8,2.2-7,0c-1.1-1.2-2.1-2.5-3.1-3.7c-1.7-1.9-3.6-3.4-6.2-3.7c-4.8-0.7-7.7,2-10.3,5.4c-3.8,5-6.4,5-10.3,0.2
		c-0.3-0.3-0.6-0.7-0.8-1C33.4,29.3,27.3,29.4,22,36c-1.2,1.5-2.1,3.2-4,4c-1.6,0.7-2.6,1.7-1.9,3.3c0.8,1.9,2.5,1.4,4,0.8
		c0.8-0.4,1.5-0.8,2.1-1.4c1.4-1.4,2.6-3,3.9-4.4c2.8-3.2,5.9-3.2,8.6,0.1c1.2,1.4,2.2,2.8,3.5,4.1c3.6,3.5,8.8,3.6,12.5,0.2
		c1.6-1.4,2.8-3.2,4.2-4.8c2.3-2.5,5.3-2.6,7.6-0.1c1.1,1.2,2,2.5,3.1,3.8C67.6,43.6,70,44.9,73.1,44.8z"/>
	<path class="st0" d="M73.1,73.9c-4,0-7.1-1.6-9.6-4.4c-1-1.1-1.9-2.2-2.8-3.4c-1.2-1.6-2.4-1.9-3.7-0.1c-0.8,1.1-1.7,2.1-2.6,3.2
		c-5.5,6.4-14.2,6.4-19.7,0c-0.8-1-1.6-2-2.4-3c-1.3-1.7-2.5-1.8-3.9,0c-1.4,1.9-2.8,3.7-4.6,5.1c-1.2,0.9-2.4,1.6-3.8,2.1
		c-2.8,0.9-5.7-0.3-6.9-2.9c-1.2-2.5-0.4-5.5,2.2-6.9c1.9-1,3.2-2.5,4.4-4.1c5.9-7.5,14.9-7.7,21-0.3c3.5,4.2,3.2,5.7,7.8-0.1
		c5.6-7.1,14.4-7.1,20.3-0.3c4.2,4.8,4.2,4.8,8.2,0c1.8-2.1,4-3.8,6.7-4.6c3.3-1,6.5,0.5,7.4,3.3c1,3.1-0.4,5.9-3.8,7.1
		c-1.9,0.7-2.7,2.3-3.8,3.7C80.9,71.7,77.5,74,73.1,73.9z M72.9,70.6c3.9,0.3,6.3-2,8.5-4.8c1.3-1.7,2.4-3.5,4.7-4.2
		c1.5-0.4,2.4-1.5,1.8-3.1c-0.6-1.7-2-1.7-3.4-1.2c-2.5,0.8-4.2,2.6-5.8,4.5c-4.8,6-6.7,6-11.6-0.1c-5.3-6.6-11.3-6.6-16.7,0
		c-5,6.1-6.7,6.1-11.8-0.1c-5.2-6.4-11.3-6.4-16.5,0c-1.4,1.7-2.6,3.6-4.8,4.5c-1.4,0.5-1.6,1.7-1.1,3c0.6,1.3,1.7,1.5,3,1.1
		c1.6-0.5,2.9-1.5,4-2.7c1-1.1,1.9-2.3,2.8-3.4c2.8-3.5,6-3.5,8.8,0c0.9,1.1,1.8,2.3,2.8,3.4c4.1,4.4,10.2,4.4,14.2-0.1
		c1-1.1,1.9-2.4,2.9-3.6c2.6-3,5.7-3,8.3,0.1c1.1,1.2,2,2.6,3.1,3.8C67.9,69.5,70.1,70.7,72.9,70.6z"/>
</g>
</svg>
