<?xml version="1.0" encoding="utf-8"?>
<!-- Generator: Adobe Illustrator 21.0.2, SVG Export Plug-In . SVG Version: 6.00 Build 0)  -->
<svg version="1.1" id="Laag_1" xmlns="http://www.w3.org/2000/svg" xmlns:xlink="http://www.w3.org/1999/xlink" x="0px" y="0px"
	 viewBox="0 0 104.1 104.1" style="enable-background:new 0 0 104.1 104.1;" xml:space="preserve">
<style type="text/css">
	.st0{fill:#FDBE52;}
	.st1{fill:#AD2B12;}
</style>
<path class="st0" d="M52.1,40.8c0.7-1.9,1.1-3.1,1.5-4.3c3.5-12,18.1-14.1,26.1-8.1c8.1,6.1,9.2,17.8,2.7,25.1
	c-1,1.2-2.2,2.6-3.9,1.3c-1.7-1.4-0.8-2.8,0.3-4.2c4.1-5.1,3.7-11.5-0.5-16.4c-3.9-4.6-10.2-5.8-15.7-2.7c-3.6,2-4.9,5.5-5.4,9.2
	C56.6,49.1,56,57,55.5,65.2c-0.2,3.4-0.5,6.9-0.8,10.4c-0.1,1.5-1,3.4-3,3.5c-2.1,0-1.9-2-2.1-3.5c-0.8-10-1.5-20-2.2-30
	c-0.2-2.3-0.4-4.6-1-6.9c-1.8-6.6-7.9-10.2-14.7-8.5c-6.2,1.5-10.5,8.2-9.3,14.4c0.5,2.4,1.4,4.6,3.1,6.4c1.1,1.2,2.1,2.9,0.6,4.2
	c-1.7,1.4-3.8-0.2-4.9-1.4c-4.5-5.1-4.8-12.3-1.8-18.6s9.2-10.1,16.2-9.7c7.8,0.3,12.2,3.6,14.7,10.5C50.8,37.2,51.3,38.6,52.1,40.8
	z"/>
<g>
	<path class="st1" d="M14.4,41.7c0.5-7.7,4.2-14.2,12-17.7c2.4-1.1,4.8-1.8,7.4-2c2.4-0.2,4.8,0.1,7.1,0.9c2.5,0.8,4.9,2.1,6.9,3.7
		c0.7,0.6,1.3,1.2,1.8,2c0.6,0.9,1.2,2.5,2.5,2.4c1.2-0.1,2-2.3,3.1-3.5c7.6-7.5,20.9-7.2,28.6,0.7c7.8,8.1,7.8,21.4-0.1,28.8
		c-2.2,2.1-5.6,2.1-7.7,0.2c-2.3-2.2-2.4-5-0.2-7.8c3.6-4.6,3.8-9.3,0.4-13.1c-2.6-2.9-5.9-3.7-9.6-2.8c-3.3,0.8-5.2,3.1-5.9,6.4
		c-1.3,6.1-1.3,12.3-1.9,18.4C58.3,64,58,69.8,57.6,75.5c-0.3,4.1-2.4,6.7-5.6,6.7c-3.3,0-5.5-2.5-5.7-6.7
		c-0.6-11.2-1.5-22.4-2.6-33.6c-0.4-3.6-1.6-6.9-5.5-8.2c-3.7-1.2-7.1-0.6-10,2.2c-3.7,3.5-3.8,8.9-0.2,13.2c2.9,3.4,2,7.9-1.9,9.2
		c-2.3,0.8-4.4,0.2-6.1-1.6C16.3,52.6,14.5,47.8,14.4,41.7z M52.1,40.9c-0.8-2.2-1.3-3.6-1.8-5c-2.5-6.9-7.6-10.1-14.7-10.5
		c-7-0.4-13.2,3.4-16.2,9.7c-3,6.4-2.1,13.7,2.5,18.7c1.1,1.2,2.3,2.4,3.9,0.9c1.5-1.3,0.8-2.5-0.3-3.7c-1.7-1.8-2.6-4-3.1-6.4
		c-1.2-6.1,3.1-12.9,9.3-14.4c6.8-1.7,12.9,1.9,14.7,8.5c0.6,2.2,0.9,4.5,1,6.9c0.7,10,1.5,20,2.2,30c0.1,1.6,0.3,3.3,2.5,3.2
		c2,0,2.2-1.7,2.3-3.2c0.3-3.4,0.5-6.8,0.7-10.3c0.5-8.2,1.1-16.4,2.1-24.6c0.5-3.7,1.8-7.2,5.4-9.2c5.5-3.1,12.3-2,16.1,2.6
		c4.1,4.9,4.2,11.4,0.1,16.5c-1.1,1.4-2,2.8-0.3,4.2c1.7,1.3,2.8-0.1,3.9-1.3c6.5-7.3,5.1-19-3-25c-8-6-22.3-4-25.8,8
		C53.2,37.8,52.8,38.9,52.1,40.9z"/>
</g>
</svg>
