<?xml version="1.0" encoding="utf-8"?>
<!-- Generator: Adobe Illustrator 21.0.2, SVG Export Plug-In . SVG Version: 6.00 Build 0)  -->
<svg version="1.1" id="Laag_1" xmlns="http://www.w3.org/2000/svg" xmlns:xlink="http://www.w3.org/1999/xlink" x="0px" y="0px"
	 viewBox="0 0 104.1 104.1" style="enable-background:new 0 0 104.1 104.1;" xml:space="preserve">
<style type="text/css">
	.st0{fill:#44C4D7;}
	.st1{fill:#C6E9FC;}
</style>
<g>
	<path class="st0" d="M28,49.2c-1.7-0.6-2.8-0.9-3.7-1.4c-3.1-1.8-3.6-5.6-1-8.6c5.7-6.7,12.8-11,21.4-12.9
		c11.6-2.5,22.2-0.1,31.6,6.9c7.8,5.8,8.3,15.7,1.3,22.2c-0.3,0.3-0.8,0.4-1.6,0.7c2,0.8,3.1,1.1,4.1,1.7c2.9,1.9,3.2,5.6,0.7,8.5
		C72.5,75.8,62.1,80.5,49.4,80c-8.8-0.4-16.9-3.1-23.3-9.4C19.8,64.4,20,56.1,26.5,50C26.8,49.7,27.3,49.5,28,49.2z M31.7,47.1
		c1.7-0.4,3.4-0.5,5.1-0.4c8.7,0.7,14.6,9.8,11.8,18c-0.4,1.3-2.2,2.7-1.2,3.8c0.9,1,2.9,0.4,4.5,0.4c0.4,0,0.9,0,1.3,0
		c8.1-0.7,14.6-4.2,20-10.9c-2.8,0.6-5.2,0.9-7.5,0.3c-9.1-2.3-13.3-11.4-9.3-20c0.4-0.8,1.6-1.8-0.6-2c-9.9-0.7-18.2,2.4-24.4,10.3
		c-0.1,0.1-0.2,0.2-0.4,0.3C31.3,47.1,31.5,47.1,31.7,47.1z M40.4,70.2c0.9-0.8,1.6-1.4,2.2-2.1c3.3-3.3,4.1-7.2,2.6-11.6
		C43.9,52.8,40,50,36,49.9c-4.6-0.2-8.4,2.2-10.3,6.4c-2.3,5.1-0.2,10.7,5.2,14.3c8.7,5.8,18.1,7.6,28.2,5.3
		c7.7-1.7,14-5.8,19.2-11.7c0.9-1.1,1.3-2.3,0.2-3.4c-1.2-1.1-2.5-0.8-3.6,0.4c-0.7,0.8-1.5,1.6-2.3,2.4
		C64.7,71.6,50.8,74.6,40.4,70.2z M63.8,35c-1.3,1.3-2.4,2.2-3.3,3.2c-2.7,3.3-3.2,8.3-1.1,11.8c2.4,4,6.6,6.1,10.8,5.3
		c4.8-0.9,8.2-4.1,8.9-8.7c0.9-5.8-2.3-9.5-6.7-12.3c-10.1-6.4-20.9-7.6-32.2-3.4c-5.8,2.2-10.7,5.7-14.6,10.5
		C24.9,42.2,24.5,43,25,44c0.4,0.8,1.1,1.3,2,1.3c1.2,0.1,1.8-0.8,2.5-1.5c3.3-3.8,7.3-6.7,12.1-8.5C48.8,32.4,56,32.4,63.8,35z"/>
	<path class="st1" d="M40.4,70.2c10.4,4.3,24.2,1.4,32.3-6.7c0.8-0.8,1.6-1.6,2.3-2.4c1.1-1.2,2.4-1.5,3.6-0.4
		c1.1,1.1,0.7,2.3-0.2,3.4c-5.1,6-11,10.7-18.7,12.4c-10.1,2.3-20.2-0.1-28.8-5.9c-5.5-3.6-7.4-9.3-5.1-14.4
		c1.9-4.1,5.7-6.5,10.3-6.4c4,0.1,7.9,2.9,9.3,6.7c1.6,4.4,0.7,8.3-2.6,11.6C42,68.8,41.3,69.4,40.4,70.2z M41.4,60.6
		c0.1-3.5-2.4-6-5.8-6.1c-3.4-0.1-6.1,2.4-6.2,5.8c-0.1,3.4,2.5,6,5.9,6.1C38.8,66.5,41.4,64.1,41.4,60.6z"/>
	<path class="st1" d="M63.8,35c-7.7-2.6-15-2.6-22.2,0.3c-4.7,1.8-8.7,4.7-12.1,8.5c-0.7,0.8-1.3,1.6-2.5,1.5c-1-0.1-1.6-0.5-2-1.3
		c-0.5-1-0.1-1.8,0.6-2.6c3.9-4.8,8.8-8.4,14.6-10.5c11.3-4.2,22.1-3,32.2,3.4c4.4,2.8,7.6,6.5,6.7,12.3c-0.7,4.6-4.1,7.8-8.9,8.7
		C66,56.1,61.7,54,59.4,50c-2.1-3.5-1.6-8.5,1.1-11.8C61.4,37.2,62.4,36.3,63.8,35z M68.7,50.9c3.3,0,6-2.8,6-6.1
		c0-3.2-2.9-6.1-6.1-6c-3.2,0-6.1,2.9-6.1,6.1C62.6,48.2,65.4,51,68.7,50.9z"/>
	<path class="st0" d="M41.4,60.6c-0.1,3.4-2.6,5.9-6.1,5.8c-3.4-0.1-6-2.7-5.9-6.1c0.1-3.4,2.7-5.9,6.2-5.8
		C39,54.6,41.5,57.1,41.4,60.6z M38.2,60.7c0-1.9-1-2.9-2.6-3c-1.8-0.1-3,1.1-3,2.8s1.1,2.7,2.8,2.8C37,63.3,38.1,62.4,38.2,60.7z"
		/>
	<path class="st0" d="M68.7,50.9c-3.2,0-6.1-2.8-6.1-6s2.8-6.1,6.1-6.1c3.2,0,6.1,2.8,6.1,6C74.7,48.1,72,50.9,68.7,50.9z
		 M68.6,42.1c-1.7,0.1-2.6,1.1-2.6,2.8c0,1.8,1,2.8,2.7,2.8c1.8,0,2.9-1.2,2.8-2.9C71.4,43.2,70.3,42.1,68.6,42.1z"/>
</g>
</svg>
