<?xml version="1.0" encoding="utf-8"?>
<!-- Generator: Adobe Illustrator 21.0.2, SVG Export Plug-In . SVG Version: 6.00 Build 0)  -->
<svg version="1.1" id="Laag_1" xmlns="http://www.w3.org/2000/svg" xmlns:xlink="http://www.w3.org/1999/xlink" x="0px" y="0px"
	 viewBox="0 0 104.1 104.1" style="enable-background:new 0 0 104.1 104.1;" xml:space="preserve">
<style type="text/css">
	.st0{fill:#AD2B12;}
	.st1{fill:#FFFFFF;}
	.st2{fill:#FDBE52;}
</style>
<g>
	<g>
		<path class="st0" d="M72.3,41.6c0.2,5.9-2.5,11.9-7.1,17.1c-2.9,3.3-4.9,6.8-4.8,11.3c0,1.5,0.2,2.9,1.6,3.8
			c1.9,1.1,3.7,0.3,3.9-1.8c0.1-0.5,0-1,0.1-1.5c0.4-3.3,2.8-5.5,5.9-5.3c3,0.2,5.2,2.8,5.2,6c0,8.3-5.3,13.8-13.5,14
			c-7.4,0.2-13.8-5.7-14.2-13.4c-0.4-7.3,1.6-13.7,6.5-19.2c3.3-3.7,5.6-7.7,5.4-12.9c-0.2-5.5-2.9-8.5-8.4-8.7
			c-5.5-0.2-8.7,2.8-9.2,8.2c-0.4,4.6,1.2,8.8,2.8,12.9c1.9,4.9,2.4,9.6-0.6,14.3c-3.1,4.8-9,7-14.6,5.5c-5.3-1.4-9.4-6.3-9.7-11.7
			c-0.4-6,2.7-11.2,8-13.4c0.4-0.2,0.8-0.4,1.2-0.5c2.2-0.2,2.4-1.5,2.1-3.4c-0.5-4.3,0.2-8.4,2-12.3c3.7-8.1,12.1-12.1,21.5-10.3
			C66.7,22.3,72.6,29.7,72.3,41.6z M69.1,40.3c0-0.8,0-1.5,0-2.3c-0.4-7-4.8-12.4-11.5-14.1c-7.7-2-15.2,0.5-18.8,6.4
			c-2.9,4.8-3.5,10.2-2.2,15.6c0.5,2.2,0.7,3.2-2.3,3.1c-4.7-0.1-8.9,3.9-9.5,8.5c-0.6,4.8,2.3,9.5,6.7,11c4,1.3,7.7,0.6,10.6-2.5
			c2.9-3,3.6-6.5,2.3-10.5c-1.9-5.5-4.3-10.8-3.7-16.9c0.6-5.9,3.9-9.9,9.4-10.6c8.3-1.1,14.7,2.7,14.5,12.1
			c-0.1,4.9-1.5,9.1-4.7,12.7c-2.8,3.2-5.4,6.5-6.4,10.7c-1.1,4.7-1.7,9.3,1.2,13.7c2.8,4.2,7.8,5.8,12.9,4.1
			c4-1.3,6.6-5.8,6.2-10.5c-0.1-1.2-0.5-2.2-1.9-2.3c-1.5-0.1-2.3,0.6-2.5,2c-0.1,0.8-0.2,1.7-0.3,2.5c-0.8,4.1-5.1,5.9-8.6,3.6
			c-2.2-1.4-3.2-3.5-3.3-6.1c-0.2-4.9,1.4-9.3,4.7-13C66.3,52.8,69.3,47.2,69.1,40.3z"/>
		<path class="st1" d="M35,56.8c1.4,0.2,2.1,1,2.1,2.4c0,1.4-1,2.2-2.3,2.2c-1.4-0.1-2.5-0.9-2.3-2.5C32.6,57.5,33.6,56.8,35,56.8z"
			/>
	</g>
	<path class="st2" d="M69.1,40.3c0-0.8,0-1.5,0-2.3c-0.4-7-4.8-12.4-11.5-14.1c-7.7-2-15.2,0.5-18.8,6.4c-2.9,4.8-3.5,10.2-2.2,15.6
		c0.5,2.2,0.7,3.2-2.3,3.1c-4.7-0.1-8.9,3.9-9.5,8.5c-0.6,4.8,2.3,9.5,6.7,11c4,1.3,7.7,0.6,10.6-2.5c2.9-3,3.6-6.5,2.3-10.5
		c-1.9-5.5-4.3-10.8-3.7-16.9c0.6-5.9,3.9-9.9,9.4-10.6c8.3-1.1,14.7,2.7,14.5,12.1c-0.1,4.9-1.5,9.1-4.7,12.7
		c-2.8,3.2-5.4,6.5-6.4,10.7c-1.1,4.7-1.7,9.3,1.2,13.7c2.8,4.2,7.8,5.8,12.9,4.1c4-1.3,6.6-5.8,6.2-10.5c-0.1-1.2-0.5-2.2-1.9-2.3
		c-1.5-0.1-2.3,0.6-2.5,2c-0.1,0.8-0.2,1.7-0.3,2.5c-0.8,4.1-5.1,5.9-8.6,3.6c-2.2-1.4-3.2-3.5-3.3-6.1c-0.2-4.9,1.4-9.3,4.7-13
		C66.3,52.7,69.3,47.1,69.1,40.3z"/>
	<path class="st0" d="M34.9,64.5c-3.2,0-5.5-2.3-5.6-5.4c0-3.1,2.4-5.6,5.5-5.6c3.1,0,5.5,2.4,5.5,5.5
		C40.4,62.2,38.1,64.5,34.9,64.5z M35,56.8c-1.4,0-2.4,0.7-2.5,2.1c-0.1,1.6,0.9,2.4,2.3,2.5c1.3,0.1,2.3-0.8,2.3-2.2
		C37.1,57.8,36.4,57,35,56.8z"/>
</g>
</svg>
