<?xml version="1.0" encoding="utf-8"?>
<!-- Generator: Adobe Illustrator 21.0.2, SVG Export Plug-In . SVG Version: 6.00 Build 0)  -->
<svg version="1.1" id="Laag_1" xmlns="http://www.w3.org/2000/svg" xmlns:xlink="http://www.w3.org/1999/xlink" x="0px" y="0px"
	 viewBox="0 0 104.1 104.1" style="enable-background:new 0 0 104.1 104.1;" xml:space="preserve">
<style type="text/css">
	.st0{fill:#F4F4F4;}
	.st1{fill:#FDBE52;}
	.st2{fill:#AD2B12;}
</style>
<g>
	<path class="st0" d="M70.4,31.7c-3.8,0-7,0-10.1,0c-1.5,0-2.7-0.3-2.7-2.1c0-1.7,1.3-2.1,2.7-2.1c4.8,0,9.5,0,14.3,0
		c2.1,0,2.9,1,2.9,3c0,4.7,0,9.4,0,14.1c0,1.4-0.2,2.8-2,2.8c-1.9,0.1-2.2-1.3-2.2-2.8c0-3.1,0-6.3,0-9.4c-0.2-0.2-0.5-0.3-0.7-0.5
		c-1.6,1.8-3.2,3.6-4.9,5.3c-4.6,4.7-9.3,9.4-14.1,14c-1.2,1.1-1.1,1.8,0,2.9c1.7,1.5,3.3,3.3,4.9,4.9c1,0.9,1.3,2,0.3,3
		c-1,1.1-2.2,0.8-3.3-0.2c-1.8-1.7-3.5-3.4-5.2-5.2c-0.8-0.8-1.3-1-2.1-0.1c-5.6,5.7-11.3,11.4-16.9,17c-0.5,0.5-1.1,1.1-1.7,1.5
		c-1,0.7-1.9,0.4-2.6-0.5c-0.9-1-0.5-2,0.3-2.9c2.6-2.6,5.2-5.2,7.8-7.8c3.4-3.4,6.7-6.8,10.1-10.1c0.9-0.9,1-1.4,0-2.3
		c-1.7-1.5-3.3-3.3-4.9-4.9c-1-1-1.7-2.2-0.6-3.4c1.2-1.2,2.3-0.7,3.4,0.4c1.7,1.7,3.4,3.4,5.1,5.1c0.5,0.5,1,1.2,1.8,0.3
		C56.7,45.2,63.3,38.7,70.4,31.7z"/>
	<path class="st1" d="M69.4,31.7C62.2,39,57.5,43.6,50.6,50.4c-0.9,0.9-1.9,0.4-2.4-0.1c-1.8-1.8-3.3-3.3-5.1-5
		c-1-1.1-2.9-0.6-4.1,0.8c-1.1,1.2-0.5,2.5,0.6,3.5c1.7,1.7,3.3,3.4,5.1,5.1c1,0.9-0.1,1.5-1,2.4c-3.5,3.4-6.9,6.7-10.4,10.2
		c-2.7,2.7-5.4,4.7-8.1,7.4c-0.8,0.9-0.4,2.8,0.5,4c0.7,0.9,1.7,1.2,2.7,0.5c0.6-0.5,1.2-1.1,1.8-1.6c6.9-5.5,12.1-10.8,17.9-16.8
		c0.9-0.9,1.1-1.7,1.8-0.8c1.8,1.9,3.5,3.6,5.4,5.4c1,1,2.3,1.4,3.4,0.2c0.9-1,2-2.6,1.1-3.6c-1.8-1.7-3.4-3.4-5.2-5.1
		c-1.2-1.1-0.3-3.1,0.9-4.2c4.9-4.8,8.2-7.4,13-12.3c1.8-1.8,2.4-2.8,4.1-4.6c0.2,0.2-0.2-0.2,0,0c0,3.2,0,5.6,0,8.8
		c0,1.6,1,3.8,3,3.7c1.8-0.1,2.6-2.4,2.6-3.8c0-4.9,0-9.8,0-14.7c0-2.1-0.8-3.1-3-3.1c-5,0-9.9,0-14.9,0c-1.5,0-4,0-4,1.9
		c0,1.8,1.8,3.6,3.2,3.6C62.8,32.2,65.4,31.7,69.4,31.7z"/>
	<path class="st2" d="M63.4,34.5c-1.8,0-2.8,0-3.9,0c-3-0.1-5-2.1-5-5c0-2.7,2-4.8,4.8-4.9c5.4-0.1,10.8-0.1,16.2,0
		c2.6,0,4.7,2.1,4.7,4.7c0.1,5.5,0.1,10.9,0,16.4c0,2.7-2.2,4.5-4.9,4.5c-2.7,0-4.7-1.8-4.9-4.5c-0.1-1.1,0.2-3.9,0.6-5.2
		c-1.8,2.1-2.2,2.4-3.7,4c-3.3,3.2-6.4,6.5-9.7,9.6c-1,1-1.1,1.6,0,2.6c1.2,1,2.2,2.1,3.3,3.2c1.9,2,1.9,5.1,0.2,6.9
		c-1.9,1.9-4.7,2.1-6.9,0.3c-1.3-1.1-2.5-2.3-3.6-3.6c-1-1.1-1.6-0.9-2.5,0.1C43,68.9,37.9,74,32.8,79.1c-2.5,2.5-5.5,2.7-7.5,0.7
		c-2.1-2.1-1.9-5.2,0.7-7.7c5-5.1,10.1-10.3,15.3-15.3c1-1,1-1.6,0-2.5c-1.3-1.1-2.5-2.3-3.6-3.6c-1.8-2.1-1.6-4.9,0.2-6.7
		c1.9-1.8,4.8-1.9,6.9,0c1.3,1.2,2.5,2.5,3.7,3.8c0.6,0.6,1,0.8,1.7,0.1C54.4,43.5,58.7,39.3,63.4,34.5z M70.4,31.7
		c0,0-13.6,13.6-20.2,20.2c-0.9,0.9-1.3,0.2-1.8-0.3c-1.7-1.7-3.4-3.4-5.1-5.1c-1-1.1-2.2-1.7-3.4-0.4c-1.1,1.2-0.5,2.4,0.6,3.4
		c1.6,1.6,3.2,3.3,4.9,4.9c1,0.9,0.9,1.4,0,2.3C42,60,38.6,63.4,35.3,66.8c-2.6,2.6-5.2,5.2-7.8,7.8c-0.8,0.9-1.2,1.8-0.3,2.9
		c0.7,0.9,1.6,1.2,2.6,0.5c0.6-0.5,1.2-1,1.7-1.5c5.7-5.7,11.3-11.3,16.9-17c0.9-0.9,1.4-0.8,2.1,0.1c1.7,1.8,3.4,3.5,5.2,5.2
		c1,1,2.2,1.3,3.3,0.2c0.9-1,0.6-2.1-0.3-3c-1.7-1.6-3.2-3.3-4.9-4.9c-1.2-1.1-1.2-1.8,0-2.9c4.7-4.6,9.4-9.3,14.1-14
		c1.7-1.7,3.3-3.6,4.9-5.3c0.8-1,0.8-0.9,0.7,0.5c-0.2,3,0,6.3,0,9.4c0,1.5,0.3,2.9,2.2,2.8c1.7-0.1,2-1.4,2-2.8c0-4.7,0-9.4,0-14.1
		c0-2-0.8-3-2.9-3c-4.8,0-9.5,0-14.3,0c-1.4,0-2.7,0.3-2.7,2.1c0,1.7,1.3,2.1,2.7,2.1C63.4,31.6,70.4,31.7,70.4,31.7z"/>
</g>
</svg>
