<?xml version="1.0" encoding="utf-8"?>
<!-- Generator: Adobe Illustrator 21.0.2, SVG Export Plug-In . SVG Version: 6.00 Build 0)  -->
<svg version="1.1" id="Laag_1" xmlns="http://www.w3.org/2000/svg" xmlns:xlink="http://www.w3.org/1999/xlink" x="0px" y="0px"
	 viewBox="0 0 104.1 104.1" style="enable-background:new 0 0 104.1 104.1;" xml:space="preserve">
<style type="text/css">
	.st0{fill:#B5D89E;}
	.st1{fill:#3A7F0E;}
</style>
<g>
	<path class="st0" d="M42.9,42.6c-3.7-2.6-6.2-5.8-8.7-8.9c-2.4-2.9-5.2-5.3-8.9-6.1c-1.4-0.3-2.9-1.3-2.5-2.8
		c0.4-1.6,2.3-2.2,3.7-2c3.7,0.6,6.6,3.1,9.1,5.7c2.1,2.3,4,4.7,6.1,7c6.3,7,13.6,6.7,20-0.2c2-2.2,3.8-4.7,5.8-6.9
		c2.5-2.7,6-4.8,9.7-5.5c1.5-0.3,3,0,3.4,1.9s-1,2.5-2.5,2.9c-3.3,0.8-5.8,2.9-7.9,5.4c-2.8,3.3-5.4,6.7-9.1,9.5
		c7.3,4.4,11.5,10.5,11.4,19c-0.1,5.6-2.2,10.5-6.4,14.4c-8.3,7.9-21.5,7.5-29.1-0.8c-4.5-5-7.3-10.7-6.2-17.5
		C32,51,36.9,46.2,42.9,42.6z M52,45.3c-8.8-0.1-16,6.9-16.1,15.7s7,16.1,15.9,16.2c8.6,0.2,15.6-7.3,15.7-16
		C67.6,52.2,60.9,45.9,52,45.3z"/>
	<path class="st1" d="M52,45.3c9,0.1,15.9,7.2,15.8,16.1c-0.1,8.7-7.4,15.9-16.1,15.8c-8.9-0.2-16-7.4-15.9-16.2
		C36.1,52.2,43.2,45.2,52,45.3z M51.6,73.9c7.1,0.1,12.9-5.4,13.1-12.4s-5.5-12.9-12.5-13c-7.2-0.1-13,5.6-13.1,12.7
		C39.1,68,44.7,73.7,51.6,73.9z"/>
	<path class="st1" d="M28.2,59.3c0.2-5,2.5-10.8,7.6-15.3c1.3-1.2,1.5-1.9,0.2-3.2c-2-2-3.7-4.3-5.6-6.4c-1.6-1.8-3.6-3.1-6-3.7
		c-3.2-0.7-4.9-3.5-4.3-6.5c0.7-3.1,3.5-4.7,6.9-4.1c6.2,1.2,10.4,5.3,14.2,9.9c1.1,1.4,2.3,2.8,3.5,4.1c4.3,4.5,10.2,4.5,14.5,0
		c2.3-2.5,4.4-5.2,6.8-7.7c3-3.4,6.7-5.6,11.2-6.4c3.1-0.6,6,1.3,6.6,4.2s-1.1,5.7-4.1,6.4c-3.6,0.8-5.9,3.3-8.2,5.9
		c-1.6,1.8-4,3.5-4.4,5.5s2.7,3.3,4,5.2c6,8.4,6,19.6-0.1,28.1c-5.9,8.3-16.7,11.6-26.8,8.3C34.8,80.6,28.2,71.2,28.2,59.3z
		 M42.9,42.6c-6,3.6-10,8.3-11.2,15s0.7,12.5,5.3,17.6c7.5,8.3,20.7,8.7,29.1,0.8c4.2-3.9,6.3-8.8,6.4-14.4
		c0.1-8.5-4.1-14.6-11.4-19c3.7-2.8,6.3-6.2,9.1-9.5c2.1-2.5,4.6-4.6,7.9-5.4c1.5-0.4,2.9-1,2.5-2.9c-0.4-2-2.1-1.8-3.5-1.5
		c-3.7,0.7-6.6,2.8-9.1,5.5c-2,2.2-3.9,4.6-5.9,6.8c-6.4,6.9-14.2,6.8-20.5-0.2c-2.1-2.3-4-4.7-6.1-7c-2.5-2.7-5.5-4.6-9.2-5.2
		c-1.4-0.2-2.7,0-3.1,1.6s0.6,2.4,2,2.7c3.8,0.9,6.6,3.2,8.9,6.1C36.7,36.8,39.2,40,42.9,42.6z"/>
</g>
</svg>
