<?xml version="1.0" encoding="utf-8"?>
<!-- Generator: Adobe Illustrator 21.0.2, SVG Export Plug-In . SVG Version: 6.00 Build 0)  -->
<svg version="1.1" id="Laag_1" xmlns="http://www.w3.org/2000/svg" xmlns:xlink="http://www.w3.org/1999/xlink" x="0px" y="0px"
	 viewBox="0 0 104.1 104.1" style="enable-background:new 0 0 104.1 104.1;" xml:space="preserve">
<style type="text/css">
	.st0{fill:#B5D89E;}
	.st1{fill:#3A7F0E;}
</style>
<g>
	<path class="st0" d="M70.6,36.9c6.8-2.7,12.6,0.9,13.1,8.2c0.5,7.6-2.7,13.8-7.6,19.3c-1.2,1.4-2.7,2.5-4.3,4
		c1.9,1.6,4.1,1.9,6.1,2c1.5,0.1,2.6,0.9,2.4,2.7c-0.2,1.7-1.6,1.8-2.9,1.7c-2.4-0.2-4.9-0.4-6.9-1.9c-1.3-1-2.1-1.4-3.4-0.4
		c-2,1.5-4.2,2.7-6.3,4.1c-1.2,0.8-3.1,1.6-4.1-0.1c-1-1.6-0.3-2.8,1-3.6c2-1.2,4.2-3,6.3-4.2c1.1-0.7,1.7-0.5,1-1.9
		c-1.1-2.1-1.2-4.7-1.2-7.1c0.1-7.9-0.2-15.7-0.2-23.6c0-2.7-1.4-4.1-3.6-4.9c-2.2-0.8-3.9-0.4-5.4,1.5c-1,1.2-1.3,2.2-1.3,3.8
		c0,8.8,0,17.8,0,26.6c0,0.6,0.1,1.2,0,1.8c-0.2,1.1-0.9,2-2.1,1.9c-1.1-0.1-1.9-0.5-2-1.6c0-0.6-0.2-1.6-0.2-2.2
		c0-8.8,0-17.1,0-25.9c0-4.7-3.4-7.5-7.3-5.4c-2.1,1.1-3.2,2.5-3.2,4.8c0,8.8,0.5,17.6,0.5,26.5c0,0.5,0,0.9,0,1.5
		c0,1.4-1,2.4-2.5,2.4c-1.4,0-2.1-1-2.3-2.4c-0.6-4.4,0-8.8,0-13.1c0-4.9,0.3-9.7,0-14.6c-0.2-3.6-1.5-5.3-4.5-5.5
		c-3.1-0.2-5.3,1.6-5.8,5.1c-0.2,1.3-0.9,2.1-2.5,2c-1.7-0.1-2-1.9-1.8-3.3c0.4-3.7,2.4-6.3,5.8-7.8c3.4-1.5,6.7-0.9,9.5,1.4
		c1.3,1.1,2,1,3.3-0.1c3.6-3,8.2-2.8,12.1,0.3c0.7,0.6,1.2,1.3,2.2,0.3c3-2.8,6.6-3.6,10.4-1.8c4.1,1.8,5.7,5.2,5.7,9.5
		C68.8,37.7,69.9,37.1,70.6,36.9z M69.2,65.7c2.1-1.9,3.9-3.8,5.5-5.9c3-4.1,5-8.6,4.6-13.9c-0.2-3-1.7-4.5-4-4.9
		c-3.8-0.6-7.2,1.9-7.2,5.7c0,4.8,0,9.5,0,14.3C68.1,62.6,68.4,64.1,69.2,65.7z"/>
	<path class="st1" d="M69.2,65.7c-0.8-1.6-1.1-3.1-1.1-4.6c0-4.8,0-9.5,0-14.3c0-3.9,3.5-6.8,7.3-6.1c2.3,0.4,3.7,2.3,3.9,5.3
		c0.4,5.3-1.6,9.7-4.6,13.9C73.2,61.9,71.3,63.8,69.2,65.7z M70.8,60.1c3.7-4.4,6-8.6,5.7-13.8c-0.1-1.3-0.1-2.8-2-3
		c-1.7-0.1-3.7,1.4-3.7,3.1C70.8,50.8,70.8,55.1,70.8,60.1z"/>
	<path class="st1" d="M76.8,67.9c1,0.2,1.9,0.3,2.7,0.6c2.1,0.7,3.5,2.7,3.3,4.8c-0.1,2.2-1.9,4.1-4.1,4.3c-3,0.3-5.8-0.3-8.4-1.8
		c-1.4-0.9-2.3-0.6-3.6,0.2c-1.9,1.3-3.9,2.5-5.9,3.6c-2.6,1.3-5.2,0.4-6.5-2c-1.2-2.3-0.5-4.8,2-6.4c0.3-0.2,0.5-0.3,0.8-0.4
		c3.4-1.6,5.4-3.1,4.6-8.1c-1.2-7.2-0.4-14.9-0.4-22.3c0-1.3,0-2.5,0-3.8c-0.1-1.7-0.9-2.9-2.7-2.9s-2.6,1.2-2.6,3
		c0,9.2,0,18.3,0,27.5c0,3-1.7,5.1-4.3,5.3c-3.1,0.2-5.1-1.8-5.1-5.1c0-8.4,0-16.7,0-25.1c0-0.9,0-1.8,0-2.7c-0.1-1.7-0.9-3-2.7-2.9
		s-2.6,1.3-2.6,3c0,7.8,0,15.5,0,23.3c0,1.4,0,2.8,0,4.3c-0.1,3.2-1.9,5.3-4.8,5.2c-2.8,0-4.6-2-4.6-5.1c0-8.8,0-17.6,0-26.4
		c0-0.7,0.1-1.4-0.1-2c-0.3-1.3-1-2.2-2.4-2.2c-1.5-0.1-2.4,0.8-2.7,2.2c-1.1,4.2-2.9,5.8-5.8,5.1c-3.1-0.7-4.4-3.6-3.4-7.6
		c2.1-8,10.8-11.7,17.9-7.6c1,0.6,1.5,0.6,2.5,0c4-2.3,8.1-2.3,12.1-0.1c1,0.6,1.6,0.7,2.7,0.1c6.6-4,15.3-0.6,17.6,6.7
		c0.4,1.4,0.9,1.8,2.4,1.6c7.2-1.1,12.8,3.5,13.5,10.9c0.7,7.7-2.1,14.2-6.8,20C78.5,65.9,77.7,66.8,76.8,67.9z M68.3,36.3
		c0.2-4-1.8-6.8-5.8-8.7c-3.8-1.8-7.3-1-10.3,1.8c-1,0.9-1.5,0.3-2.2-0.3c-3.7-3-8.4-3.2-11.9-0.3c-1.3,1.1-1.9,1.2-3.3,0.1
		c-2.8-2.3-6-2.9-9.4-1.4c-3.3,1.5-5.3,4-5.7,7.7c-0.2,1.4,0.1,2.6,1.8,2.8c1.5,0.1,2-0.9,2.2-2.2c0.6-3.4,2.6-5.2,5.7-5
		c3,0.2,5,2.5,5,6c0,4.8,0,9.5,0,14.3c0,4.3,0,8.7,0,13c0,1.4,0.6,2.4,2,2.4s2-1.1,2-2.4c0-0.5,0-1,0-1.6c0-8.7,0-17.3,0-26
		c0-2.3,0.8-4.1,2.8-5.2c3.9-2,7.9,0.7,7.9,5.2c0,8.7,0,17.5,0,26.2c0,0.6,0,1.2,0,1.8c0.1,1.1,0.7,1.8,1.8,1.9
		c1.2,0.1,1.9-0.7,2.1-1.9c0.1-0.6,0-1.2,0-1.8c0-8.7,0-17.5,0-26.2c0-1.5,0.2-2.8,1.1-4c1.5-1.8,3.9-2.4,6.1-1.7
		c2.3,0.8,3.5,2.7,3.5,5.4c0,7.8,0.1,15.5,0,23.3c0,2.4,0.3,4.8,1.4,6.9c0.7,1.3,0.3,2-0.8,2.7c-2,1.2-3.9,2.5-5.9,3.6
		c-1.3,0.8-2.6,1.7-1.6,3.3c1,1.7,2.4,0.9,3.7,0.1c2.1-1.3,4.2-2.5,6.2-4c1.3-1,2.2-1,3.5,0c1.9,1.5,4.2,2.2,6.6,2.3
		c1.3,0.1,2.7,0,2.9-1.7c0.2-1.8-1.1-2.2-2.6-2.3c-2-0.1-3.9-0.8-5.8-2.3c1.5-1.3,3-2.5,4.2-3.9c4.8-5.4,8-11.5,7.5-19
		c-0.5-7.3-4.9-10.4-12.9-8.1C69.3,37.3,68.2,38.6,68.3,36.3z"/>
</g>
</svg>
