<?xml version="1.0" encoding="utf-8"?>
<!-- Generator: Adobe Illustrator 21.0.2, SVG Export Plug-In . SVG Version: 6.00 Build 0)  -->
<svg version="1.1" id="Laag_1" xmlns="http://www.w3.org/2000/svg" xmlns:xlink="http://www.w3.org/1999/xlink" x="0px" y="0px"
	 viewBox="0 0 104.1 104.1" style="enable-background:new 0 0 104.1 104.1;" xml:space="preserve">
<style type="text/css">
	.st0{fill:#B5D89E;}
	.st1{fill:#3A7F0E;}
</style>
<g>
	<path class="st0" d="M36.9,35.7c1.3-2.4,2.3-4.8,4.6-6.1c6.9-4.1,15.8-0.7,17.3,7.2c0.8,4.5,1,7.7,2.5,12c0.4,1.2,0.1,1.6,0.7,3.2
		c0.7-1.3,1.2-1.9,1.7-2.9c2.7-4.9,9.3-6.2,14.4-4.7c5.4,1.6,8.2,7.9,7.8,13.4c-0.3,5.5-3.2,10.9-8.5,11.8c-4,0.7-8.7,0.8-11.7-1.8
		c-1-0.9-2-2.6-2.7-1.2C59.4,73.9,53.2,78,45.5,79c-1.3,0.2-4.2-0.9-4.3-2.6s2.7-3.3,4-3.4c6.5-0.8,10.7-2.2,13.7-8.3
		c1-2,0.8-4-0.4-6.2c-3.1-5.9-4.1-12.4-4.8-19.1c-0.3-2.6,0.2-5-2.3-6.6c-3.8-2.6-10.3-1.3-10.9,5.2c-0.5,5,0.2,10.3-0.2,15.3
		c-0.2,2.1-0.4,3.9-0.5,6c-0.1,1.3-1.1,3.4-2.8,3.4c-1.6-0.1-2.4-1.2-2.5-2.4c-1.7-6.8-1.2-14.3-1.8-21c-0.2-2.9,0-5.7-3-7
		s-4.7-0.2-7.1,1.9c-0.9,0.8-3.8,1.2-4.6,0.2c-0.9-1,0.1-3.5,1.1-4.4c4.7-4.5,13.6-3.7,16.8,2C36.3,32.7,36.4,34.6,36.9,35.7z
		 M82.1,57.2c0-4.6-3.7-8.4-8.2-8.4c-5.1,0-8.9,4.8-8.8,11c0,2.7,4.8,6,8.5,6.1C78.1,65.9,82.1,61.8,82.1,57.2z"/>
	<path class="st1" d="M82.1,57.2c0,4.6-4,8.7-8.6,8.7c-3.7,0-8.4-3.4-8.5-6.1c-0.1-6.2,3.8-11,8.8-11C78.4,48.8,82.1,52.6,82.1,57.2
		z M73.6,63.2c3.1,0,6-2.8,6-5.9c0-3-2.6-5.9-5.5-6c-3.5-0.1-6.3,3.5-6.3,7.8C67.8,61,70.9,63.2,73.6,63.2z"/>
	<path class="st1" d="M88.4,57.3c0,11.3-12.3,18.4-22.2,12.7c-1.2-0.7-1.7-0.5-2.5,0.6c-4.7,6.6-11.4,9.4-19.1,10
		c-2.4,0.2-4.3-1.5-4.6-3.9c-0.3-2.5,1.1-4.5,3.8-4.9c3-0.5,6-1,8.7-2.7c1.5-0.9,2.7-2.1,3.8-3.5c1.8-2.2,2.2-4.3,0.7-7.2
		c-2.9-5.6-4.1-11.7-4.9-17.9c-0.1-1.2-0.4-2.3-0.7-3.5c-0.5-2-1.9-2.9-4-3c-2-0.1-3.5,0.8-4.1,2.8c-1,3.7-0.9,7.6-1.2,11.3
		c-0.4,3.9-0.6,7.7-0.9,11.6c-0.2,2.7-2,4.4-4.3,4.5c-2.5,0-4.3-1.7-4.5-4.5c-0.6-6.8-1-13.7-1.6-20.5c-0.3-3.9-2.1-5.6-5.2-5.2
		c-1,0.1-1.8,0.7-2.5,1.3c-2.3,1.8-4.9,1.7-6.5-0.2c-1.7-2-1.4-4.7,0.8-6.6c5.4-4.7,13.4-4.6,18.5,0.4c0.6,0.6,0.9,1,1.9,0.1
		c3.8-3.7,8.3-4.9,13.4-3.4c5.3,1.5,8.2,5.2,9.3,10.4c0.7,3.2,0.8,6.6,1.6,9.8c0.4,1.5,0.6,1.7,1.8,0.6c4.6-4.4,9.9-5.4,15.7-3
		C85,45.8,88.4,51.4,88.4,57.3z M36.9,35.7c-0.6-1.1-0.9-1.9-1.4-2.7c-3.2-5.6-11.6-6.8-16.3-2.3c-1,0.9-1.3,1.9-0.5,2.9
		s1.8,0.8,2.7,0c2.4-2.1,5.1-2.6,8.1-1.3c3,1.3,3.7,4,3.9,6.8c0.5,6.7,1.1,13.4,1.6,20.1c0.1,1.3,0.2,2.5,1.8,2.5
		c1.7,0.1,1.9-1.2,2-2.6c0.1-2.1,0.3-4.1,0.4-6.2c0.4-5,0.7-9.9,1.2-14.9c0.7-6.5,7.1-7.8,10.9-5.2c2.5,1.7,2.9,4.3,3.2,6.9
		c0.8,6.7,2.2,13.1,5.3,19.1c1.1,2.1,1,3.9,0,5.9c-3.1,6.1-8.3,8.8-14.8,9.6c-1.3,0.2-2.7,0.4-2.5,2.1c0.1,1.7,1.5,1.8,2.8,1.6
		c7.6-1,13.9-4.1,17.6-11.2c0.7-1.4,1.2-1.2,2.2-0.4c3.1,2.6,6.6,3.6,10.6,2.9c5.3-0.9,9.6-5.9,10-11.3c0.3-5.5-3.5-10.9-8.8-12.4
		c-5.1-1.5-10.7,0.9-13.4,5.8c-0.5,0.9-1,1.9-1.7,3.2c-0.5-1.6-1-2.9-1.4-4.1c-1.5-4.4-1.7-8.9-2.6-13.4c-1.5-7.9-9.6-11.5-16.5-7.4
		C39.2,30.9,38.3,33.3,36.9,35.7z"/>
</g>
</svg>
