<?xml version="1.0" encoding="utf-8"?>
<!-- Generator: Adobe Illustrator 21.0.2, SVG Export Plug-In . SVG Version: 6.00 Build 0)  -->
<svg version="1.1" id="Laag_1" xmlns="http://www.w3.org/2000/svg" xmlns:xlink="http://www.w3.org/1999/xlink" x="0px" y="0px"
	 viewBox="0 0 104.1 104.1" style="enable-background:new 0 0 104.1 104.1;" xml:space="preserve">
<style type="text/css">
	.st0{fill:#44C4D7;}
</style>
<g>
	<path class="st0" d="M76.7,60.7c-2.1,0-4.1,0-6.2,0c-4.9,0-7.1-2.7-6.2-7.7c0.8-3.9-0.1-7.3-2.8-10.2c-3.5-3.7-8.8-4.6-13.4-2.3
		c-4.3,2.2-6.8,7.3-5.9,12.1c1.1,5.6-1,8.1-6.7,8.1c-4,0-8.1,0-12.1,0c-4,0-6.4-2.1-6.4-5.5c0-3.3,2.4-5.5,6.4-5.5
		c2.4-0.1,5.2,0.7,7.1-0.4c1.8-1,1.2-4.2,1.9-6.3c3.2-9.6,12.9-15.6,23.7-14.7c9.6,0.8,18.2,9.2,19.4,19.1c0.2,1.8,0.8,2.4,2.5,2.3
		c2.1-0.1,4.3-0.1,6.4,0c3.2,0.2,5.4,2.5,5.4,5.4c0,2.9-2.3,5.3-5.4,5.5C81.9,60.7,79.3,60.6,76.7,60.7
		C76.7,60.6,76.7,60.6,76.7,60.7z M77,57.5c2.2,0,4.5,0,6.7,0c1.5,0,2.8-0.6,2.8-2.3c0-1.8-1.2-2.3-2.8-2.3c-2.7,0-5.5-0.2-8.2,0
		c-2.5,0.2-3.1-0.5-3.1-3.1C72.3,36.5,57.8,27.4,45.7,33c-7.5,3.5-11.3,9.4-11.3,17.7c0,1.7-0.5,2.2-2.2,2.2c-2.9-0.1-5.8,0-8.7,0
		c-1.7,0-3.3,0.3-3.2,2.4c0.1,2,1.7,2.3,3.4,2.3c4,0,8.1,0,12.1,0c3.3,0,4-1,3.4-4.3c-1.7-8.9,5.1-17.2,14.2-17.2
		c9.3,0,16.1,8.3,14.3,17.6c-0.6,3,0.2,3.9,3.2,4C72.9,57.5,74.9,57.5,77,57.5z"/>
	<path class="st0" d="M53.4,75.9c-10,0-20.1,0-30.1,0c-4.7,0-7.3-3.3-6-7.3c0.8-2.4,2.7-3.7,5.8-3.7c5.1,0,10.1,0,15.2,0
		c15.1,0,30.2,0,45.3,0c2.4,0,4.4,0.7,5.5,3c1.1,2,0.8,4-0.5,5.8c-1.3,1.8-3.1,2.2-5.2,2.2C73.4,75.9,63.4,75.9,53.4,75.9
		C53.4,75.9,53.4,75.9,53.4,75.9z M53.4,72.7c9.4,0,18.9,0,28.3,0c0.9,0,1.7,0,2.6,0c1.3,0,2.1-0.7,2.3-2c0.2-1.4-0.7-2.2-2.1-2.5
		c-0.7-0.1-1.4-0.1-2-0.1c-19.3,0-38.6,0-57.8,0c-0.9,0-1.7,0-2.6,0.2c-1.1,0.2-1.8,1-1.8,2.2c0.1,1.2,0.7,2.1,2.1,2.2
		c0.8,0.1,1.5,0,2.3,0C34.2,72.7,43.8,72.7,53.4,72.7z"/>
</g>
</svg>
