<?xml version="1.0" encoding="utf-8"?>
<!-- Generator: Adobe Illustrator 21.0.2, SVG Export Plug-In . SVG Version: 6.00 Build 0)  -->
<svg version="1.1" id="Laag_1" xmlns="http://www.w3.org/2000/svg" xmlns:xlink="http://www.w3.org/1999/xlink" x="0px" y="0px"
	 viewBox="0 0 104.1 104.1" style="enable-background:new 0 0 104.1 104.1;" xml:space="preserve">
<style type="text/css">
	.st0{fill:#F55959;}
	.st1{fill:#D83D27;}
	.st2{fill:#FDDB55;}
	.st3{fill:#DB4545;}
</style>
<g>
	<path class="st0" d="M29.8,60.6c0.6-0.5,1-0.8,1.6-1.3c1.7-1.4,3.5-2.6,5.4-3.7c2.3-1.3,4.7-2.4,7.3-3c0.9-0.2,1.7-0.4,2.6-0.4
		c0.3,0,0.5-0.1,1-0.2c-10.4-3.4-20.6-6.7-30.8-10c1.8-5.6,6.8-9.4,12.6-9.7c3.2-0.2,6,0.5,8.8,2.1c5.9,3.5,11.5,7.7,13.8,14.6
		c0-10.9,0-21.7,0-32.5c6.1-0.2,12,4.3,13.6,10.2c0.6,2.4,0.6,4.8,0.2,7.3c0,0.2,0,0.4-0.1,0.6c0,0.1-0.1,0.2-0.1,0.3
		c-0.7,3.7-2,7.1-3.8,10.4c-1.4,2.5-2.9,4.8-5.3,6.5c-0.1,0-0.2,0-0.1,0.2c0.8-0.3,1.6-0.6,2.5-0.9c3.4-1.1,6.9-2,10.4-3.2
		c6-1.9,11.9-3.9,17.9-5.8c2.5,7.6-1.9,15.9-9.6,18c-1.1,0.3-2.2,0.5-3.3,0.7c-1.2,0.1-2.4,0.3-3.5,0.3c-2.3,0-4.7-0.2-7-0.5
		c-2.6-0.4-5.1-1.1-7.5-2.4c-0.4-0.2-0.8-0.4-1.3-0.7c0,0,0,0-0.1,0c0,0,0,0,0.1,0c0.4,0.5,0.3,0.3,0.4,0.5c1.4,1.9,2.6,3.9,4,5.8
		C62,67,64.5,70.5,67,74c2.3,3.1,4.5,6.2,6.8,9.3c-6.3,4.7-15.7,3.1-20-3.6c-0.5-0.8-1-1.7-1.5-2.5c-0.1-0.1-0.1-0.4-0.4-0.3
		c0.1-0.7-0.3-1.2-0.6-1.8c-1.5-3.8-2.4-7.7-2.6-11.7c-0.1-2,0.1-4,0.7-6c-0.2,0-0.3,0.1-0.3,0.2c-0.7,0.9-1.4,1.9-2.1,2.8
		c-2.8,3.8-5.5,7.6-8.3,11.4c-2.8,3.9-5.6,7.7-8.4,11.6c-3.9-2.9-5.9-6.9-5.8-11.7c0-4.2,1.9-7.6,4.8-10.5
		C29.5,61,29.7,60.9,29.8,60.6z M52.1,56.7c1.9,0,3.4-1.5,3.4-3.3c0-1.9-1.5-3.3-3.3-3.3c-1.9,0-3.4,1.5-3.4,3.4
		C48.7,55.2,50.2,56.7,52.1,56.7z"/>
	<path class="st1" d="M52.1,16.4c10.8,0.1,0,22,0,32.9c-2.8-6.6-7.8-11.3-13.8-14.8c-0.1-0.9-0.2-1.9-0.3-2.8
		c-0.7-7.3,4.7-14.1,11.9-15.1C50.6,16.5,51.6,16.4,52.1,16.4z"/>
	<path class="st1" d="M73.7,83.3c-8.8,6.2-13.8-18.1-19-26.5c7,3,12.8,4.4,19.6,3.8c0.6,0.7,1.3,1.4,1.9,2.1
		c4.8,5.5,4.4,14.2-0.9,19.2C74.9,82.5,74.1,83.1,73.7,83.3z"/>
	<path class="st1" d="M30.3,83.3C21.6,76.9,43.3,64.6,49.5,57c-1.6,7-0.1,13.7,2.7,20c-0.5,0.8-0.9,1.7-1.4,2.5
		c-1.5,2.5-3.6,4.6-6.3,5.7c-2.8,1.2-6,1.3-8.9,0.6C33.7,85.3,31.9,84.5,30.3,83.3z"/>
	<path class="st1" d="M16.8,42c3.4-10.3,22,6.5,31.1,10.1c-7.1,0.7-13.2,4.1-18.3,8.8c-0.9-0.2-1.9-0.4-2.8-0.6
		c-2.8-0.6-5.5-2-7.4-4.2c-2-2.3-3.1-5.3-3.3-8.3C16,45.8,16.2,43.9,16.8,42z"/>
	<path class="st1" d="M87.2,42.1C90.4,52.4,66.3,49,56,52.3c4.4-4.9,8.3-11.1,9.8-17.8c0.9-0.4,1.7-0.8,2.6-1.2
		c6.7-2.9,14.9,0.2,18,6.8C86.7,40.7,87.1,41.6,87.2,42.1z"/>
	<path class="st2" d="M52,57.2c-2.1,0-3.8-1.7-3.8-3.8c0-2.2,1.7-3.9,3.9-3.9c2.1,0,3.8,1.7,3.8,3.9C56,55.5,54.2,57.2,52,57.2z"/>
	<path class="st3" d="M55,57.3C55,57.2,55,57.2,55,57.3C55,57.2,55,57.2,55,57.3L55,57.3z"/>
</g>
</svg>
