<?xml version="1.0" encoding="utf-8"?>
<!-- Generator: Adobe Illustrator 21.0.2, SVG Export Plug-In . SVG Version: 6.00 Build 0)  -->
<svg version="1.1" id="Laag_1" xmlns="http://www.w3.org/2000/svg" xmlns:xlink="http://www.w3.org/1999/xlink" x="0px" y="0px"
	 viewBox="0 0 104.1 104.1" style="enable-background:new 0 0 104.1 104.1;" xml:space="preserve">
<style type="text/css">
	.st0{fill:#FDFDFD;}
	.st1{fill:#499E10;}
	.st2{fill:#3A7F0E;}
</style>
<g>
	<path class="st0" d="M34.7,90.1c0.1,0.2,0.3,0.1,0.5,0.1c2,0.2,3.9,0.4,5.9,0.5c6.2,0.3,12.4-0.2,18.4-2.1
		c6.2-1.9,11.4-5.3,15.1-10.6c3.3-4.7,4.8-10,5.7-15.5c0.8-5.5,0.6-11-0.3-16.5c-0.7-4.1-1.8-8.1-3.3-11.9c-0.1-0.2-0.1-0.5-0.2-0.7
		c-2.6-7-6.2-13.6-10.5-19.8c-0.2-0.3-0.4-0.7-0.9-1c0,0.2,0,0.3,0,0.4c0.6,2.2,0.6,4.5,0.2,6.7c-0.8,4.3-3.1,7.8-6.1,10.8
		c-4.3,4.2-9.4,7-14.8,9.2c-4.5,1.8-8.9,3.8-12.7,7c-7.7,6.2-11,14.2-9.7,24c0.6,4.3,2,8.3,3.9,12.1c0.7,1.5,1.5,2.9,2.4,4.4
		c0.1-0.4,0.2-0.6,0.2-0.8c0.3-2.4,0.7-4.8,1.3-7.2c1.5-6.6,3.9-12.8,7.7-18.4c4.4-6.5,10.3-11.1,17.8-13.5c0.3-0.1,0.5-0.3,0.8-0.1
		c-0.1,0-0.1,0.1-0.1,0.1c-4.8,2.7-8.6,6.4-11.7,10.8c-3.7,5.2-6,11-7.6,17.2c-1,3.9-1.6,7.9-1.9,12C34.7,88.2,34.4,89.1,34.7,90.1z
		"/>
	<path class="st1" d="M34.7,90.1c-0.3-0.9,0-1.9,0.1-2.8c0.3-4,0.9-8,1.9-12c1.6-6.2,3.9-12,7.6-17.2c3.1-4.4,6.9-8.2,11.7-10.8
		l0.1-0.1c-0.3-0.2-0.6,0-0.8,0.1c-7.5,2.4-13.4,7-17.8,13.5c-3.8,5.6-6.2,11.8-7.7,18.4c-0.5,2.4-1,4.8-1.3,7.2
		c0,0.2-0.1,0.5-0.2,0.8c-0.9-1.5-1.7-2.9-2.4-4.4C24,79,22.6,75,22,70.7c-1.3-9.8,2-17.8,9.6-24.1c3.8-3.1,8.2-5.1,12.7-7
		c5.5-2.2,10.6-5.1,14.8-9.2c3.1-3,5.3-6.5,6.1-10.8c0.4-2.3,0.4-4.5-0.2-6.7c0-0.1,0-0.2,0-0.4c0.4,0.3,0.6,0.7,0.9,1
		c4.3,6.1,7.9,12.7,10.5,19.8c0.1,0.2,0.2,0.5,0.2,0.7c-0.2,0.2-0.3,0.5-0.3,0.8c0,0.6-0.1,1.3-0.2,1.9c-0.5,3.4-1.2,6.8-2.2,10.1
		c-1.8,6-4.4,11.6-7.7,16.9c-1.9,3-4.1,5.9-6.5,8.5c-2.3,2.5-4.7,4.9-7.2,7c-2.4,2-4.9,3.8-7.6,5.4c-2.2,1.3-4.3,2.6-6.6,3.6
		C37.1,88.9,35.8,89.3,34.7,90.1z"/>
	<path class="st2" d="M34.7,90.1c1.1-0.8,2.3-1.4,3.6-1.9c2.3-1.1,4.5-2.3,6.6-3.6c2.7-1.6,5.2-3.4,7.6-5.4c2.6-2.2,5-4.7,7.2-7.2
		c2.4-2.7,4.4-5.2,6.3-8.3c3.4-5.3,6.2-11,7.9-17.1c1-3.3,1.7-6.7,2.2-10.2c0.1-0.6,0.1-1.3,0.2-1.9c0-0.3,0.1-0.7,0.3-0.9
		c1.5,3.9,2.5,8.1,3.3,12.1c1,5.5,1.1,11.1,0.3,16.6c-0.9,5.4-2.4,10.8-5.7,15.5c-3.8,5.3-8.9,8.8-15,10.7c-6,1.9-12.1,2.4-18.3,2.1
		c-2-0.1-3.9-0.3-5.9-0.5C35,90.2,34.8,90.2,34.7,90.1z"/>
</g>
</svg>
