<?xml version="1.0" encoding="utf-8"?>
<!-- Generator: Adobe Illustrator 21.0.2, SVG Export Plug-In . SVG Version: 6.00 Build 0)  -->
<svg version="1.1" id="Laag_1" xmlns="http://www.w3.org/2000/svg" xmlns:xlink="http://www.w3.org/1999/xlink" x="0px" y="0px"
	 viewBox="0 0 104.1 104.1" style="enable-background:new 0 0 104.1 104.1;" xml:space="preserve">
<style type="text/css">
	.st0{fill:#762916;}
	.st1{fill:#499E10;}
</style>
<g>
	<path class="st0" d="M63.5,58.7c2.1,0.2,3.3,1.9,5.8,1.8c-1.6,1.4-3,0.2-5.1,0.4c3.3,1.6,5.6,4,9.6,3.1c1.7-0.4,3.5-0.6,5.9-0.2
		c-2.4,0.4-4.3,0.8-6.7,1.2c3.6,0.6,6.6,1,9.6,1.5c0,0.2-0.1,0.4-0.1,0.6C78.7,67,75,66.6,71.2,66c2.7,2.5,6.3,3.7,9.7,5
		c3.8,1.4,8,1.8,12.4,0.4c-2.8,1.5,0.8,1.3,0.3,2.1c-2.3,0.3-4.6-0.5-7.2-0.2c1.2,1.1,2.2,2,3.2,2.9c-0.1,0.1-0.2,0.2-0.3,0.3
		c-2.3-1.3-4.2-3.1-7.2-3.9c0,0.9,0,1.7,0,2.4c-0.3-2.7-2.9-3.2-5.2-4.1c-4.1-1.5-7.5-3.9-10.8-6.4c-2.6-2-5.3-3.9-8.4-5.4
		c-0.4-0.2-0.9-0.7-1.5-0.2c-0.4,0.3-0.2,0.7-0.1,1.1c0.1,0.5,0.1,0.9,0.3,1.4c0.7,2,1.2,4,4.5,4.4c2.7,0.3,5.1,1.7,6.9,3.4
		c1,0.9,2.4,1.6,3.4,2.5c-4-0.5-6.1-4.2-10.6-4.2c4,3.1,8.1,5.9,13.7,7c-0.8,0.8-1.5,0.3-2,0.5c2.3,2.9,6.1,3.7,9.5,5
		c-2-1-4.6,0.4-6.4-1.2c-1.9,1.1-4,2.3-6,3.4c-0.1-0.1-0.2-0.2-0.3-0.3c1-1.2,2.5-1.9,3.9-2.7c1.1-0.7,1.5-1.4,0.2-2.2
		c-1.4-0.9-2.9-1.7-4.3-2.6c-1.1-0.7-1.4,0-1.8,0.6c-0.8,1.2-1.6,2.5-2.4,3.7c-0.2-0.1-0.3-0.1-0.5-0.2c0.5-1.1,0.7-2.4,1.5-3.4
		c1.3-1.6,0.7-2.5-1.1-3.2c-0.5-0.2-0.9-0.5-1.6-0.8c-0.5,1.7-0.2,3.3-0.3,5c-1.9-1.9-3-0.4-4,0.5c-1.1,0.9-2.4,1.8-0.6,3.3
		c1.7,1.3,3.1,2.9,4.2,4.7c-1.9-1.4-3.7-2.8-5.7-4.3c-0.9,2.4,0.4,4.3,0.8,6.4c-0.1,0.1-0.2,0.1-0.3,0.2c-2.1-2-2-4.5-1.7-6.9
		c0.3-2.2,1.8-4,3.9-5.4c2.1-1.5,2.6-3.3,0.9-5.1c-0.9-1-2.2-1.8-3.4-2.8c-1.1,1.7,0.8,3.6-1,5.6c-0.1-1.9-0.6-3.3-1.5-4.9
		c-1,2.7-1.5,5.1-3.8,6.9c-0.6,0.5-0.1,1,0,1.5c0.3,2.3,0.4,4.6-0.7,6.8c-0.2-1.9-0.2-3.8-0.9-5.6c-0.3-0.9-0.6-1.2-1.8-0.6
		c-1.9,1-3.9,1.9-5.9,2.7c-1.1,0.5-1.3,0.8-0.7,1.8c1.8,2.7,3.2,5.6,2.6,8.8c-0.4-1.9-1-3.7-1.9-5.5c-0.5-0.9-0.9-1.2-1.9,0.1
		c0.1-0.8,0-1.1,0.1-1.4c0.3-0.9-0.1-1.6-0.9-2.1c-0.8-0.5-1.3,0.4-2.1,0.6c-0.3,0.1-0.6,0.2-0.9,0.3c-0.1-0.1-0.3-0.2-0.4-0.4
		c2.6-1.6,5.3-3.1,8.2-4.2c5.9-2.4,8.8-6.3,9.1-11.6c0.1-1.2,0.8-2.3,0.1-3.7c-2.7,2.3-5.7,4.1-8,6.6c0-1.2,0.7-2.1,1.5-2.9
		c1.7-1.8,3.4-3.6,5.1-5.3c0.5-0.5,1.1-1,0.7-1.6c-0.5-0.6-1.4-0.3-2-0.1c-2.2,0.4-4.4,0.9-6.6,1.3c-1.6,0.3-2.2,0.9-1.6,2.4
		c1.9,4.5,1.7,5-2.2,8.9c1.7-3.1,2.8-6.1-0.7-8.9c-2.5,2.7-3.8,6-3.9,9.4c-0.1,5.9-3.8,9.5-10.4,11.5c0.7-0.8,0.7-0.9,1.9-1.4
		c4.7-2,7-5.2,6.9-9.6c0-1.7,0.3-3.5,0.9-5.1c0.6-1.5-0.3-1.5-1.6-1.2c-2.8,0.6-5.5,1.3-8.2,3.4c0.3-1.5,1.2-2,1.9-2.5
		c1.4-0.9,2.9-1.4,4.6-1.8c2.8-0.6,5.1-1.5,6.6-3.8c1.3-2,4.2-2.8,6.7-3.5"/>
	<path class="st0" d="M44.1,57.6c5.6-0.6,6.7,0.1,6.2-1.8c-0.1-0.3-0.1-0.5-0.7-0.7c-5.4-1.8-9.9-3.9-14.2-6.1
		c-5.8-3-10.6-6.1-14.7-9.5c-0.3-0.2-0.3-0.5-0.5-0.7c0.8,0.1,0.8-0.1,0.9-0.3c2.2,1.6,4.4,3.2,6.9,4.7c0.2,0.1,0.3,0.4,1,0.2
		c0.7,0.8,1.7,1.6,2.9,2.3c2.2,1.4,4.7,2.7,7.7,3.9c2.2,0.4,3.5,1.2,5,1.9c1.7,0.7,3.5,1.4,5.6,2.1c0.2-1.1,0-2.1-0.1-3.1
		c-0.1-1.1,0.2-2.2,0.4-3.3c0.8-3.3,1.2-6.6,1.8-9.8c0-0.2-0.2-0.4-0.4-0.5c0.5-0.4,0.9-0.7,0.8-1.2c1.4-5.5,1.5-11,1.6-16.5
		c0-0.1-0.1-0.1-0.2-0.2c0.2,0.2,0.6,0.2,0.9,0.2c0.7,1.4,0.6,2.8,0.8,4.2c0.1,0.5-0.3,1,0.7,1.4c-1.4,1.8-1.7,3.7-1.4,5.6
		c0.1,0.4-0.3,7.7-0.6,10.9c-0.1,1.4-0.2,2.8-0.3,4.2c-0.1,0.6,0.3,0.8,1.7,0.4c2.7-0.7,5.4-1.3,8.1-2c1-0.3,0.4-0.7,0.7-1.1
		c0.1,0.7-0.3,1.3-0.7,2c1.4-0.4,2.1-1.2,4.3-0.9c-4,1.5-8.6,2.8-13,4.1c-0.7,0.2-1.2,0.4-1.2,0.8c0,6,0.8,6.7,1,7
		c0.9,1.8,3.8,2.7,8.4,3"/>
	<path class="st1" d="M55.6,25.3c0.1-0.3,0.1-0.6,0-0.9c-0.1-1.3,0-2.7,0.4-4c0.6-1.4,1.6-2.5,2.7-3.5c0.5-0.5,0.7,0.1,0.7,0.3
		c1.1,2.9,0.7,5.6-3,7.6c-0.3,0.1-0.5,0.3-0.7,0.5C55.7,25.3,55.7,25.3,55.6,25.3L55.6,25.3z"/>
	<path class="st1" d="M54,36.1c0.1,0.3-0.1,0.6-0.2,0.8c-3.4-0.8-5.8-3.5-5.2-6.5c0.1-0.3,0.1-0.6,0.2-0.9c0.1-0.5,0.4-0.4,0.7-0.2
		c1.6,1.3,3.4,2.6,4,4.5C53.6,34.6,53.8,35.3,54,36.1z"/>
	<path class="st1" d="M33.7,47.1c-0.9-0.9-1.6-1.8-2.2-2.8c-0.3-0.5-0.6-1.1-0.7-1.7c-0.2-1.3-0.1-2.5,0.2-3.7
		c0.1-0.4,0.2-0.6,0.7-0.3c1.7,1,2.9,2.3,3.2,4c0.2,1.2,0.2,2.4-0.7,3.5C33.9,46.5,34,46.8,33.7,47.1z"/>
	<path class="st1" d="M68.1,38.4c0.8-0.5,1.3-1.1,2.2-1.5c0.8-0.4,1.6-0.6,2.5-0.8c0.4-0.1,0.4,0.1,0.4,0.3
		c-0.1,1.5-1.9,3.2-3.8,3.6c-0.4,0.1-0.8,0.1-1.3,0.2c-1.1,0-1.2-0.1-0.7-0.9C67.7,39,67.9,38.7,68.1,38.4z"/>
	<path class="st1" d="M54.9,20c-0.1,0-0.2,0-0.3-0.1c-0.4-0.8-1.1-1.4-1.5-2.2c-0.6-1.3-0.7-2.6-0.4-3.9c0.1-0.5,0.5-0.2,0.6-0.1
		c2,1.3,3,2.9,2,5.2C55.1,19.4,55,19.7,54.9,20z"/>
	<path class="st1" d="M21.5,38.9c0,0.1,0,0.3-0.3,0.3c-1-0.6-2.1-1.2-2.7-2.1c-0.8-1.4-0.8-2.7,0-4.1c1.4,1.1,2.4,2.2,2.7,3.8
		C21.4,37.5,21.4,38.2,21.5,38.9z"/>
	<path class="st0" d="M68.2,38.2c-0.2,0.3-0.4,0.6-0.6,0.9c-0.5,0.8-0.5,0.9,0.7,0.9c-0.8-0.2-1.1-0.1-1.4,0.4
		c-0.8,1.3-1.1,2.4-3,3.6c-1.3,0.8,0.4-1.1,0.7-1.6c1-1.1,2.1-2.1,2.6-3.4c0.2-0.5,0.8-0.8,1-1.3C68.4,37.9,68.3,38.1,68.2,38.2z"/>
	<path class="st1" d="M53.1,28c0,0.1,0,0.1-0.1,0.2c0,0,0,0-0.1,0C53,28.1,53,28.1,53.1,28L53.1,28z"/>
	<path class="st1" d="M63.6,44.2c-0.8,0-0.8,0.6-1.2,1c0-0.5,0-1-0.1-1.4c-0.8-1.7-0.7-3.4,0.1-5.1c0.3-0.7,0.7-1.4,1.3-2.1
		c1.1,1.1,1.6,2.3,1.8,3.6c-0.1,0.6-0.2,1.1-0.2,1.7C64.8,42.7,64.2,43.4,63.6,44.2z"/>
</g>
</svg>
