<?xml version="1.0" encoding="utf-8"?>
<!-- Generator: Adobe Illustrator 21.0.2, SVG Export Plug-In . SVG Version: 6.00 Build 0)  -->
<svg version="1.1" id="Laag_1" xmlns="http://www.w3.org/2000/svg" xmlns:xlink="http://www.w3.org/1999/xlink" x="0px" y="0px"
	 viewBox="0 0 104.1 104.1" style="enable-background:new 0 0 104.1 104.1;" xml:space="preserve">
<style type="text/css">
	.st0{fill:#499E10;}
	.st1{fill:#B5D89E;}
	.st2{fill:#AD2B12;}
	.st3{fill:#762916;}
	.st4{fill:#3A7F0E;}
	.st5{fill:#F7D29E;}
	.st6{fill:#FDBE52;}
</style>
<g>
	<path class="st0" d="M67.2,41.8c-0.1-2.4-1-4.7-1.9-6.9c-0.3-0.7-0.7-1.4-1.1-2.1c3.8-1.3,7.7-1.8,11.7-1.6c2.4,0.1,4.7,0.6,7,1.3
		c0.1,0,0.4,0.2,0.4,0.3c-0.3,0-0.5,0.3-0.6,0.4c-4,3.6-8,7.2-12.2,10.5c-0.2,0.2-0.4,0.3-0.6,0.4c-0.4-0.4-0.9-0.8-1.3-1.1
		C68.1,42.6,67.6,42.2,67.2,41.8z"/>
	<path class="st1" d="M35.4,43.1c-0.6,0.2-0.9,0.8-1.4,1.1c-0.2-0.1-0.3-0.2-0.5-0.4c-4.1-3.6-8.1-7.1-12.2-10.7
		c-0.2-0.2-0.4-0.3-0.4-0.5c1.3-0.6,2.7-0.8,4-1c2-0.4,4.1-0.4,6.2-0.3c2.9,0.1,5.6,0.6,8.3,1.5c0.1,0,0.2,0.1,0.3,0.1
		c-0.7,1.3-1.4,2.6-1.9,4c-0.5,1.7-1,3.3-1.1,5.1C36.4,42.3,35.7,42.5,35.4,43.1z"/>
	<path class="st0" d="M19.7,35.9c0.2-1.1,0.5-2.1,1-3.1c0.1-0.1,0.1-0.3,0.3-0.3c0,0.3,0.3,0.4,0.4,0.5c4.1,3.6,8.1,7.2,12.2,10.8
		c0.2,0.1,0.3,0.3,0.5,0.4c-1.6,1.8-3,3.7-4,5.8c-1.2,2.7-1.7,5.4-1.8,8.4c-3.5-2.7-6-6-7.6-9.9c-0.8-1.9-1.2-4.6-1.4-6.6
		C19.2,40.1,19.5,36.8,19.7,35.9z"/>
	<path class="st0" d="M39.7,32.8c1.6-2.5,3.6-4.8,6.1-6.6c1.6-1.2,3.4-2.3,5.3-3.2c0.3-0.1,0.7-0.2,0.9-0.4c0.1,0.3,0.1,0.6,0.1,0.8
		c0,4.5,0,9.1,0,13.6c-2.5,0.1-5,0.4-7.4,1.1c-2.9,0.8-5.5,2.2-7.9,3.8c0-1.7,0.5-3.4,1.1-5.1C38.3,35.4,39,34.1,39.7,32.8z"/>
	<path class="st1" d="M75.8,58.3c0-2.8-0.5-5.5-1.7-8.1c-1-2.2-2.4-4.2-4.1-6c0.2-0.1,0.4-0.3,0.6-0.4c4-3.5,8.1-7.1,12.1-10.6
		c0.2-0.2,0.3-0.4,0.6-0.4C87.1,41.8,84,52,75.8,58.3z"/>
	<path class="st2" d="M24,58.2c0-3.4,0.6-6.6,2.1-9.8c1.2-2.5,2.8-4.7,4.7-6.8c0.6-0.4,0.9-1.1,1.6-1.3c2.4,4.9,6.4,8.3,12,10.2
		c2.4,0.9,5.1,1.1,7.7,1.2c0,9.8,0.7,19.8,0.7,29.7c0,0.9-14.7,0.1-20.5-5.8c-3.9-3.3-6.3-7.3-7.5-11.9C24.3,61.9,24.2,60,24,58.2z"
		/>
	<path class="st3" d="M52.1,81.4c0-9.9,0-19.8,0-29.7v-0.1c0.9,0,1.8,0,2.6-0.1C60,51,64.4,48.9,68,45.4c1.6-1.5,2.7-3.3,3.7-5.2
		c0.5,0.5,1,0.9,1.5,1.4c2,2.1,3.7,4.5,4.8,7.1c1.4,3.1,1.9,6.2,2,9.5c-0.2,2.2-0.4,4.4-1,6.5c-1.3,4.3-4.1,7.7-7.4,11.1
		C66.3,81.2,52.1,82.3,52.1,81.4z"/>
	<path class="st4" d="M52,37c0-4.5,0-9.1,0-13.6c0-0.2,0-0.6,0-0.8c4.1,1.7,7.6,4.3,10.3,7.5c0.8,0.9,1.4,1.8,2,2.8
		c0.4,0.7,0.8,1.4,1.1,2.1c1,2.2,1.7,4.5,1.9,6.9c-1.8-1.2-3.6-2.3-5.7-3.1C58.6,37.6,55.4,37,52,37L52,37z"/>
	<path class="st5" d="M32.5,40.3c0.3-0.7,1.1-0.9,1.6-1.4c2.8-2,5.9-3.5,9.3-4.5c2.8-0.8,5.6-1.3,8.6-1.4l0.2,0.1
		c0,6.2,0,12.4,0,18.6v0.1c-2.6-0.1-5.2-0.4-7.6-1.3C38.8,48.6,34.8,45.2,32.5,40.3z"/>
	<path class="st6" d="M52.1,51.8c0-6.2-0.1-12.6-0.1-18.8c4,0,7.8,0.9,11.5,2.3c2.4,0.9,4.6,2.2,6.7,3.6c0.5,0.5,1.1,0.9,1.6,1.4
		c-1,1.9-2.2,3.6-3.7,5.2c-3.6,3.5-8,5.6-13.3,6.2C53.8,51.8,52.9,51.8,52.1,51.8z"/>
</g>
</svg>
