<?xml version="1.0" encoding="utf-8"?>
<!-- Generator: Adobe Illustrator 21.0.2, SVG Export Plug-In . SVG Version: 6.00 Build 0)  -->
<svg version="1.1" id="Laag_1" xmlns="http://www.w3.org/2000/svg" xmlns:xlink="http://www.w3.org/1999/xlink" x="0px" y="0px"
	 viewBox="0 0 104.1 104.1" style="enable-background:new 0 0 104.1 104.1;" xml:space="preserve">
<style type="text/css">
	.st0{fill:#3A7F0E;}
</style>
<g>
	<path class="st0" d="M51.3,27.1c0.1,0.1,0.2,0.3,0.3,0.4c7.4,6.9,14.8,13.8,22.2,20.7c0.1,0.1,0.2,0.2,0.3,0.4c0.3,0.3,0.2,0.8,0,1
		c-0.3,0.3-0.7,0.4-1,0.1c-0.3-0.3-0.7-0.6-1-0.9c-0.6-0.5-1.1-1-1.7-1.6c0,9,0,17.8,0,26.6c-12.8,0-25.6,0-38.4,0
		c0-8.8,0-17.7,0-26.7c-0.7,0.7-1.4,1.3-2,1.9c-0.2,0.2-0.5,0.4-0.7,0.6c-0.3,0.3-0.8,0.2-1-0.1c-0.3-0.3-0.3-0.7,0-1
		c0.1-0.1,0.2-0.2,0.3-0.4c7.4-6.9,14.8-13.8,22.2-20.7c0.1-0.1,0.2-0.2,0.3-0.4C51.2,27.1,51.3,27.1,51.3,27.1z M68.8,72.2
		c0-0.2,0-0.3,0-0.5c0-8.5,0-17.1,0-25.6c0-0.3-0.1-0.5-0.3-0.7c-5.7-5.3-11.4-10.5-17-15.8c-0.1-0.1-0.2-0.1-0.2-0.2
		c-0.1,0.1-0.1,0.1-0.2,0.1c-5.7,5.3-11.5,10.6-17.2,16c-0.1,0.1-0.2,0.4-0.2,0.6c0,8.5,0,17.1,0,25.6c0,0.2,0,0.3,0,0.5
		c3.8,0,7.5,0,11.2,0c0-0.2,0-0.4,0-0.6c0-4,0-7.9,0-11.9c0-0.5,0-0.9,0.1-1.4c0.5-3.5,4.2-6,7.7-5.2c3,0.7,5,3.2,5,6.3
		c0,4,0,8.1,0,12.1c0,0.2,0,0.4,0,0.5C61.4,72.2,65.1,72.2,68.8,72.2z M56,72.2c0-0.1,0-0.2,0-0.3c0-4.2,0-8.4,0-12.5
		c0-3.2-2.9-5.4-5.9-4.7c-2.2,0.5-3.6,2.5-3.7,4.9c0,4,0,8.1,0,12.1c0,0.4,0.1,0.5,0.5,0.5c2.9,0,5.7,0,8.6,0
		C55.7,72.2,55.8,72.2,56,72.2z"/>
</g>
</svg>
