<?xml version="1.0" encoding="utf-8"?>
<!-- Generator: Adobe Illustrator 21.0.2, SVG Export Plug-In . SVG Version: 6.00 Build 0)  -->
<svg version="1.1" id="Laag_1" xmlns="http://www.w3.org/2000/svg" xmlns:xlink="http://www.w3.org/1999/xlink" x="0px" y="0px"
	 viewBox="0 0 104.1 104.1" style="enable-background:new 0 0 104.1 104.1;" xml:space="preserve">
<style type="text/css">
	.st0{fill:#3A7F0E;}
	.st1{fill:#FFFFFF;}
</style>
<g>
	<path class="st0" d="M42.9,23.9c0.3,0.1,0.6,0.1,1,0.2c4,0.9,6.5,3.4,7.5,7.3c0.2,1,0.1,2,0.2,3c0,0.2,0,0.5,0.2,0.6
		c1.7,1.9,2.6,4.2,2.5,6.8c0,0.3,0,0.7,0,1c0,0,0,0.1,0.1,0.2c0.3-0.3,0.6-0.7,1-0.9c0.5-0.4,0.2-0.8,0.2-1.2
		c-0.1-2,0.4-3.9,1.5-5.6c2-3,4.9-4.5,8.5-4.4c0.1,0,0.2,0,0.3,0c1.6,0.2,1.6,0.2,1.8,1.8c0.3,2.5-0.4,4.8-2,6.7
		c-2.2,2.7-5.1,3.9-8.6,3.6c-0.2,0-0.4,0.1-0.5,0.2c-0.7,0.7-1.4,1.4-2.1,2.1c-0.1,0.1-0.2,0.3-0.2,0.4c0,4.9,0,9.8,0,14.7
		c0,0,0,0.1,0.1,0.2c0.6-0.6,1-1.1,1.6-1.6c0.8-0.6,1-1.3,0.9-2.3c-0.3-3.3,0.8-6.3,2.9-8.8c2-2.4,4.5-3.9,7.6-4.5
		c1.5-0.3,3.1-0.3,4.6,0.1c0.4,0.1,0.7,0.3,0.8,0.8c0.5,2.6,0.2,5.2-0.9,7.6c-1.6,3.4-4.1,5.7-7.7,6.9c-1.7,0.6-3.5,0.8-5.3,0.5
		c-0.5-0.1-0.8,0-1.1,0.4c-1,1.1-2,2-3,3.1c-0.2,0.2-0.3,0.4-0.3,0.7c0,1.3,0,2.6,0,3.9c0,0.4,0.1,0.6,0.6,0.6
		c2.6,0.1,5.1,0.5,7.6,1.3c2.4,0.8,4.7,1.9,6.7,3.5c0.4,0.3,0.7,0.4,1.2,0.4c0.8,0,1.6,0,2.4,0c0.6,0,0.9,0.3,0.9,0.7
		c0.1,0.4-0.2,0.9-0.7,0.9c-0.2,0-0.4,0-0.5,0c-12.6,0-25.2,0-37.9,0c-0.8,0-1.2-0.3-1.3-0.8c0-0.6,0.4-0.9,1.3-0.9
		c0.8,0,1.6,0,2.3,0c0.3,0,0.6-0.1,0.8-0.3c3.5-2.7,7.5-4.1,11.9-4.7c0.9-0.1,1.8-0.2,2.7-0.2c0.3,0,0.4-0.1,0.4-0.5
		c0-3.7,0-7.4,0-11.1c0-0.2-0.1-0.5-0.2-0.6c-1.1-1.1-2.2-2.2-3.3-3.3c-0.1-0.1-0.4-0.2-0.6-0.2c-3,0.4-5.8-0.3-8.4-1.8
		c-4.4-2.7-6.8-8.1-5.8-13.1c0.1-0.5,0.3-0.8,0.9-0.9c2.6-0.5,5.2-0.2,7.6,0.9c3.3,1.5,5.5,4,6.8,7.4c0.7,1.9,0.9,3.9,0.6,5.9
		c0,0.2,0,0.4,0.1,0.5c0.8,0.8,1.6,1.6,2.4,2.5c0-0.2,0-0.4,0-0.5c0-3.8,0-7.6,0-11.3c0-2.1-0.6-3.9-2-5.5c-0.1-0.2-0.4-0.3-0.6-0.2
		c-4.4,0.5-8.7-2.2-10.1-6.5c-0.5-1.5-0.6-3.1-0.3-4.7c0.1-0.4,0.3-0.6,0.7-0.7c0.3-0.1,0.6-0.1,1-0.2
		C41.8,23.9,42.4,23.9,42.9,23.9z M59.6,57.6c0,0,0.1,0.1,0.1,0.1c0.5,0,0.9,0,1.4,0c6.1-0.5,10.8-6.2,10.1-12.3
		c0-0.3-0.1-0.4-0.4-0.4c-1.1,0-2.3-0.1-3.4,0.2c-4.8,1.1-7.7,4.2-8.8,9c-0.2,0.8-0.1,1.6-0.2,2.3c0,0,0.1,0,0.1,0
		c0.1-0.1,0.3-0.2,0.4-0.4c2.3-2.3,4.6-4.6,6.9-6.9c0.1-0.1,0.3-0.3,0.4-0.4c0.4-0.3,0.7-0.2,1,0.1c0.3,0.3,0.3,0.7,0.1,1
		c-0.1,0.1-0.2,0.3-0.4,0.4c-2.3,2.3-4.6,4.6-6.9,6.9C59.9,57.5,59.7,57.5,59.6,57.6z M48.5,49.6c0-0.2,0-0.3,0-0.4
		c0-0.5,0-1-0.1-1.5c-0.8-4.5-3.3-7.6-7.6-9.1c-1.5-0.5-3-0.7-4.6-0.5c-0.2,0-0.4,0.2-0.4,0.3c-0.2,1.2-0.2,2.4,0.1,3.6
		c1.2,4.8,4.3,7.7,9.1,8.7c0.7,0.1,1.4,0.1,2.2,0.2c0-0.1,0.1-0.1,0.1-0.2c-0.2-0.1-0.3-0.2-0.4-0.3c-2.3-2.3-4.6-4.6-6.9-6.9
		c-0.1-0.1-0.3-0.3-0.4-0.4c-0.2-0.4-0.2-0.7,0.1-1c0.3-0.3,0.6-0.3,1-0.1c0.2,0.1,0.3,0.3,0.5,0.4C43.5,44.6,46,47.1,48.5,49.6z
		 M66.7,73.2c-7.6-5-19.9-4.5-26.4,0C49.1,73.2,57.8,73.2,66.7,73.2z M49.9,33.3c0-0.1,0-0.2,0-0.2c0-4.2-4.3-8-8.5-7.5
		c-0.3,0-0.3,0.2-0.3,0.5c-0.3,3.6,2.1,7,5.6,8.1c0.6,0.2,1.3,0.3,2,0.4c0-0.1,0-0.1,0.1-0.2c-0.1-0.1-0.3-0.2-0.4-0.3
		c-1.4-1.4-2.7-2.7-4.1-4.1c-0.5-0.5-0.6-1-0.2-1.3c0.4-0.4,0.8-0.3,1.3,0.2c1.1,1.1,2.2,2.2,3.2,3.2C49.1,32.4,49.5,32.8,49.9,33.3
		z M65.9,32.7C61,32,57,36.4,57.2,40.3c0.1-0.1,0.3-0.3,0.4-0.4c1.3-1.3,2.6-2.7,4-4c0.1-0.1,0.3-0.3,0.4-0.4c0.4-0.2,0.7-0.2,1,0.1
		c0.3,0.3,0.3,0.6,0.1,1c-0.1,0.2-0.2,0.3-0.4,0.5c-1.3,1.4-2.7,2.7-4,4c-0.1,0.1-0.2,0.2-0.4,0.4C63.1,41.4,66.6,37,65.9,32.7z"/>
	<path class="st1" d="M59.6,57.6c0.2-0.1,0.3-0.2,0.5-0.3c2.3-2.3,4.6-4.6,6.9-6.9c0.1-0.1,0.3-0.3,0.4-0.4c0.3-0.4,0.2-0.7-0.1-1
		c-0.3-0.3-0.7-0.3-1-0.1c-0.1,0.1-0.3,0.2-0.4,0.4c-2.3,2.3-4.6,4.6-6.9,6.9c-0.1,0.1-0.3,0.2-0.4,0.4c0,0-0.1,0-0.1,0
		c0.1-0.8,0-1.6,0.2-2.3c1.1-4.8,4-7.8,8.8-9c1.1-0.3,2.3-0.1,3.4-0.2c0.3,0,0.4,0.1,0.4,0.4c0.7,6.1-4,11.8-10.1,12.3
		c-0.5,0-0.9,0-1.4,0C59.6,57.7,59.6,57.7,59.6,57.6z"/>
	<path class="st1" d="M48.5,49.6c-2.5-2.5-4.9-4.9-7.4-7.4c-0.2-0.2-0.3-0.3-0.5-0.4c-0.3-0.2-0.7-0.1-1,0.1c-0.3,0.3-0.3,0.6-0.1,1
		c0.1,0.2,0.2,0.3,0.4,0.4c2.3,2.3,4.6,4.6,6.9,6.9c0.1,0.1,0.3,0.2,0.4,0.3c0,0.1-0.1,0.1-0.1,0.2c-0.7-0.1-1.5,0-2.2-0.2
		c-4.9-1-7.9-3.9-9.1-8.7c-0.3-1.2-0.3-2.4-0.1-3.6c0-0.1,0.3-0.3,0.4-0.3c1.6-0.2,3.1-0.1,4.6,0.5c4.3,1.6,6.9,4.6,7.6,9.1
		c0.1,0.5,0.1,1,0.1,1.5C48.5,49.2,48.5,49.3,48.5,49.6z"/>
	<path class="st1" d="M66.7,73.2c-8.9,0-17.6,0-26.4,0C46.8,68.7,59.1,68.2,66.7,73.2z"/>
	<path class="st1" d="M49.9,33.3c-0.5-0.5-0.9-0.9-1.3-1.3c-1.1-1.1-2.2-2.2-3.2-3.2c-0.5-0.5-1-0.6-1.3-0.2
		c-0.4,0.4-0.3,0.8,0.2,1.3c1.4,1.4,2.7,2.7,4.1,4.1c0.1,0.1,0.2,0.2,0.4,0.3c0,0.1,0,0.1-0.1,0.2c-0.7-0.1-1.3-0.2-2-0.4
		c-3.5-1-5.8-4.5-5.6-8.1c0-0.2,0-0.4,0.3-0.5c4.2-0.5,8.5,3.2,8.5,7.5C50,33.1,49.9,33.1,49.9,33.3z"/>
	<path class="st1" d="M65.9,32.7c0.7,4.3-2.9,8.7-7.6,8.8c0.2-0.2,0.3-0.3,0.4-0.4c1.3-1.3,2.7-2.7,4-4c0.1-0.1,0.3-0.3,0.4-0.5
		c0.2-0.3,0.1-0.7-0.1-1c-0.3-0.3-0.6-0.3-1-0.1c-0.2,0.1-0.3,0.2-0.4,0.4c-1.3,1.3-2.6,2.6-4,4c-0.1,0.1-0.3,0.2-0.4,0.4
		C57,36.4,61,32,65.9,32.7z"/>
</g>
</svg>
