<?xml version="1.0" encoding="utf-8"?>
<!-- Generator: Adobe Illustrator 21.0.2, SVG Export Plug-In . SVG Version: 6.00 Build 0)  -->
<svg version="1.1" id="Laag_1" xmlns="http://www.w3.org/2000/svg" xmlns:xlink="http://www.w3.org/1999/xlink" x="0px" y="0px"
	 viewBox="0 0 104.1 104.1" style="enable-background:new 0 0 104.1 104.1;" xml:space="preserve">
<style type="text/css">
	.st0{fill:#3A7F0E;}
	.st1{fill:#FFFFFF;}
</style>
<g>
	<path class="st0" d="M63.6,27.3c2,0,4.1,0,6.1,0c0.4,0.3,0.6,0.7,0.5,1.2c0,0.7,0,1.3,0,2c0.2,0,0.4,0,0.6,0c1.6,0,3.1,0,4.7,0
		c0.9,0,1.2,0.3,1.2,1.1c0,14.2,0,28.4,0,42.5c0,0.5-0.1,0.9-0.6,1.1c-14.6,0-29.1,0-43.7,0c-0.4-0.2-0.6-0.6-0.6-1.1
		c0-14.2,0-28.4,0-42.6c0-0.8,0.3-1.1,1.1-1.1c1.6,0,3.2,0,4.8,0c0.2,0,0.3,0,0.5,0c0-0.7,0-1.4,0-2c0-0.5,0.1-0.9,0.5-1.2
		c2,0,4.1,0,6.1,0c0.4,0.2,0.6,0.6,0.6,1.1c0,0.7,0,1.4,0,2.1c5.9,0,11.7,0,17.6,0c0-0.7,0-1.4,0-2.1C63,27.9,63.1,27.5,63.6,27.3z
		 M33.4,73.6c13.9,0,27.7,0,41.6,0c0-10.9,0-21.8,0-32.7c-13.9,0-27.7,0-41.6,0C33.4,51.8,33.4,62.7,33.4,73.6z M33.4,39.2
		c13.9,0,27.7,0,41.6,0c0-2.4,0-4.8,0-7.1c-1.6,0-3.2,0-4.8,0c0,0.7,0,1.4,0,2.1c0,0.7-0.3,1-1,1c-1.7,0-3.4,0-5.2,0
		c-0.8,0-1-0.3-1-1.1c0-0.7,0-1.4,0-2.1c-5.9,0-11.7,0-17.6,0c0,0.1,0,0.1,0,0.1c0,0.7,0,1.3,0,2c0,0.8-0.3,1.1-1.1,1.1
		c-1.7,0-3.3,0-5,0c-0.9,0-1.2-0.2-1.2-1.2c0-0.7,0-1.3,0-2c-1.6,0-3.2,0-4.8,0C33.4,34.5,33.4,36.8,33.4,39.2z M68.6,33.7
		c0-1.6,0-3.2,0-4.7c-1.3,0-2.6,0-3.9,0c0,1.6,0,3.2,0,4.7C66,33.7,67.2,33.7,68.6,33.7z M39.8,33.6c1.4,0,2.6,0,3.9,0
		c0-1.6,0-3.2,0-4.7c-1.3,0-2.6,0-3.9,0C39.8,30.5,39.8,32,39.8,33.6z"/>
	<path class="st1" d="M33.4,73.6c0-10.9,0-21.8,0-32.7c13.9,0,27.7,0,41.6,0c0,10.9,0,21.8,0,32.7C61.1,73.6,47.3,73.6,33.4,73.6z
		 M39,68.9c10.1,0,20.2,0,30.3,0c0-7.7,0-15.4,0-23.2c-10.1,0-20.2,0-30.3,0C39,53.4,39,61.1,39,68.9z"/>
	<path class="st1" d="M33.4,39.2c0-2.4,0-4.8,0-7.1c1.6,0,3.2,0,4.8,0c0,0.7,0,1.3,0,2c0,0.9,0.2,1.2,1.2,1.2c1.7,0,3.3,0,5,0
		c0.8,0,1.1-0.3,1.1-1.1c0-0.7,0-1.3,0-2c0,0,0-0.1,0-0.1c5.8,0,11.7,0,17.6,0c0,0.7,0,1.4,0,2.1c0,0.8,0.3,1.1,1,1.1
		c1.7,0,3.4,0,5.2,0c0.7,0,1-0.3,1-1c0-0.7,0-1.4,0-2.1c1.6,0,3.2,0,4.8,0c0,2.4,0,4.7,0,7.1C61.1,39.2,47.3,39.2,33.4,39.2z"/>
	<path class="st1" d="M68.6,33.7c-1.3,0-2.6,0-3.9,0c0-1.6,0-3.1,0-4.7c1.3,0,2.6,0,3.9,0C68.6,30.5,68.6,32,68.6,33.7z"/>
	<path class="st1" d="M39.8,33.6c0-1.6,0-3.1,0-4.7c1.3,0,2.6,0,3.9,0c0,1.6,0,3.1,0,4.7C42.5,33.6,41.2,33.6,39.8,33.6z"/>
	<path class="st0" d="M39,68.9c0-7.7,0-15.4,0-23.2c10.1,0,20.2,0,30.3,0c0,7.7,0,15.4,0,23.2C59.3,68.9,49.2,68.9,39,68.9z
		 M62.2,54.5c0,1.9,0,3.7,0,5.6c1.9,0,3.7,0,5.5,0c0-1.9,0-3.7,0-5.6C65.9,54.5,64.1,54.5,62.2,54.5z M40.6,54.5c0,1.9,0,3.7,0,5.6
		c1.9,0,3.7,0,5.5,0c0-1.9,0-3.7,0-5.6C44.3,54.5,42.5,54.5,40.6,54.5z M62.2,67.3c1.9,0,3.7,0,5.5,0c0-1.9,0-3.7,0-5.5
		c-1.9,0-3.7,0-5.5,0C62.2,63.6,62.2,65.4,62.2,67.3z M46.2,67.3c0-1.9,0-3.7,0-5.5c-1.9,0-3.7,0-5.5,0c0,1.9,0,3.7,0,5.5
		C42.5,67.3,44.3,67.3,46.2,67.3z M62.2,47.3c0,1.9,0,3.7,0,5.5c1.9,0,3.7,0,5.5,0c0-1.9,0-3.7,0-5.5C65.9,47.3,64.1,47.3,62.2,47.3
		z M46.2,47.3c-1.9,0-3.7,0-5.5,0c0,1.9,0,3.7,0,5.5c1.9,0,3.7,0,5.5,0C46.2,51,46.2,49.2,46.2,47.3z M60.6,47.3c-0.1,0-0.1,0-0.2,0
		c-1.7,0-3.3,0-5,0c-0.3,0-0.4,0.1-0.4,0.4c0,1.6,0,3.2,0,4.9c0,0.1,0,0.2,0,0.3c1.9,0,3.7,0,5.5,0C60.6,51,60.6,49.2,60.6,47.3z
		 M53.4,52.9c0-1.8,0-3.6,0-5.3c0-0.1-0.2-0.2-0.4-0.2c-1.2,0-2.5,0-3.7,0c-0.5,0-0.9,0-1.4,0c0,1.9,0,3.7,0,5.6
		C49.7,52.9,51.5,52.9,53.4,52.9z M53.4,60.1c0-1.9,0-3.7,0-5.6c-1.9,0-3.7,0-5.5,0c0,1.9,0,3.7,0,5.6
		C49.7,60.1,51.5,60.1,53.4,60.1z M60.6,60.1c0-1.9,0-3.7,0-5.6c-1.9,0-3.7,0-5.5,0c0,1.9,0,3.7,0,5.6
		C56.9,60.1,58.7,60.1,60.6,60.1z M53.4,61.7c-1.9,0-3.7,0-5.5,0c0,1.9,0,3.7,0,5.5c1.9,0,3.7,0,5.5,0
		C53.4,65.4,53.4,63.6,53.4,61.7z M55,67.3c1.9,0,3.7,0,5.5,0c0-1.9,0-3.7,0-5.5c-1.9,0-3.7,0-5.5,0C55,63.6,55,65.4,55,67.3z"/>
	<path class="st1" d="M62.2,54.5c1.9,0,3.7,0,5.5,0c0,1.9,0,3.7,0,5.6c-1.8,0-3.7,0-5.5,0C62.2,58.2,62.2,56.4,62.2,54.5z"/>
	<path class="st1" d="M40.6,54.5c1.9,0,3.7,0,5.5,0c0,1.9,0,3.7,0,5.6c-1.8,0-3.7,0-5.5,0C40.6,58.2,40.6,56.4,40.6,54.5z"/>
	<path class="st1" d="M62.2,67.3c0-1.9,0-3.7,0-5.5c1.8,0,3.7,0,5.5,0c0,1.8,0,3.7,0,5.5C65.9,67.3,64.1,67.3,62.2,67.3z"/>
	<path class="st1" d="M46.2,67.3c-1.9,0-3.7,0-5.5,0c0-1.8,0-3.7,0-5.5c1.8,0,3.7,0,5.5,0C46.2,63.5,46.2,65.4,46.2,67.3z"/>
	<path class="st1" d="M62.2,47.3c1.9,0,3.7,0,5.5,0c0,1.8,0,3.7,0,5.5c-1.8,0-3.7,0-5.5,0C62.2,51,62.2,49.2,62.2,47.3z"/>
	<path class="st1" d="M46.2,47.3c0,1.9,0,3.7,0,5.5c-1.8,0-3.7,0-5.5,0c0-1.8,0-3.7,0-5.5C42.5,47.3,44.3,47.3,46.2,47.3z"/>
	<path class="st1" d="M60.6,47.3c0,1.8,0,3.7,0,5.5c-1.8,0-3.7,0-5.5,0c0-0.1,0-0.2,0-0.3c0-1.6,0-3.2,0-4.9c0-0.3,0-0.4,0.4-0.4
		c1.7,0,3.3,0,5,0C60.4,47.3,60.5,47.3,60.6,47.3z"/>
	<path class="st1" d="M53.4,52.9c-1.9,0-3.7,0-5.6,0c0-1.9,0-3.7,0-5.6c0.5,0,1,0,1.4,0c1.2,0,2.5,0,3.7,0c0.1,0,0.4,0.2,0.4,0.2
		C53.4,49.3,53.4,51.1,53.4,52.9z"/>
	<path class="st1" d="M53.4,60.1c-1.8,0-3.7,0-5.5,0c0-1.8,0-3.7,0-5.6c1.8,0,3.7,0,5.5,0C53.4,56.4,53.4,58.2,53.4,60.1z"/>
	<path class="st1" d="M60.6,60.1c-1.9,0-3.7,0-5.5,0c0-1.9,0-3.7,0-5.6c1.8,0,3.7,0,5.5,0C60.6,56.3,60.6,58.2,60.6,60.1z"/>
	<path class="st1" d="M53.4,61.7c0,1.8,0,3.7,0,5.5c-1.8,0-3.7,0-5.5,0c0-1.8,0-3.7,0-5.5C49.7,61.7,51.5,61.7,53.4,61.7z"/>
	<path class="st1" d="M55,67.3c0-1.9,0-3.7,0-5.5c1.8,0,3.7,0,5.5,0c0,1.8,0,3.7,0,5.5C58.7,67.3,56.9,67.3,55,67.3z"/>
</g>
</svg>
